<?xml version="1.0" encoding="UTF-8" standalone="no"?>
<!DOCTYPE svg PUBLIC "-//W3C//DTD SVG 1.1//EN"
 "http://www.w3.org/Graphics/SVG/1.1/DTD/svg11.dtd">
<!-- Generated by graphviz version 2.36.0 (20140111.2315)
 -->
<!-- Title: %3 Pages: 1 -->
<svg width="288pt" height="66pt"
 viewBox="0.00 0.00 288.00 65.96" xmlns="http://www.w3.org/2000/svg" xmlns:xlink="http://www.w3.org/1999/xlink">
<g id="graph0" class="graph" transform="scale(0.340024 0.340024) rotate(0) translate(4 190)">
<title>%3</title>
<polygon fill="white" stroke="none" points="-4,4 -4,-190 843,-190 843,4 -4,4"/>
<!-- Music (#0)&#45;&gt;a -->
<g id="edge10" class="edge"><title>Music (#0)&#45;&gt;a</title>
<path fill="none" stroke="black" d="M377.405,-149.391C346.139,-138.921 305.56,-125.332 272.419,-114.233"/>
<polygon fill="black" stroke="black" points="273.433,-110.882 262.839,-111.025 271.21,-117.519 273.433,-110.882"/>
</g>
<!-- Music (#0)&#45;&gt;b -->
<g id="edge11" class="edge"><title>Music (#0)&#45;&gt;b</title>
<path fill="none" stroke="black" d="M443.826,-148.937C452.714,-139.924 463.786,-128.696 473.599,-118.744"/>
<polygon fill="black" stroke="black" points="476.272,-121.019 480.802,-111.441 471.288,-116.104 476.272,-121.019"/>
</g>
<!-- Music (#0)&#45;&gt;c -->
<g id="edge12" class="edge"><title>Music (#0)&#45;&gt;c</title>
<path fill="none" stroke="black" d="M476.595,-155.913C538.259,-143.371 643.811,-121.903 712.992,-107.832"/>
<polygon fill="black" stroke="black" points="713.823,-111.235 722.925,-105.812 712.428,-104.375 713.823,-111.235"/>
</g>
<!-- Music (#0)&#45;&gt;d -->
<g id="edge7" class="edge"><title>Music (#0)&#45;&gt;d</title>
<path fill="none" stroke="black" d="M382.244,-148.852C315.018,-121.594 188.177,-70.1623 115.94,-40.8716"/>
<polygon fill="black" stroke="black" points="117.133,-37.5786 106.551,-37.0644 114.503,-44.0656 117.133,-37.5786"/>
</g>
<!-- Music (#0)&#45;&gt;e -->
<g id="edge8" class="edge"><title>Music (#0)&#45;&gt;e</title>
<path fill="none" stroke="black" d="M417.558,-148.852C404.223,-123.221 379.768,-76.2169 364.226,-46.3443"/>
<polygon fill="black" stroke="black" points="367.239,-44.5519 359.519,-37.2961 361.029,-47.7828 367.239,-44.5519"/>
</g>
<!-- Music (#0)&#45;&gt;f -->
<g id="edge9" class="edge"><title>Music (#0)&#45;&gt;f</title>
<path fill="none" stroke="black" d="M455.448,-148.852C497.393,-122.094 575.851,-72.0435 622.15,-42.5077"/>
<polygon fill="black" stroke="black" points="624.135,-45.3933 630.683,-37.0644 620.37,-39.4919 624.135,-45.3933"/>
</g>
<!-- a&#45;&gt;X1 -->
<!-- b&#45;&gt;X2 -->
<!-- c&#45;&gt;X3 -->
<!-- d&#45;&gt;X1 -->
<!-- e&#45;&gt;X2 -->
<!-- f&#45;&gt;X3 -->
<!-- Music (#0) -->
<g id="node1" class="node"><title>Music (#0)</title>
<polygon fill="#ff8888" stroke="black" points="377.5,-149 377.5,-185 476.5,-185 476.5,-149 377.5,-149"/>
<text text-anchor="middle" x="427" y="-163.3" font-family="monoOne" font-size="14.00">Music (#0)</text>
</g>
<!-- a -->
<g id="node2" class="node"><title>a</title>
<polygon fill="#ffaa88" stroke="black" points="113,-75 113,-111 311,-111 311,-75 113,-75"/>
<text text-anchor="middle" x="212" y="-89.3" font-family="monoOne" font-size="14.00"> Alternative Pop (#0) </text>
</g>
<!-- b -->
<g id="node3" class="node"><title>b</title>
<polygon fill="#ffaa88" stroke="black" points="395,-75 395,-111 601,-111 601,-75 395,-75"/>
<text text-anchor="middle" x="498" y="-89.3" font-family="monoOne" font-size="14.00"> Alternative Rock (#1) </text>
</g>
<!-- c -->
<g id="node4" class="node"><title>c</title>
<polygon fill="#ffaa88" stroke="black" points="723,-75 723,-111 839,-111 839,-75 723,-75"/>
<text text-anchor="middle" x="781" y="-89.3" font-family="monoOne" font-size="14.00"> j&#45;Pop (#2) </text>
</g>
<!-- X1 -->
<g id="node5" class="node"><title>X1</title>
</g>
<!-- X2 -->
<g id="node6" class="node"><title>X2</title>
</g>
<!-- X3 -->
<g id="node7" class="node"><title>X3</title>
</g>
<!-- d -->
<g id="node8" class="node"><title>d</title>
<polygon fill="#ffaa88" stroke="black" points="0,-1 0,-37 124,-37 124,-1 0,-1"/>
<text text-anchor="middle" x="62" y="-15.3" font-family="monoOne" font-size="14.00"> Reggae (#3) </text>
</g>
<!-- e -->
<g id="node9" class="node"><title>e</title>
<polygon fill="#ffaa88" stroke="black" points="214,-1 214,-37 486,-37 486,-1 214,-1"/>
<text text-anchor="middle" x="350" y="-15.3" font-family="monoOne" font-size="14.00"> Swedish Alternative Rock (#4) </text>
</g>
<!-- f -->
<g id="node10" class="node"><title>f</title>
<polygon fill="#ffaa88" stroke="black" points="576.5,-1 576.5,-37 741.5,-37 741.5,-1 576.5,-1"/>
<text text-anchor="middle" x="659" y="-15.3" font-family="monoOne" font-size="14.00"> Swedish Pop (#5) </text>
</g>
</g>
</svg>
