<?xml version="1.0" encoding="UTF-8" standalone="no"?>
<!DOCTYPE svg PUBLIC "-//W3C//DTD SVG 1.1//EN"
 "http://www.w3.org/Graphics/SVG/1.1/DTD/svg11.dtd">
<!-- Generated by graphviz version 2.36.0 (20140111.2315)
 -->
<!-- Title: %3 Pages: 1 -->
<svg width="288pt" height="120pt"
 viewBox="0.00 0.00 288.00 120.15" xmlns="http://www.w3.org/2000/svg" xmlns:xlink="http://www.w3.org/1999/xlink">
<g id="graph0" class="graph" transform="scale(0.619355 0.619355) rotate(0) translate(4 190)">
<title>%3</title>
<polygon fill="white" stroke="none" points="-4,4 -4,-190 461,-190 461,4 -4,4"/>
<!-- Music (#0) -->
<g id="node1" class="node"><title>Music (#0)</title>
<polygon fill="none" stroke="black" points="220.5,-149 220.5,-185 297.5,-185 297.5,-149 220.5,-149"/>
<text text-anchor="middle" x="259" y="-163.3" font-family="Times,serif" font-size="14.00">Music (#0)</text>
</g>
<!-- Pop (#0) -->
<g id="node2" class="node"><title>Pop (#0)</title>
<polygon fill="none" stroke="black" points="125,-75 125,-111 189,-111 189,-75 125,-75"/>
<text text-anchor="middle" x="157" y="-89.3" font-family="Times,serif" font-size="14.00">Pop (#0)</text>
</g>
<!-- Music (#0)&#45;&gt;Pop (#0) -->
<g id="edge1" class="edge"><title>Music (#0)&#45;&gt;Pop (#0)</title>
<path fill="none" stroke="black" d="M234.827,-148.937C221.334,-139.412 204.338,-127.415 189.673,-117.063"/>
<polygon fill="black" stroke="black" points="191.541,-114.098 181.353,-111.19 187.504,-119.816 191.541,-114.098"/>
</g>
<!-- Reggae (#1) -->
<g id="node3" class="node"><title>Reggae (#1)</title>
<polygon fill="none" stroke="black" points="217.5,-75 217.5,-111 300.5,-111 300.5,-75 217.5,-75"/>
<text text-anchor="middle" x="259" y="-89.3" font-family="Times,serif" font-size="14.00">Reggae (#1)</text>
</g>
<!-- Music (#0)&#45;&gt;Reggae (#1) -->
<g id="edge2" class="edge"><title>Music (#0)&#45;&gt;Reggae (#1)</title>
<path fill="none" stroke="black" d="M259,-148.937C259,-140.807 259,-130.876 259,-121.705"/>
<polygon fill="black" stroke="black" points="262.5,-121.441 259,-111.441 255.5,-121.441 262.5,-121.441"/>
</g>
<!-- Rock (#2) -->
<g id="node4" class="node"><title>Rock (#2)</title>
<polygon fill="none" stroke="black" points="339.5,-75 339.5,-111 410.5,-111 410.5,-75 339.5,-75"/>
<text text-anchor="middle" x="375" y="-89.3" font-family="Times,serif" font-size="14.00">Rock (#2)</text>
</g>
<!-- Music (#0)&#45;&gt;Rock (#2) -->
<g id="edge3" class="edge"><title>Music (#0)&#45;&gt;Rock (#2)</title>
<path fill="none" stroke="black" d="M286.49,-148.937C302.123,-139.234 321.889,-126.966 338.775,-116.485"/>
<polygon fill="black" stroke="black" points="340.654,-119.437 347.305,-111.19 336.963,-113.49 340.654,-119.437"/>
</g>
<!-- Alternative (#0)  -->
<g id="node5" class="node"><title>Alternative (#0) </title>
<polygon fill="none" stroke="black" points="-0.5,-1 -0.5,-37 106.5,-37 106.5,-1 -0.5,-1"/>
<text text-anchor="middle" x="53" y="-15.3" font-family="Times,serif" font-size="14.00">Alternative (#0) </text>
</g>
<!-- Pop (#0)&#45;&gt;Alternative (#0)  -->
<g id="edge4" class="edge"><title>Pop (#0)&#45;&gt;Alternative (#0) </title>
<path fill="none" stroke="black" d="M132.353,-74.937C118.595,-65.4122 101.266,-53.4149 86.3139,-43.0635"/>
<polygon fill="black" stroke="black" points="88.0442,-40.0045 77.83,-37.19 84.0597,-45.7599 88.0442,-40.0045"/>
</g>
<!-- j (#1) -->
<g id="node6" class="node"><title>j (#1)</title>
<polygon fill="none" stroke="black" points="125,-1 125,-37 179,-37 179,-1 125,-1"/>
<text text-anchor="middle" x="152" y="-15.3" font-family="Times,serif" font-size="14.00">j (#1)</text>
</g>
<!-- Pop (#0)&#45;&gt;j (#1) -->
<g id="edge5" class="edge"><title>Pop (#0)&#45;&gt;j (#1)</title>
<path fill="none" stroke="black" d="M155.815,-74.937C155.25,-66.8072 154.561,-56.8761 153.924,-47.7047"/>
<polygon fill="black" stroke="black" points="157.396,-47.1741 153.211,-37.4407 150.412,-47.6592 157.396,-47.1741"/>
</g>
<!-- Swedish (#2) -->
<g id="node7" class="node"><title>Swedish (#2)</title>
<polygon fill="none" stroke="black" points="197.5,-1 197.5,-37 286.5,-37 286.5,-1 197.5,-1"/>
<text text-anchor="middle" x="242" y="-15.3" font-family="Times,serif" font-size="14.00">Swedish (#2)</text>
</g>
<!-- Pop (#0)&#45;&gt;Swedish (#2) -->
<g id="edge6" class="edge"><title>Pop (#0)&#45;&gt;Swedish (#2)</title>
<path fill="none" stroke="black" d="M177.144,-74.937C188.073,-65.6792 201.76,-54.0857 213.74,-43.9379"/>
<polygon fill="black" stroke="black" points="216.338,-46.3242 221.706,-37.19 211.814,-40.9828 216.338,-46.3242"/>
</g>
<!-- Swedish Alternative (#0) -->
<g id="node8" class="node"><title>Swedish Alternative (#0)</title>
<polygon fill="none" stroke="black" points="304.5,-1 304.5,-37 457.5,-37 457.5,-1 304.5,-1"/>
<text text-anchor="middle" x="381" y="-15.3" font-family="Times,serif" font-size="14.00">Swedish Alternative (#0)</text>
</g>
<!-- Rock (#2)&#45;&gt;Swedish Alternative (#0) -->
<g id="edge7" class="edge"><title>Rock (#2)&#45;&gt;Swedish Alternative (#0)</title>
<path fill="none" stroke="black" d="M376.422,-74.937C377.099,-66.8072 377.927,-56.8761 378.691,-47.7047"/>
<polygon fill="black" stroke="black" points="382.204,-47.6968 379.547,-37.4407 375.228,-47.1154 382.204,-47.6968"/>
</g>
</g>
</svg>
