<?xml version="1.0" encoding="UTF-8" standalone="no"?>
<!DOCTYPE svg PUBLIC "-//W3C//DTD SVG 1.1//EN"
 "http://www.w3.org/Graphics/SVG/1.1/DTD/svg11.dtd">
<!-- Generated by graphviz version 2.36.0 (20140111.2315)
 -->
<!-- Title: %3 Pages: 1 -->
<svg width="288pt" height="86pt"
 viewBox="0.00 0.00 288.00 86.49" xmlns="http://www.w3.org/2000/svg" xmlns:xlink="http://www.w3.org/1999/xlink">
<g id="graph0" class="graph" transform="scale(0.44582 0.44582) rotate(0) translate(4 190)">
<title>%3</title>
<polygon fill="white" stroke="none" points="-4,4 -4,-190 642,-190 642,4 -4,4"/>
<!-- a&#45;&gt;X1 -->
<!-- b&#45;&gt;X2 -->
<!-- c&#45;&gt;X3 -->
<!-- d&#45;&gt;X1 -->
<!-- e&#45;&gt;X2 -->
<!-- f&#45;&gt;X3 -->
<!-- Music (#0)&#45;&gt;a -->
<g id="edge10" class="edge"><title>Music (#0)&#45;&gt;a</title>
<path fill="none" stroke="black" d="M285.315,-149.119C262.003,-138.947 232.117,-125.906 207.267,-115.062"/>
<polygon fill="black" stroke="black" points="208.58,-111.816 198.015,-111.025 205.78,-118.232 208.58,-111.816"/>
</g>
<!-- Music (#0)&#45;&gt;b -->
<g id="edge11" class="edge"><title>Music (#0)&#45;&gt;b</title>
<path fill="none" stroke="black" d="M336.797,-148.937C343.359,-140.189 351.484,-129.354 358.781,-119.626"/>
<polygon fill="black" stroke="black" points="361.719,-121.541 364.919,-111.441 356.119,-117.341 361.719,-121.541"/>
</g>
<!-- Music (#0)&#45;&gt;c -->
<g id="edge12" class="edge"><title>Music (#0)&#45;&gt;c</title>
<path fill="none" stroke="black" d="M362.655,-155.989C413.252,-142.884 501.834,-119.942 555.879,-105.945"/>
<polygon fill="black" stroke="black" points="557.076,-109.251 565.879,-103.355 555.321,-102.474 557.076,-109.251"/>
</g>
<!-- Music (#0)&#45;&gt;d -->
<g id="edge7" class="edge"><title>Music (#0)&#45;&gt;d</title>
<path fill="none" stroke="black" d="M289.299,-148.852C237.708,-121.872 140.833,-71.2094 84.5497,-41.7751"/>
<polygon fill="black" stroke="black" points="86.0255,-38.5972 75.5421,-37.0644 82.7815,-44.8002 86.0255,-38.5972"/>
</g>
<!-- Music (#0)&#45;&gt;e -->
<g id="edge8" class="edge"><title>Music (#0)&#45;&gt;e</title>
<path fill="none" stroke="black" d="M316.888,-148.852C306.887,-123.332 288.582,-76.6234 276.868,-46.7332"/>
<polygon fill="black" stroke="black" points="280.078,-45.3296 273.17,-37.2961 273.56,-47.8838 280.078,-45.3296"/>
</g>
<!-- Music (#0)&#45;&gt;f -->
<g id="edge9" class="edge"><title>Music (#0)&#45;&gt;f</title>
<path fill="none" stroke="black" d="M346.317,-148.852C378.88,-122.373 439.494,-73.0815 475.951,-43.4354"/>
<polygon fill="black" stroke="black" points="478.235,-46.0891 483.786,-37.0644 473.819,-40.6581 478.235,-46.0891"/>
</g>
<!-- a -->
<g id="node1" class="node"><title>a</title>
<polygon fill="#ffffff" stroke="black" points="95,-75 95,-111 223,-111 223,-75 95,-75"/>
<text text-anchor="middle" x="159" y="-89.3" font-family="Times,serif" font-size="14.00">Alternative Pop (#0)</text>
</g>
<!-- b -->
<g id="node2" class="node"><title>b</title>
<polygon fill="#ffffff" stroke="black" points="310,-75 310,-111 446,-111 446,-75 310,-75"/>
<text text-anchor="middle" x="378" y="-89.3" font-family="Times,serif" font-size="14.00">Alternative Rock (#1)</text>
</g>
<!-- c -->
<g id="node3" class="node"><title>c</title>
<polygon fill="#ffffff" stroke="black" points="566,-75 566,-111 638,-111 638,-75 566,-75"/>
<text text-anchor="middle" x="602" y="-89.3" font-family="Times,serif" font-size="14.00">j&#45;Pop (#2)</text>
</g>
<!-- X1 -->
<g id="node4" class="node"><title>X1</title>
</g>
<!-- X2 -->
<g id="node5" class="node"><title>X2</title>
</g>
<!-- X3 -->
<g id="node6" class="node"><title>X3</title>
</g>
<!-- d -->
<g id="node7" class="node"><title>d</title>
<polygon fill="#ffffff" stroke="black" points="-0.5,-1 -0.5,-37 82.5,-37 82.5,-1 -0.5,-1"/>
<text text-anchor="middle" x="41" y="-15.3" font-family="Times,serif" font-size="14.00">Reggae (#3)</text>
</g>
<!-- e -->
<g id="node8" class="node"><title>e</title>
<polygon fill="#ffffff" stroke="black" points="173.5,-1 173.5,-37 358.5,-37 358.5,-1 173.5,-1"/>
<text text-anchor="middle" x="266" y="-15.3" font-family="Times,serif" font-size="14.00">Swedish Alternative Rock (#4)</text>
</g>
<!-- f -->
<g id="node9" class="node"><title>f</title>
<polygon fill="#ffffff" stroke="black" points="449.5,-1 449.5,-37 562.5,-37 562.5,-1 449.5,-1"/>
<text text-anchor="middle" x="506" y="-15.3" font-family="Times,serif" font-size="14.00">Swedish Pop (#5)</text>
</g>
<!-- Music (#0) -->
<g id="node10" class="node"><title>Music (#0)</title>
<polygon fill="#ffffff" stroke="black" points="285.5,-149 285.5,-185 362.5,-185 362.5,-149 285.5,-149"/>
<text text-anchor="middle" x="324" y="-163.3" font-family="Times,serif" font-size="14.00">Music (#0)</text>
</g>
</g>
</svg>
