<?xml version="1.0" encoding="UTF-8" standalone="no"?>
<!DOCTYPE svg PUBLIC "-//W3C//DTD SVG 1.1//EN"
 "http://www.w3.org/Graphics/SVG/1.1/DTD/svg11.dtd">
<!-- Generated by graphviz version 2.36.0 (20140111.2315)
 -->
<!-- Title: %3 Pages: 1 -->
<svg width="1142pt" height="225pt"
 viewBox="0.00 0.00 1142.00 225.00" xmlns="http://www.w3.org/2000/svg" xmlns:xlink="http://www.w3.org/1999/xlink">
<g id="graph0" class="graph" transform="scale(1 1) rotate(0) translate(4 221)">
<title>%3</title>
<polygon fill="white" stroke="none" points="-4,4 -4,-221 1138,-221 1138,4 -4,4"/>
<!-- † -->
<g id="node1" class="node"><title>†</title>
<polygon fill="#ffaa88" stroke="black" points="1134,-36 1080,-36 1080,-0 1134,-0 1134,-36"/>
<text text-anchor="middle" x="1107" y="-14.3" font-family="monoOne" font-size="14.00">†</text>
</g>
<!-- †  -->
<g id="node2" class="node"><title>† </title>
<polygon fill="#ffaa88" stroke="black" points="1134,-201 1080,-201 1080,-165 1134,-165 1134,-201"/>
<text text-anchor="middle" x="1107" y="-179.3" font-family="monoOne" font-size="14.00">† </text>
</g>
<!-- {☒, ☑, ☒} -->
<g id="node3" class="node"><title>{☒, ☑, ☒}</title>
<polygon fill="#88aaff" stroke="black" points="670,-201 568,-201 568,-165 670,-165 670,-201"/>
<text text-anchor="middle" x="619" y="-179.3" font-family="monoOne" font-size="14.00">{☒, ☑, ☒}</text>
</g>
<!-- {☒, ☑, ☒}&#45;&gt;†  -->
<g id="edge5" class="edge"><title>{☒, ☑, ☒}&#45;&gt;† </title>
<path fill="none" stroke="black" d="M670.129,-183C750.166,-183 896,-183 896,-183 896,-183 1008.9,-183 1069.53,-183"/>
<polygon fill="black" stroke="black" points="1069.85,-186.5 1079.85,-183 1069.85,-179.5 1069.85,-186.5"/>
<text text-anchor="middle" x="969" y="-205" font-family="Times,serif" font-size="15.00">mask={☒, Reggae, ☒}</text>
<text text-anchor="middle" x="969" y="-188" font-family="Times,serif" font-size="15.00">path={0}</text>
</g>
<!-- {☒, ☒, ☑} -->
<g id="node4" class="node"><title>{☒, ☒, ☑}</title>
<polygon fill="#88aaff" stroke="black" points="670,-36 568,-36 568,-0 670,-0 670,-36"/>
<text text-anchor="middle" x="619" y="-14.3" font-family="monoOne" font-size="14.00">{☒, ☒, ☑}</text>
</g>
<!-- {☑, ☒, ☑} -->
<g id="node7" class="node"><title>{☑, ☒, ☑}</title>
<polygon fill="#88aaff" stroke="black" points="1020,-36 918,-36 918,-0 1020,-0 1020,-36"/>
<text text-anchor="middle" x="969" y="-14.3" font-family="monoOne" font-size="14.00">{☑, ☒, ☑}</text>
</g>
<!-- {☒, ☒, ☑}&#45;&gt;{☑, ☒, ☑} -->
<g id="edge4" class="edge"><title>{☒, ☒, ☑}&#45;&gt;{☑, ☒, ☑}</title>
<path fill="none" stroke="black" d="M670.231,-18C733.072,-18 840.57,-18 907.766,-18"/>
<polygon fill="black" stroke="black" points="907.785,-21.5001 917.785,-18 907.785,-14.5001 907.785,-21.5001"/>
<text text-anchor="middle" x="783" y="-40" font-family="Times,serif" font-size="15.00"> mask={Alternative, ☒, Rock}</text>
<text text-anchor="middle" x="783" y="-23" font-family="Times,serif" font-size="15.00">path={2, 0}</text>
</g>
<!-- Start ➜ -->
<g id="node5" class="node"><title>Start ➜</title>
<polygon fill="#aaff88" stroke="black" points="80,-118 0,-118 0,-82 80,-82 80,-118"/>
<text text-anchor="middle" x="40" y="-96.3" font-family="monoOne" font-size="14.00">Start ➜</text>
</g>
<!-- {☒, ☒, ☒} -->
<g id="node6" class="node"><title>{☒, ☒, ☒}</title>
<polygon fill="#88aaff" stroke="black" points="338,-118 236,-118 236,-82 338,-82 338,-118"/>
<text text-anchor="middle" x="287" y="-96.3" font-family="monoOne" font-size="14.00">{☒, ☒, ☒}</text>
</g>
<!-- Start ➜&#45;&gt;{☒, ☒, ☒} -->
<g id="edge1" class="edge"><title>Start ➜&#45;&gt;{☒, ☒, ☒}</title>
<path fill="none" stroke="black" d="M80.0919,-100C119.279,-100 180.152,-100 225.562,-100"/>
<polygon fill="black" stroke="black" points="225.584,-103.5 235.584,-100 225.584,-96.5001 225.584,-103.5"/>
<text text-anchor="middle" x="158" y="-122" font-family="Times,serif" font-size="15.00"> mask={☒, ☒, ☒}</text>
<text text-anchor="middle" x="158" y="-105" font-family="Times,serif" font-size="15.00">path={}</text>
</g>
<!-- {☒, ☒, ☒}&#45;&gt;{☒, ☑, ☒} -->
<g id="edge2" class="edge"><title>{☒, ☒, ☒}&#45;&gt;{☒, ☑, ☒}</title>
<path fill="none" stroke="black" d="M338.12,-112.606C397.166,-127.457 495.179,-152.109 558.155,-167.948"/>
<polygon fill="black" stroke="black" points="557.398,-171.367 567.95,-170.412 559.106,-164.578 557.398,-171.367"/>
<text text-anchor="middle" x="453" y="-199" font-family="Times,serif" font-size="15.00">mask={☒, Reggae, ☒}</text>
<text text-anchor="middle" x="453" y="-182" font-family="Times,serif" font-size="15.00">path={1}</text>
</g>
<!-- {☒, ☒, ☒}&#45;&gt;{☒, ☒, ☑} -->
<g id="edge3" class="edge"><title>{☒, ☒, ☒}&#45;&gt;{☒, ☒, ☑}</title>
<path fill="none" stroke="black" d="M338.12,-87.546C397.166,-72.8738 495.179,-48.5192 558.155,-32.8706"/>
<polygon fill="black" stroke="black" points="559.089,-36.2449 567.95,-30.4366 557.401,-29.4515 559.089,-36.2449"/>
<text text-anchor="middle" x="453" y="-41" font-family="Times,serif" font-size="15.00">mask={☒, ☒, Rock}                </text>
<text text-anchor="middle" x="453" y="-24" font-family="Times,serif" font-size="15.00">path={2}                </text>
</g>
<!-- {☑, ☒, ☑}&#45;&gt;† -->
<g id="edge6" class="edge"><title>{☑, ☒, ☑}&#45;&gt;†</title>
<path fill="none" stroke="black" d="M1020.25,-18C1036.73,-18 1054.7,-18 1069.92,-18"/>
<polygon fill="black" stroke="black" points="1069.96,-21.5001 1079.96,-18 1069.96,-14.5001 1069.96,-21.5001"/>
</g>
</g>
</svg>
