<?xml version="1.0" encoding="UTF-8" standalone="no"?>
<!DOCTYPE svg PUBLIC "-//W3C//DTD SVG 1.1//EN"
 "http://www.w3.org/Graphics/SVG/1.1/DTD/svg11.dtd">
<!-- Generated by graphviz version 2.36.0 (20140111.2315)
 -->
<!-- Title: %3 Pages: 1 -->
<svg width="602pt" height="416pt"
 viewBox="0.00 0.00 602.00 416.00" xmlns="http://www.w3.org/2000/svg" xmlns:xlink="http://www.w3.org/1999/xlink">
<g id="graph0" class="graph" transform="scale(1 1) rotate(0) translate(4 412)">
<title>%3</title>
<polygon fill="white" stroke="none" points="-4,4 -4,-412 598,-412 598,4 -4,4"/>
<!-- Nutzer -->
<g id="node1" class="node"><title>Nutzer</title>
<polygon fill="#88aaff" stroke="black" points="386,-371 386,-407 452,-407 452,-371 386,-371"/>
<text text-anchor="middle" x="419" y="-385.3" font-family="monoOne" font-size="14.00">Nutzer</text>
</g>
<!-- Filter -->
<g id="node2" class="node"><title>Filter</title>
<polygon fill="#88ff88" stroke="black" points="386,-297 386,-333 452,-333 452,-297 386,-297"/>
<text text-anchor="middle" x="419" y="-311.3" font-family="monoOne" font-size="14.00">Filter</text>
</g>
<!-- Nutzer&#45;&gt;Filter -->
<g id="edge1" class="edge"><title>Nutzer&#45;&gt;Filter</title>
<path fill="none" stroke="black" d="M419,-370.937C419,-362.807 419,-352.876 419,-343.705"/>
<polygon fill="black" stroke="black" points="422.5,-343.441 419,-333.441 415.5,-343.441 422.5,-343.441"/>
</g>
<!-- Empfehlungsiterator -->
<g id="node3" class="node"><title>Empfehlungsiterator</title>
<polygon fill="#aaff88" stroke="black" points="332.5,-223 332.5,-259 505.5,-259 505.5,-223 332.5,-223"/>
<text text-anchor="middle" x="419" y="-237.3" font-family="monoOne" font-size="14.00">Empfehlungsiterator</text>
</g>
<!-- Filter&#45;&gt;Empfehlungsiterator -->
<g id="edge2" class="edge"><title>Filter&#45;&gt;Empfehlungsiterator</title>
<path fill="none" stroke="black" d="M419,-296.937C419,-288.807 419,-278.876 419,-269.705"/>
<polygon fill="black" stroke="black" points="422.5,-269.441 419,-259.441 415.5,-269.441 422.5,-269.441"/>
</g>
<!-- Seedsong 1 -->
<g id="node4" class="node"><title>Seedsong 1</title>
<polygon fill="#ffff88" stroke="black" points="219.5,-149 219.5,-185 318.5,-185 318.5,-149 219.5,-149"/>
<text text-anchor="middle" x="269" y="-163.3" font-family="monoOne" font-size="14.00">Seedsong 1</text>
</g>
<!-- Empfehlungsiterator&#45;&gt;Seedsong 1 -->
<g id="edge3" class="edge"><title>Empfehlungsiterator&#45;&gt;Seedsong 1</title>
<path fill="none" stroke="black" d="M383.452,-222.937C362.606,-212.931 336.074,-200.196 313.806,-189.507"/>
<polygon fill="black" stroke="black" points="315.082,-186.237 304.552,-185.065 312.053,-192.548 315.082,-186.237"/>
</g>
<!-- Seedsong N&#45;1 -->
<g id="node5" class="node"><title>Seedsong N&#45;1</title>
<polygon fill="#ffff88" stroke="black" points="361,-149 361,-185 477,-185 477,-149 361,-149"/>
<text text-anchor="middle" x="419" y="-163.3" font-family="monoOne" font-size="14.00">Seedsong N&#45;1</text>
</g>
<!-- Empfehlungsiterator&#45;&gt;Seedsong N&#45;1 -->
<g id="edge4" class="edge"><title>Empfehlungsiterator&#45;&gt;Seedsong N&#45;1</title>
<path fill="none" stroke="black" d="M419,-222.937C419,-214.807 419,-204.876 419,-195.705"/>
<polygon fill="black" stroke="black" points="422.5,-195.441 419,-185.441 415.5,-195.441 422.5,-195.441"/>
</g>
<!-- Seedsong N -->
<g id="node6" class="node"><title>Seedsong N</title>
<polygon fill="#ffff88" stroke="black" points="495.5,-149 495.5,-185 594.5,-185 594.5,-149 495.5,-149"/>
<text text-anchor="middle" x="545" y="-163.3" font-family="monoOne" font-size="14.00">Seedsong N</text>
</g>
<!-- Empfehlungsiterator&#45;&gt;Seedsong N -->
<g id="edge5" class="edge"><title>Empfehlungsiterator&#45;&gt;Seedsong N</title>
<path fill="none" stroke="black" d="M448.86,-222.937C465.996,-213.145 487.705,-200.74 506.156,-190.197"/>
<polygon fill="black" stroke="black" points="507.972,-193.19 514.917,-185.19 504.498,-187.113 507.972,-193.19"/>
</g>
<!-- Breitensuche 1 (50%) -->
<g id="node7" class="node"><title>Breitensuche 1 (50%)</title>
<polygon fill="#ff8888" stroke="black" points="0,-75 0,-111 182,-111 182,-75 0,-75"/>
<text text-anchor="middle" x="91" y="-89.3" font-family="monoOne" font-size="14.00">Breitensuche 1 (50%)</text>
</g>
<!-- Seedsong 1&#45;&gt;Breitensuche 1 (50%) -->
<g id="edge6" class="edge"><title>Seedsong 1&#45;&gt;Breitensuche 1 (50%)</title>
<path fill="none" stroke="black" d="M226.816,-148.937C201.637,-138.752 169.468,-125.74 142.759,-114.936"/>
<polygon fill="black" stroke="black" points="143.772,-111.57 133.189,-111.065 141.147,-118.06 143.772,-111.57"/>
</g>
<!-- Regel 1.1 -->
<g id="node8" class="node"><title>Regel 1.1</title>
<polygon fill="#ffaa88" stroke="black" points="200.5,-75 200.5,-111 291.5,-111 291.5,-75 200.5,-75"/>
<text text-anchor="middle" x="246" y="-89.3" font-family="monoOne" font-size="14.00">Regel 1.1</text>
</g>
<!-- Seedsong 1&#45;&gt;Regel 1.1 -->
<g id="edge7" class="edge"><title>Seedsong 1&#45;&gt;Regel 1.1</title>
<path fill="none" stroke="black" d="M263.549,-148.937C260.896,-140.63 257.642,-130.444 254.659,-121.108"/>
<polygon fill="black" stroke="black" points="257.948,-119.901 251.571,-111.441 251.28,-122.032 257.948,-119.901"/>
</g>
<!-- Regel 1.2 -->
<g id="node9" class="node"><title>Regel 1.2</title>
<polygon fill="#ffaa88" stroke="black" points="309.5,-75 309.5,-111 400.5,-111 400.5,-75 309.5,-75"/>
<text text-anchor="middle" x="355" y="-89.3" font-family="monoOne" font-size="14.00">Regel 1.2</text>
</g>
<!-- Seedsong 1&#45;&gt;Regel 1.2 -->
<g id="edge8" class="edge"><title>Seedsong 1&#45;&gt;Regel 1.2</title>
<path fill="none" stroke="black" d="M289.381,-148.937C300.545,-139.59 314.553,-127.863 326.757,-117.646"/>
<polygon fill="black" stroke="black" points="329.047,-120.293 334.467,-111.19 324.553,-114.926 329.047,-120.293"/>
</g>
<!-- ... -->
<g id="node10" class="node"><title>...</title>
<polygon fill="#ffaa88" stroke="black" points="419,-75 419,-111 473,-111 473,-75 419,-75"/>
<text text-anchor="middle" x="446" y="-89.3" font-family="monoOne" font-size="14.00">...</text>
</g>
<!-- Seedsong N&#45;1&#45;&gt;... -->
<g id="edge11" class="edge"><title>Seedsong N&#45;1&#45;&gt;...</title>
<path fill="none" stroke="black" d="M425.399,-148.937C428.547,-140.542 432.415,-130.227 435.946,-120.81"/>
<polygon fill="black" stroke="black" points="439.226,-122.033 439.46,-111.441 432.671,-119.575 439.226,-122.033"/>
</g>
<!-- .... -->
<g id="node11" class="node"><title>....</title>
<polygon fill="#ffaa88" stroke="black" points="518,-75 518,-111 572,-111 572,-75 518,-75"/>
<text text-anchor="middle" x="545" y="-89.3" font-family="monoOne" font-size="14.00">....</text>
</g>
<!-- Seedsong N&#45;&gt;.... -->
<g id="edge12" class="edge"><title>Seedsong N&#45;&gt;....</title>
<path fill="none" stroke="black" d="M545,-148.937C545,-140.807 545,-130.876 545,-121.705"/>
<polygon fill="black" stroke="black" points="548.5,-121.441 545,-111.441 541.5,-121.441 548.5,-121.441"/>
</g>
<!-- Breitensuche 1.1 (25%) -->
<g id="node12" class="node"><title>Breitensuche 1.1 (25%)</title>
<polygon fill="#ff8888" stroke="black" points="94,-1 94,-37 292,-37 292,-1 94,-1"/>
<text text-anchor="middle" x="193" y="-15.3" font-family="monoOne" font-size="14.00">Breitensuche 1.1 (25%)</text>
</g>
<!-- Regel 1.1&#45;&gt;Breitensuche 1.1 (25%) -->
<g id="edge9" class="edge"><title>Regel 1.1&#45;&gt;Breitensuche 1.1 (25%)</title>
<path fill="none" stroke="black" d="M233.44,-74.937C227,-66.1886 219.025,-55.3545 211.863,-45.6256"/>
<polygon fill="black" stroke="black" points="214.585,-43.4192 205.838,-37.4407 208.948,-47.5689 214.585,-43.4192"/>
</g>
<!-- Breitensuche 1.2 (25%) -->
<g id="node13" class="node"><title>Breitensuche 1.2 (25%)</title>
<polygon fill="#ff8888" stroke="black" points="310,-1 310,-37 508,-37 508,-1 310,-1"/>
<text text-anchor="middle" x="409" y="-15.3" font-family="monoOne" font-size="14.00">Breitensuche 1.2 (25%)</text>
</g>
<!-- Regel 1.2&#45;&gt;Breitensuche 1.2 (25%) -->
<g id="edge10" class="edge"><title>Regel 1.2&#45;&gt;Breitensuche 1.2 (25%)</title>
<path fill="none" stroke="black" d="M367.797,-74.937C374.359,-66.1886 382.484,-55.3545 389.781,-45.6256"/>
<polygon fill="black" stroke="black" points="392.719,-47.5407 395.919,-37.4407 387.119,-43.3407 392.719,-47.5407"/>
</g>
</g>
</svg>
