<?xml version="1.0" encoding="UTF-8" standalone="no"?>
<!DOCTYPE svg PUBLIC "-//W3C//DTD SVG 1.1//EN"
 "http://www.w3.org/Graphics/SVG/1.1/DTD/svg11.dtd">
<!-- Generated by graphviz version 2.36.0 (20140111.2315)
 -->
<!-- Title: %3 Pages: 1 -->
<svg width="288pt" height="91pt"
 viewBox="0.00 0.00 288.00 90.70" xmlns="http://www.w3.org/2000/svg" xmlns:xlink="http://www.w3.org/1999/xlink">
<g id="graph0" class="graph" transform="scale(0.467532 0.467532) rotate(0) translate(4 190)">
<title>%3</title>
<polygon fill="white" stroke="none" points="-4,4 -4,-190 612,-190 612,4 -4,4"/>
<!-- Music (#0) -->
<g id="node1" class="node"><title>Music (#0)</title>
<polygon fill="#ff8888" stroke="black" points="295.5,-149 295.5,-185 394.5,-185 394.5,-149 295.5,-149"/>
<text text-anchor="middle" x="345" y="-163.3" font-family="monoOne" font-size="14.00">Music (#0)</text>
</g>
<!-- Pop (#0) -->
<g id="node2" class="node"><title>Pop (#0)</title>
<polygon fill="#ffaa88" stroke="black" points="174.5,-75 174.5,-111 257.5,-111 257.5,-75 174.5,-75"/>
<text text-anchor="middle" x="216" y="-89.3" font-family="monoOne" font-size="14.00">Pop (#0)</text>
</g>
<!-- Music (#0)&#45;&gt;Pop (#0) -->
<g id="edge1" class="edge"><title>Music (#0)&#45;&gt;Pop (#0)</title>
<path fill="none" stroke="black" d="M314.429,-148.937C296.885,-139.145 274.659,-126.74 255.769,-116.197"/>
<polygon fill="black" stroke="black" points="257.237,-113.008 246.799,-111.19 253.825,-119.12 257.237,-113.008"/>
</g>
<!-- Reggae (#1) -->
<g id="node3" class="node"><title>Reggae (#1)</title>
<polygon fill="#ffaa88" stroke="black" points="291.5,-75 291.5,-111 398.5,-111 398.5,-75 291.5,-75"/>
<text text-anchor="middle" x="345" y="-89.3" font-family="monoOne" font-size="14.00">Reggae (#1)</text>
</g>
<!-- Music (#0)&#45;&gt;Reggae (#1) -->
<g id="edge2" class="edge"><title>Music (#0)&#45;&gt;Reggae (#1)</title>
<path fill="none" stroke="black" d="M345,-148.937C345,-140.807 345,-130.876 345,-121.705"/>
<polygon fill="black" stroke="black" points="348.5,-121.441 345,-111.441 341.5,-121.441 348.5,-121.441"/>
</g>
<!-- Rock (#2) -->
<g id="node4" class="node"><title>Rock (#2)</title>
<polygon fill="#ffaa88" stroke="black" points="447.5,-75 447.5,-111 538.5,-111 538.5,-75 447.5,-75"/>
<text text-anchor="middle" x="493" y="-89.3" font-family="monoOne" font-size="14.00">Rock (#2)</text>
</g>
<!-- Music (#0)&#45;&gt;Rock (#2) -->
<g id="edge3" class="edge"><title>Music (#0)&#45;&gt;Rock (#2)</title>
<path fill="none" stroke="black" d="M380.074,-148.937C400.642,-138.931 426.82,-126.196 448.791,-115.507"/>
<polygon fill="black" stroke="black" points="450.46,-118.587 457.922,-111.065 447.398,-112.293 450.46,-118.587"/>
</g>
<!-- Alternative (#0)  -->
<g id="node5" class="node"><title>Alternative (#0) </title>
<polygon fill="#ffff88" stroke="black" points="-0.5,-1 -0.5,-37 156.5,-37 156.5,-1 -0.5,-1"/>
<text text-anchor="middle" x="78" y="-15.3" font-family="monoOne" font-size="14.00">Alternative (#0) </text>
</g>
<!-- Pop (#0)&#45;&gt;Alternative (#0)  -->
<g id="edge4" class="edge"><title>Pop (#0)&#45;&gt;Alternative (#0) </title>
<path fill="none" stroke="black" d="M183.296,-74.937C164.357,-65.0561 140.319,-52.5144 119.994,-41.9097"/>
<polygon fill="black" stroke="black" points="121.432,-38.7127 110.948,-37.19 118.194,-44.9188 121.432,-38.7127"/>
</g>
<!-- j (#1) -->
<g id="node6" class="node"><title>j (#1)</title>
<polygon fill="#ffff88" stroke="black" points="175,-1 175,-37 241,-37 241,-1 175,-1"/>
<text text-anchor="middle" x="208" y="-15.3" font-family="monoOne" font-size="14.00">j (#1)</text>
</g>
<!-- Pop (#0)&#45;&gt;j (#1) -->
<g id="edge5" class="edge"><title>Pop (#0)&#45;&gt;j (#1)</title>
<path fill="none" stroke="black" d="M214.104,-74.937C213.191,-66.7188 212.073,-56.66 211.045,-47.4059"/>
<polygon fill="black" stroke="black" points="214.521,-46.993 209.938,-37.4407 207.564,-47.7661 214.521,-46.993"/>
</g>
<!-- Swedish (#2) -->
<g id="node7" class="node"><title>Swedish (#2)</title>
<polygon fill="#ffff88" stroke="black" points="259,-1 259,-37 375,-37 375,-1 259,-1"/>
<text text-anchor="middle" x="317" y="-15.3" font-family="monoOne" font-size="14.00">Swedish (#2)</text>
</g>
<!-- Pop (#0)&#45;&gt;Swedish (#2) -->
<g id="edge6" class="edge"><title>Pop (#0)&#45;&gt;Swedish (#2)</title>
<path fill="none" stroke="black" d="M239.936,-74.937C253.297,-65.4122 270.126,-53.4149 284.647,-43.0635"/>
<polygon fill="black" stroke="black" points="286.775,-45.8448 292.886,-37.19 282.712,-40.1448 286.775,-45.8448"/>
</g>
<!-- Swedish Alternative (#0) -->
<g id="node8" class="node"><title>Swedish Alternative (#0)</title>
<polygon fill="#ffff88" stroke="black" points="393.5,-1 393.5,-37 608.5,-37 608.5,-1 393.5,-1"/>
<text text-anchor="middle" x="501" y="-15.3" font-family="monoOne" font-size="14.00">Swedish Alternative (#0)</text>
</g>
<!-- Rock (#2)&#45;&gt;Swedish Alternative (#0) -->
<g id="edge7" class="edge"><title>Rock (#2)&#45;&gt;Swedish Alternative (#0)</title>
<path fill="none" stroke="black" d="M494.896,-74.937C495.809,-66.7188 496.927,-56.66 497.955,-47.4059"/>
<polygon fill="black" stroke="black" points="501.436,-47.7661 499.062,-37.4407 494.479,-46.993 501.436,-47.7661"/>
</g>
</g>
</svg>
