<?xml version="1.0" encoding="UTF-8" standalone="no"?>
<!DOCTYPE svg PUBLIC "-//W3C//DTD SVG 1.1//EN"
 "http://www.w3.org/Graphics/SVG/1.1/DTD/svg11.dtd">
<!-- Generated by graphviz version 2.36.0 (20140111.2315)
 -->
<!-- Title: %3 Pages: 1 -->
<svg width="748pt" height="98pt"
 viewBox="0.00 0.00 748.00 98.00" xmlns="http://www.w3.org/2000/svg" xmlns:xlink="http://www.w3.org/1999/xlink">
<g id="graph0" class="graph" transform="scale(1 1) rotate(0) translate(4 94)">
<title>%3</title>
<polygon fill="white" stroke="none" points="-4,4 -4,-94 744,-94 744,4 -4,4"/>
<!--  † -->
<g id="node1" class="node"><title> †</title>
<polygon fill="#ffbbbb" stroke="black" points="740,-36 686,-36 686,-0 740,-0 740,-36"/>
<text text-anchor="middle" x="713" y="-14.3" font-family="Times,serif" font-size="14.00"> †</text>
</g>
<!-- †  -->
<g id="node2" class="node"><title>† </title>
<polygon fill="#ffbbbb" stroke="black" points="740,-90 686,-90 686,-54 740,-54 740,-90"/>
<text text-anchor="middle" x="713" y="-68.3" font-family="Times,serif" font-size="14.00">† </text>
</g>
<!-- {☑, ☒} -->
<g id="node3" class="node"><title>{☑, ☒}</title>
<polygon fill="lightgrey" stroke="black" points="412,-90 346,-90 346,-54 412,-54 412,-90"/>
<text text-anchor="middle" x="379" y="-68.3" font-family="Times,serif" font-size="14.00">{☑, ☒}</text>
</g>
<!-- {☑, ☒}&#45;&gt;†  -->
<g id="edge5" class="edge"><title>{☑, ☒}&#45;&gt;† </title>
<path fill="none" stroke="black" d="M412.01,-72C462.848,-72 554.5,-72 554.5,-72 554.5,-72 628.776,-72 675.635,-72"/>
<polygon fill="black" stroke="black" points="675.753,-75.5001 685.753,-72 675.753,-68.5001 675.753,-75.5001"/>
<text text-anchor="middle" x="601" y="-75.8" font-family="Times,serif" font-size="14.00">{alternative, ☒}</text>
</g>
<!-- {☒, ☑} -->
<g id="node4" class="node"><title>{☒, ☑}</title>
<polygon fill="lightgrey" stroke="black" points="412,-36 346,-36 346,-0 412,-0 412,-36"/>
<text text-anchor="middle" x="379" y="-14.3" font-family="Times,serif" font-size="14.00">{☒, ☑}</text>
</g>
<!-- {☑, ☑} -->
<g id="node7" class="node"><title>{☑, ☑}</title>
<polygon fill="lightgrey" stroke="black" points="634,-36 568,-36 568,-0 634,-0 634,-36"/>
<text text-anchor="middle" x="601" y="-14.3" font-family="Times,serif" font-size="14.00">{☑, ☑}</text>
</g>
<!-- {☒, ☑}&#45;&gt;{☑, ☑} -->
<g id="edge4" class="edge"><title>{☒, ☑}&#45;&gt;{☑, ☑}</title>
<path fill="none" stroke="black" d="M412.462,-18C450.998,-18 515.368,-18 557.754,-18"/>
<polygon fill="black" stroke="black" points="557.763,-21.5001 567.763,-18 557.763,-14.5001 557.763,-21.5001"/>
<text text-anchor="middle" x="483" y="-21.8" font-family="Times,serif" font-size="14.00"> {rock, alternative}</text>
</g>
<!-- Start ➜ -->
<g id="node5" class="node"><title>Start ➜</title>
<polygon fill="#bbffbb" stroke="black" points="60,-59 3.55271e-15,-59 3.55271e-15,-23 60,-23 60,-59"/>
<text text-anchor="middle" x="30" y="-37.3" font-family="Times,serif" font-size="14.00">Start ➜</text>
</g>
<!-- {☒, ☒} -->
<g id="node6" class="node"><title>{☒, ☒}</title>
<polygon fill="lightgrey" stroke="black" points="216,-59 150,-59 150,-23 216,-23 216,-59"/>
<text text-anchor="middle" x="183" y="-37.3" font-family="Times,serif" font-size="14.00">{☒, ☒}</text>
</g>
<!-- Start ➜&#45;&gt;{☒, ☒} -->
<g id="edge1" class="edge"><title>Start ➜&#45;&gt;{☒, ☒}</title>
<path fill="none" stroke="black" d="M60.1143,-41C82.7112,-41 114.359,-41 139.743,-41"/>
<polygon fill="black" stroke="black" points="139.838,-44.5001 149.838,-41 139.838,-37.5001 139.838,-44.5001"/>
<text text-anchor="middle" x="105" y="-44.8" font-family="Times,serif" font-size="14.00"> {☒, ☒}</text>
</g>
<!-- {☒, ☒}&#45;&gt;{☑, ☒} -->
<g id="edge2" class="edge"><title>{☒, ☒}&#45;&gt;{☑, ☒}</title>
<path fill="none" stroke="black" d="M216.035,-46.119C248.751,-51.3468 299.714,-59.4903 335.723,-65.2443"/>
<polygon fill="black" stroke="black" points="335.49,-68.7515 345.917,-66.8734 336.595,-61.8392 335.49,-68.7515"/>
<text text-anchor="middle" x="281" y="-66.8" font-family="Times,serif" font-size="14.00">{alternative, ☒}</text>
</g>
<!-- {☒, ☒}&#45;&gt;{☒, ☑} -->
<g id="edge3" class="edge"><title>{☒, ☒}&#45;&gt;{☒, ☑}</title>
<path fill="none" stroke="black" d="M216.035,-37.202C248.751,-33.3234 299.714,-27.2814 335.723,-23.0123"/>
<polygon fill="black" stroke="black" points="336.399,-26.4567 345.917,-21.8036 335.575,-19.5054 336.399,-26.4567"/>
<text text-anchor="middle" x="281" y="-34.8" font-family="Times,serif" font-size="14.00"> {☒, rock}</text>
</g>
<!-- {☑, ☑}&#45;&gt; † -->
<g id="edge6" class="edge"><title>{☑, ☑}&#45;&gt; †</title>
<path fill="none" stroke="black" d="M634.112,-18C647.122,-18 662.211,-18 675.625,-18"/>
<polygon fill="black" stroke="black" points="675.951,-21.5001 685.951,-18 675.951,-14.5001 675.951,-21.5001"/>
</g>
</g>
</svg>
