<?xml version="1.0" encoding="UTF-8" standalone="no"?>
<!DOCTYPE svg PUBLIC "-//W3C//DTD SVG 1.1//EN"
 "http://www.w3.org/Graphics/SVG/1.1/DTD/svg11.dtd">
<!-- Generated by graphviz version 2.36.0 (20140111.2315)
 -->
<!-- Title: %3 Pages: 1 -->
<svg width="1100pt" height="205pt"
 viewBox="0.00 0.00 1100.00 205.00" xmlns="http://www.w3.org/2000/svg" xmlns:xlink="http://www.w3.org/1999/xlink">
<g id="graph0" class="graph" transform="scale(1 1) rotate(0) translate(4 201)">
<title>%3</title>
<polygon fill="white" stroke="none" points="-4,4 -4,-201 1096,-201 1096,4 -4,4"/>
<!-- † -->
<g id="node1" class="node"><title>†</title>
<polygon fill="#ffaa88" stroke="black" points="1092,-36 1038,-36 1038,-0 1092,-0 1092,-36"/>
<text text-anchor="middle" x="1065" y="-14.3" font-family="monoOne" font-size="14.00">†</text>
</g>
<!-- †  -->
<g id="node2" class="node"><title>† </title>
<polygon fill="#ffaa88" stroke="black" points="1092,-185 1038,-185 1038,-149 1092,-149 1092,-185"/>
<text text-anchor="middle" x="1065" y="-163.3" font-family="monoOne" font-size="14.00">† </text>
</g>
<!-- {☒, ☑, ☒} -->
<g id="node3" class="node"><title>{☒, ☑, ☒}</title>
<polygon fill="#88aaff" stroke="black" points="654,-185 552,-185 552,-149 654,-149 654,-185"/>
<text text-anchor="middle" x="603" y="-163.3" font-family="monoOne" font-size="14.00">{☒, ☑, ☒}</text>
</g>
<!-- {☒, ☑, ☒}&#45;&gt;†  -->
<g id="edge5" class="edge"><title>{☒, ☑, ☒}&#45;&gt;† </title>
<path fill="none" stroke="black" d="M654.254,-167C730.264,-167 864,-167 864,-167 864,-167 969.488,-167 1027.62,-167"/>
<polygon fill="black" stroke="black" points="1027.89,-170.5 1037.89,-167 1027.89,-163.5 1027.89,-170.5"/>
<text text-anchor="middle" x="932" y="-185.8" font-family="Times,serif" font-size="14.00">mask={☒, Reggae, ☒}</text>
<text text-anchor="middle" x="932" y="-170.8" font-family="Times,serif" font-size="14.00">path={0}</text>
</g>
<!-- {☒, ☒, ☑} -->
<g id="node4" class="node"><title>{☒, ☒, ☑}</title>
<polygon fill="#88aaff" stroke="black" points="654,-36 552,-36 552,-0 654,-0 654,-36"/>
<text text-anchor="middle" x="603" y="-14.3" font-family="monoOne" font-size="14.00">{☒, ☒, ☑}</text>
</g>
<!-- {☑, ☒, ☑} -->
<g id="node7" class="node"><title>{☑, ☒, ☑}</title>
<polygon fill="#88aaff" stroke="black" points="983,-36 881,-36 881,-0 983,-0 983,-36"/>
<text text-anchor="middle" x="932" y="-14.3" font-family="monoOne" font-size="14.00">{☑, ☒, ☑}</text>
</g>
<!-- {☒, ☒, ☑}&#45;&gt;{☑, ☒, ☑} -->
<g id="edge4" class="edge"><title>{☒, ☒, ☑}&#45;&gt;{☑, ☒, ☑}</title>
<path fill="none" stroke="black" d="M654.02,-18C712.32,-18 808.604,-18 870.908,-18"/>
<polygon fill="black" stroke="black" points="870.985,-21.5001 880.985,-18 870.985,-14.5001 870.985,-21.5001"/>
<text text-anchor="middle" x="759" y="-36.8" font-family="Times,serif" font-size="14.00"> mask={Alternative, ☒, Rock}</text>
<text text-anchor="middle" x="759" y="-21.8" font-family="Times,serif" font-size="14.00">path={2, 0}</text>
</g>
<!-- Start ➜ -->
<g id="node5" class="node"><title>Start ➜</title>
<polygon fill="#aaff88" stroke="black" points="80,-110 0,-110 0,-74 80,-74 80,-110"/>
<text text-anchor="middle" x="40" y="-88.3" font-family="monoOne" font-size="14.00">Start ➜</text>
</g>
<!-- {☒, ☒, ☒} -->
<g id="node6" class="node"><title>{☒, ☒, ☒}</title>
<polygon fill="#88aaff" stroke="black" points="332,-110 230,-110 230,-74 332,-74 332,-110"/>
<text text-anchor="middle" x="281" y="-88.3" font-family="monoOne" font-size="14.00">{☒, ☒, ☒}</text>
</g>
<!-- Start ➜&#45;&gt;{☒, ☒, ☒} -->
<g id="edge1" class="edge"><title>Start ➜&#45;&gt;{☒, ☒, ☒}</title>
<path fill="none" stroke="black" d="M80.1984,-92C118.082,-92 176.005,-92 219.748,-92"/>
<polygon fill="black" stroke="black" points="219.978,-95.5001 229.978,-92 219.978,-88.5001 219.978,-95.5001"/>
<text text-anchor="middle" x="155" y="-110.8" font-family="Times,serif" font-size="14.00"> mask={☒, ☒, ☒}</text>
<text text-anchor="middle" x="155" y="-95.8" font-family="Times,serif" font-size="14.00">path={}</text>
</g>
<!-- {☒, ☒, ☒}&#45;&gt;{☒, ☑, ☒} -->
<g id="edge2" class="edge"><title>{☒, ☒, ☒}&#45;&gt;{☒, ☑, ☒}</title>
<path fill="none" stroke="black" d="M332,-103.719C388.78,-117.027 481.383,-138.73 542.008,-152.939"/>
<polygon fill="black" stroke="black" points="541.289,-156.366 551.824,-155.24 542.887,-149.55 541.289,-156.366"/>
<text text-anchor="middle" x="442" y="-178.8" font-family="Times,serif" font-size="14.00">mask={☒, Reggae, ☒}</text>
<text text-anchor="middle" x="442" y="-163.8" font-family="Times,serif" font-size="14.00">path={1}</text>
</g>
<!-- {☒, ☒, ☒}&#45;&gt;{☒, ☒, ☑} -->
<g id="edge3" class="edge"><title>{☒, ☒, ☒}&#45;&gt;{☒, ☒, ☑}</title>
<path fill="none" stroke="black" d="M332,-80.4375C388.78,-67.307 481.383,-45.8926 542.008,-31.8731"/>
<polygon fill="black" stroke="black" points="542.87,-35.2663 551.824,-29.6032 541.293,-28.4463 542.87,-35.2663"/>
<text text-anchor="middle" x="442" y="-37.8" font-family="Times,serif" font-size="14.00">mask={☒, ☒, Rock}                </text>
<text text-anchor="middle" x="442" y="-22.8" font-family="Times,serif" font-size="14.00">path={2}                </text>
</g>
<!-- {☑, ☒, ☑}&#45;&gt;† -->
<g id="edge6" class="edge"><title>{☑, ☒, ☑}&#45;&gt;†</title>
<path fill="none" stroke="black" d="M983.273,-18C998.108,-18 1014.05,-18 1027.81,-18"/>
<polygon fill="black" stroke="black" points="1027.85,-21.5001 1037.85,-18 1027.85,-14.5001 1027.85,-21.5001"/>
</g>
</g>
</svg>
