<?xml version="1.0" encoding="UTF-8" standalone="no"?>
<!DOCTYPE svg PUBLIC "-//W3C//DTD SVG 1.1//EN"
 "http://www.w3.org/Graphics/SVG/1.1/DTD/svg11.dtd">
<!-- Generated by graphviz version 2.36.0 (20140111.2315)
 -->
<!-- Title: %3 Pages: 1 -->
<svg width="288pt" height="113pt"
 viewBox="0.00 0.00 288.00 112.94" xmlns="http://www.w3.org/2000/svg" xmlns:xlink="http://www.w3.org/1999/xlink">
<g id="graph0" class="graph" transform="scale(0.941176 0.941176) rotate(0) translate(4 116)">
<title>%3</title>
<polygon fill="white" stroke="none" points="-4,4 -4,-116 302,-116 302,4 -4,4"/>
<!-- core -->
<g id="node1" class="node"><title>core</title>
<polygon fill="none" stroke="black" points="20,-75 20,-111 278,-111 278,-75 20,-75"/>
<text text-anchor="middle" x="48.5" y="-89.3" font-family="Times,serif" font-size="14.00">Reggae</text>
<polyline fill="none" stroke="black" points="77,-75 77,-111 "/>
<text text-anchor="middle" x="154.5" y="-89.3" font-family="Times,serif" font-size="14.00">Swedish alternative Rock</text>
<polyline fill="none" stroke="black" points="232,-75 232,-111 "/>
<text text-anchor="middle" x="255" y="-89.3" font-family="Times,serif" font-size="14.00">j&#45;Pop</text>
</g>
<!-- other -->
<g id="node2" class="node"><title>other</title>
<polygon fill="none" stroke="black" points="-0.5,-1 -0.5,-37 298.5,-37 298.5,-1 -0.5,-1"/>
<text text-anchor="middle" x="50.5" y="-15.3" font-family="Times,serif" font-size="14.00">Alternative Pop</text>
<polyline fill="none" stroke="black" points="101.5,-1 101.5,-37 "/>
<text text-anchor="middle" x="156.5" y="-15.3" font-family="Times,serif" font-size="14.00">Alternative Rock</text>
<polyline fill="none" stroke="black" points="211.5,-1 211.5,-37 "/>
<text text-anchor="middle" x="255" y="-15.3" font-family="Times,serif" font-size="14.00">Swedish Pop</text>
</g>
<!-- core&#45;&gt;other -->
</g>
</svg>
