<?xml version="1.0" encoding="UTF-8" standalone="no"?>
<!DOCTYPE svg PUBLIC "-//W3C//DTD SVG 1.1//EN"
 "http://www.w3.org/Graphics/SVG/1.1/DTD/svg11.dtd">
<!-- Generated by graphviz version 2.36.0 (20140111.2315)
 -->
<!-- Title: %3 Pages: 1 -->
<svg width="288pt" height="141pt"
 viewBox="0.00 0.00 288.00 140.59" xmlns="http://www.w3.org/2000/svg" xmlns:xlink="http://www.w3.org/1999/xlink">
<g id="graph0" class="graph" transform="scale(0.52459 0.52459) rotate(0) translate(4 264)">
<title>%3</title>
<polygon fill="white" stroke="none" points="-4,4 -4,-264 545,-264 545,4 -4,4"/>
<!-- Music (#0) -->
<g id="node1" class="node"><title>Music (#0)</title>
<polygon fill="#ff8888" stroke="black" points="289.5,-223 289.5,-259 388.5,-259 388.5,-223 289.5,-223"/>
<text text-anchor="middle" x="339" y="-237.3" font-family="monoOne" font-size="14.00">Music (#0)</text>
</g>
<!-- Pop (#0) -->
<g id="node2" class="node"><title>Pop (#0)</title>
<polygon fill="#ffaa88" stroke="black" points="170.5,-149 170.5,-185 253.5,-185 253.5,-149 170.5,-149"/>
<text text-anchor="middle" x="212" y="-163.3" font-family="monoOne" font-size="14.00">Pop (#0)</text>
</g>
<!-- Music (#0)&#45;&gt;Pop (#0) -->
<g id="edge1" class="edge"><title>Music (#0)&#45;&gt;Pop (#0)</title>
<path fill="none" stroke="black" d="M308.903,-222.937C291.631,-213.145 269.75,-200.74 251.153,-190.197"/>
<polygon fill="black" stroke="black" points="252.747,-187.077 242.321,-185.19 249.294,-193.167 252.747,-187.077"/>
</g>
<!-- Reggae (#1) -->
<g id="node3" class="node"><title>Reggae (#1)</title>
<polygon fill="#ffaa88" stroke="black" points="285.5,-149 285.5,-185 392.5,-185 392.5,-149 285.5,-149"/>
<text text-anchor="middle" x="339" y="-163.3" font-family="monoOne" font-size="14.00">Reggae (#1)</text>
</g>
<!-- Music (#0)&#45;&gt;Reggae (#1) -->
<g id="edge2" class="edge"><title>Music (#0)&#45;&gt;Reggae (#1)</title>
<path fill="none" stroke="black" d="M339,-222.937C339,-214.807 339,-204.876 339,-195.705"/>
<polygon fill="black" stroke="black" points="342.5,-195.441 339,-185.441 335.5,-195.441 342.5,-195.441"/>
</g>
<!-- Rock (#2) -->
<g id="node4" class="node"><title>Rock (#2)</title>
<polygon fill="#ffaa88" stroke="black" points="417.5,-149 417.5,-185 508.5,-185 508.5,-149 417.5,-149"/>
<text text-anchor="middle" x="463" y="-163.3" font-family="monoOne" font-size="14.00">Rock (#2)</text>
</g>
<!-- Music (#0)&#45;&gt;Rock (#2) -->
<g id="edge3" class="edge"><title>Music (#0)&#45;&gt;Rock (#2)</title>
<path fill="none" stroke="black" d="M368.386,-222.937C385.097,-213.234 406.226,-200.966 424.276,-190.485"/>
<polygon fill="black" stroke="black" points="426.505,-193.238 433.395,-185.19 422.99,-187.185 426.505,-193.238"/>
</g>
<!-- Alternative (#0)  -->
<g id="node5" class="node"><title>Alternative (#0) </title>
<polygon fill="#ffff88" stroke="black" points="-0.5,-75 -0.5,-111 156.5,-111 156.5,-75 -0.5,-75"/>
<text text-anchor="middle" x="78" y="-89.3" font-family="monoOne" font-size="14.00">Alternative (#0) </text>
</g>
<!-- Pop (#0)&#45;&gt;Alternative (#0)  -->
<g id="edge4" class="edge"><title>Pop (#0)&#45;&gt;Alternative (#0) </title>
<path fill="none" stroke="black" d="M180.244,-148.937C161.937,-139.101 138.723,-126.627 119.043,-116.053"/>
<polygon fill="black" stroke="black" points="120.458,-112.84 109.993,-111.19 117.145,-119.006 120.458,-112.84"/>
</g>
<!-- j (#1) -->
<g id="node6" class="node"><title>j (#1)</title>
<polygon fill="#ffff88" stroke="black" points="175,-75 175,-111 241,-111 241,-75 175,-75"/>
<text text-anchor="middle" x="208" y="-89.3" font-family="monoOne" font-size="14.00">j (#1)</text>
</g>
<!-- Pop (#0)&#45;&gt;j (#1) -->
<g id="edge5" class="edge"><title>Pop (#0)&#45;&gt;j (#1)</title>
<path fill="none" stroke="black" d="M211.052,-148.937C210.6,-140.807 210.049,-130.876 209.539,-121.705"/>
<polygon fill="black" stroke="black" points="213.018,-121.231 208.969,-111.441 206.029,-121.619 213.018,-121.231"/>
</g>
<!-- Swedish (#2) -->
<g id="node7" class="node"><title>Swedish (#2)</title>
<polygon fill="#ffff88" stroke="black" points="259,-75 259,-111 375,-111 375,-75 259,-75"/>
<text text-anchor="middle" x="317" y="-89.3" font-family="monoOne" font-size="14.00">Swedish (#2)</text>
</g>
<!-- Pop (#0)&#45;&gt;Swedish (#2) -->
<g id="edge6" class="edge"><title>Pop (#0)&#45;&gt;Swedish (#2)</title>
<path fill="none" stroke="black" d="M236.884,-148.937C250.774,-139.412 268.27,-127.415 283.366,-117.063"/>
<polygon fill="black" stroke="black" points="285.663,-119.732 291.931,-111.19 281.705,-113.959 285.663,-119.732"/>
</g>
<!-- Alternative (#0) -->
<g id="node9" class="node"><title>Alternative (#0)</title>
<polygon fill="#ffff88" stroke="black" points="392.5,-75 392.5,-111 541.5,-111 541.5,-75 392.5,-75"/>
<text text-anchor="middle" x="467" y="-89.3" font-family="monoOne" font-size="14.00">Alternative (#0)</text>
</g>
<!-- Rock (#2)&#45;&gt;Alternative (#0) -->
<g id="edge7" class="edge"><title>Rock (#2)&#45;&gt;Alternative (#0)</title>
<path fill="none" stroke="black" d="M463.948,-148.937C464.4,-140.807 464.951,-130.876 465.461,-121.705"/>
<polygon fill="black" stroke="black" points="468.971,-121.619 466.031,-111.441 461.982,-121.231 468.971,-121.619"/>
</g>
<!-- Swedish (#0) -->
<g id="node8" class="node"><title>Swedish (#0)</title>
<polygon fill="#aaff88" stroke="black" points="409,-1 409,-37 525,-37 525,-1 409,-1"/>
<text text-anchor="middle" x="467" y="-15.3" font-family="monoOne" font-size="14.00">Swedish (#0)</text>
</g>
<!-- Alternative (#0)&#45;&gt;Swedish (#0) -->
<g id="edge8" class="edge"><title>Alternative (#0)&#45;&gt;Swedish (#0)</title>
<path fill="none" stroke="black" d="M467,-74.937C467,-66.8072 467,-56.8761 467,-47.7047"/>
<polygon fill="black" stroke="black" points="470.5,-47.4406 467,-37.4407 463.5,-47.4407 470.5,-47.4406"/>
</g>
</g>
</svg>
