<?xml version="1.0" encoding="UTF-8" standalone="no"?>
<!-- Generated by graphviz version 2.36.0 (20140111.2315)
 -->

<!-- Title: GenreGraph Pages: 1 -->

<svg
   xmlns:dc="http://purl.org/dc/elements/1.1/"
   xmlns:cc="http://creativecommons.org/ns#"
   xmlns:rdf="http://www.w3.org/1999/02/22-rdf-syntax-ns#"
   xmlns:svg="http://www.w3.org/2000/svg"
   xmlns="http://www.w3.org/2000/svg"
   xmlns:sodipodi="http://sodipodi.sourceforge.net/DTD/sodipodi-0.dtd"
   xmlns:inkscape="http://www.inkscape.org/namespaces/inkscape"
   width="1162pt"
   height="839pt"
   viewBox="0.00 0.00 1162.41 839.45"
   id="svg3673"
   version="1.1"
   inkscape:version="0.48.4 r9939"
   sodipodi:docname="genre_graph_min.svg">
  <metadata
     id="metadata4168">
    <rdf:RDF>
      <cc:Work
         rdf:about="">
        <dc:format>image/svg+xml</dc:format>
        <dc:type
           rdf:resource="http://purl.org/dc/dcmitype/StillImage" />
      </cc:Work>
    </rdf:RDF>
  </metadata>
  <defs
     id="defs4166" />
  <sodipodi:namedview
     pagecolor="#ffffff"
     bordercolor="#666666"
     borderopacity="1"
     objecttolerance="10"
     gridtolerance="10"
     guidetolerance="10"
     inkscape:pageopacity="0"
     inkscape:pageshadow="2"
     inkscape:window-width="1916"
     inkscape:window-height="1037"
     id="namedview4164"
     showgrid="false"
     inkscape:zoom="0.81430274"
     inkscape:cx="887.12383"
     inkscape:cy="101.92769"
     inkscape:window-x="0"
     inkscape:window-y="41"
     inkscape:window-maximized="0"
     inkscape:current-layer="svg3673" />
  <polygon
     style="fill:#fed9a6;stroke:#fed9a6"
     id="polygon3680"
     points="-59.5841,-407.35 -60.5629,-411.525 -50.2918,-463.165 -43.9348,-469.599 22.5433,-453.412 31.3051,-451.655 35.5194,-451.176 36.6296,-423.309 34.5629,-400.968 37.2822,-400.968 39.3027,-398.935 41.7398,-397.495 41.7398,-397.495 39.3027,-398.935 37.2822,-400.968 34.5629,-400.968 36.6296,-423.309 35.5194,-451.176 31.3051,-451.655 22.5433,-453.412 -43.9348,-469.599 -40.2897,-481.768 -33.669,-507.974 -31.2543,-512.366 3.85493,-508.525 44.9171,-507.888 47.3476,-505.586 48.4659,-505.203 51.4146,-502.77 52.8674,-500.774 54.1508,-500.774 54.893,-500.009 58.414,-467.981 58.9594,-451.641 58.9516,-451.01 59.2043,-450.989 60.3603,-401.063 60.7105,-400.993 63.3229,-405.439 67.353,-408.56 73.055,-406.969 63.1531,-401.226 127.319,-399.492 116.313,-413.477 93.2902,-447.869 101.37,-460.082 115.509,-460.565 115.509,-460.565 101.37,-460.082 93.2902,-447.869 116.313,-413.477 127.319,-399.492 63.1531,-401.226 73.055,-406.969 67.353,-408.56 63.3229,-405.439 60.7105,-400.993 60.3603,-401.063 59.2043,-450.989 58.9516,-451.01 58.9594,-451.641 58.414,-467.981 54.893,-500.009 54.1508,-500.774 55.3796,-502.025 59.0798,-504.335 64.1069,-505.414 66.1309,-505.018 71.7602,-501.518 72.2205,-501.069 69.322,-498.016 73.9274,-473.123 74.2999,-500.521 78.062,-496.813 79.4881,-496.171 81.5821,-493.748 112.882,-490.193 109.103,-478.707 139.242,-471.605 141.189,-469.08 144.162,-467.397 144.793,-466.772 145.434,-466.393 152.504,-514.109 152.307,-497.733 154.191,-468.016 157.427,-469.337 161.239,-469.337 164.909,-467.856 168.263,-465.184 168.256,-465.176 163.773,-461.377 161.726,-460.569 161.726,-460.569 163.773,-461.377 168.523,-434.225 170.167,-416.319 170.167,-415.074 160.793,-405.541 186.863,-405.202 212.746,-406.795 216.772,-403.085 217.071,-402.558 219.528,-400.195 219.806,-399.787 223.157,-399.787 223.419,-399.734 225.13,-397.595 225.603,-397.235 225.603,-397.235 225.13,-397.595 223.419,-399.734 227.741,-403.15 229.767,-403.914 229.767,-403.914 227.741,-403.15 223.419,-399.734 223.157,-399.787 219.806,-399.787 219.528,-400.195 217.071,-402.558 216.772,-403.085 213.426,-443.296 212.265,-442.475 180.864,-422.669 179.13,-457.35 176.104,-459.532 176.104,-459.532 179.13,-457.35 180.864,-422.669 212.265,-442.475 213.426,-443.296 216.772,-403.085 212.746,-406.795 186.863,-405.202 160.793,-405.541 170.167,-415.074 170.167,-416.319 168.523,-434.225 163.773,-461.377 168.256,-465.176 168.263,-465.184 168.428,-465.218 171.09,-465.218 176.116,-515.337 176.366,-507.224 176.366,-507.224 176.116,-515.337 171.09,-465.218 168.428,-465.218 168.263,-465.184 164.909,-467.856 161.239,-469.337 157.427,-469.337 154.191,-468.016 152.307,-497.733 152.504,-514.109 145.434,-466.393 144.793,-466.772 144.162,-467.397 141.189,-469.08 139.242,-471.605 109.103,-478.707 112.882,-490.193 81.5821,-493.748 79.4881,-496.171 78.062,-496.813 74.2999,-500.521 73.9274,-473.123 69.322,-498.016 72.2205,-501.069 71.7602,-501.518 66.1309,-505.018 68.6091,-522.455 68.4417,-562.372 78.2455,-555.396 78.2455,-555.396 68.4417,-562.372 68.6091,-522.455 66.1309,-505.018 64.1069,-505.414 59.0798,-504.335 55.3796,-502.025 54.1508,-500.774 52.8674,-500.774 51.4146,-502.77 48.4659,-505.203 47.3476,-505.586 44.9171,-507.888 3.85493,-508.525 -31.2543,-512.366 -9.45952,-559.968 37.4755,-587.144 39.885,-588.617 42.8308,-599.297 120.765,-591.819 123.61,-588.556 123.962,-588.365 127.249,-584.716 127.744,-584.357 125.388,-582.037 125.388,-582.037 127.744,-584.357 127.249,-584.716 123.962,-588.365 123.61,-588.556 120.765,-591.819 42.8308,-599.297 46.7483,-614.935 81.7771,-657.045 124.301,-671.258 125.604,-671.727 132.936,-674.958 138.329,-675.522 140.002,-672.653 137.613,-608.882 139.21,-589.109 142.369,-587.832 145.757,-585.08 145.992,-584.789 145.273,-583.902 142.681,-581.852 139.236,-580.47 139.236,-580.47 142.681,-581.852 145.273,-583.902 145.992,-584.789 145.757,-585.08 142.369,-587.832 139.21,-589.109 137.613,-608.882 140.002,-672.653 143.463,-667.297 148.34,-660.141 149.046,-659.163 149.849,-637.27 149.849,-637.27 149.046,-659.163 148.34,-660.141 143.463,-667.297 140.002,-672.653 138.329,-675.522 184.568,-713.845 212.707,-731.783 220.413,-737.118 222.041,-649.024 219.257,-632.305 220.37,-630.591 220.369,-630.586 221.921,-628.719 223.612,-627.465 227.202,-626.106 231.399,-626.106 234.185,-627.146 237.244,-629.471 242.065,-576.329 242.514,-576.356 247.058,-576.274 254.643,-576.435 261.105,-577.335 270.384,-578.992 264.17,-525.944 267.927,-525.944 272.175,-524.173 275.473,-521.483 274.949,-520.846 272.42,-518.848 267.964,-517.021 267.964,-517.021 272.42,-518.848 274.949,-520.846 275.473,-521.483 272.175,-524.173 267.927,-525.944 264.17,-525.944 270.384,-578.992 270.821,-579.087 271.589,-579.313 278.646,-581.676 286.459,-584.6 286.329,-562.315 286.804,-552.806 286.804,-552.806 286.329,-562.315 286.459,-584.6 278.646,-581.676 271.589,-579.313 270.821,-579.087 270.384,-578.992 261.105,-577.335 254.643,-576.435 247.058,-576.274 242.514,-576.356 242.065,-576.329 237.244,-629.471 234.185,-627.146 231.399,-626.106 227.202,-626.106 223.612,-627.465 221.921,-628.719 220.369,-630.586 220.37,-630.591 219.257,-632.305 222.041,-649.024 220.413,-737.118 221.621,-738.021 226.705,-728.955 227.5,-635.305 230.506,-635.305 230.506,-635.305 227.5,-635.305 226.705,-728.955 237.984,-709.739 241.546,-704.595 242.728,-658.388 241.179,-635.11 241.179,-635.11 242.728,-658.388 241.546,-704.595 237.984,-709.739 226.705,-728.955 221.621,-738.021 224.8,-744.44 264.809,-761.974 308.407,-755.73 308.414,-715.234 308.137,-710.158 308.137,-710.158 308.414,-715.234 308.407,-755.73 313.664,-755.363 324.733,-755.13 329.949,-755.147 328.06,-695.76 330.092,-677.012 332.993,-674.758 333.374,-674.315 332.813,-673.674 330.532,-671.944 325.337,-669.837 322.565,-669.837 322.565,-669.837 325.337,-669.837 330.532,-671.944 332.813,-673.674 333.374,-674.315 332.993,-674.758 330.092,-677.012 328.06,-695.76 329.949,-755.147 332.319,-755.271 338.511,-755.746 338.246,-699.504 338.246,-699.504 338.511,-755.746 343.506,-756.374 343.418,-681.364 341.538,-679.321 353.504,-674.534 358.89,-673.498 378.895,-672.192 379.017,-669.925 343.516,-667.069 340.965,-625.141 353.74,-625.681 353.742,-622.074 353.572,-618.45 350.108,-583.433 350.108,-583.433 353.572,-618.45 353.742,-622.074 353.74,-625.681 358.754,-626.545 364.906,-627.875 364.906,-627.875 358.754,-626.545 353.74,-625.681 340.965,-625.141 343.516,-667.069 379.017,-669.925 379.222,-668.009 378.577,-655.687 376.04,-631.486 376.611,-631.196 380.513,-629.394 385.422,-627.359 384.918,-578.755 387.076,-576.763 387.343,-576.396 385.595,-574.759 382.017,-572.686 382.017,-572.686 385.595,-574.759 387.343,-576.396 387.076,-576.763 384.918,-578.755 385.422,-627.359 380.513,-629.394 376.611,-631.196 376.04,-631.486 378.577,-655.687 379.222,-668.009 379.017,-669.925 378.895,-672.192 358.89,-673.498 353.504,-674.534 341.538,-679.321 343.418,-681.364 343.506,-756.374 355.861,-758.227 364.974,-756.605 386.185,-746.252 411.883,-746.755 427.724,-747.871 426.356,-697.977 425.729,-692.26 425.792,-667.339 425.765,-667.333 425.765,-667.333 425.792,-667.339 425.729,-692.26 426.356,-697.977 427.724,-747.871 429.258,-748.096 429.787,-748.187 439.61,-748.155 439.938,-695.61 444.913,-669.66 446.298,-668.615 447.257,-667.48 446.545,-666.593 443.765,-664.357 439.61,-662.67 436.282,-662.67 433.935,-663.57 433.935,-663.57 436.282,-662.67 439.61,-662.67 443.765,-664.357 446.545,-666.593 447.257,-667.48 446.298,-668.615 444.913,-669.66 439.938,-695.61 439.61,-748.155 453.393,-749.142 453.157,-728.707 453.666,-706.233 453.666,-706.233 453.157,-728.707 453.393,-749.142 467.689,-751.592 477.47,-753.508 486.848,-753.248 505.498,-741.511 533.813,-711.931 533.838,-711.924 535.202,-628.492 538.525,-627.801 541.924,-625.595 541.292,-621.099 539.863,-620.204 539.863,-620.204 541.292,-621.099 541.924,-625.595 538.525,-627.801 535.202,-628.492 533.838,-711.924 541.04,-710.197 551.792,-708.178 584.937,-702.83 612.877,-667.907 623.36,-646.735 626.55,-640.666 640.081,-635.634 668.504,-625.869 720.055,-580.495 721.184,-571.51 636.885,-559.123 631.325,-560.947 628.261,-559.057 625.788,-554.807 624.867,-554.255 623.45,-555.701 620.447,-557.463 617.645,-558.009 613.005,-557.035 610.12,-555.244 607.625,-582.616 605.504,-558.07 602.113,-560.808 595.678,-559.22 551.806,-564.857 556.342,-553.037 561.979,-533.635 565.031,-520.898 553.586,-520.746 521.219,-524.101 519.847,-544.889 516.77,-520.422 514.625,-518.54 513.304,-516.607 512.941,-516.532 511.693,-516.532 510.518,-517.765 506.393,-520.426 502.134,-521.342 498.431,-520.59 496.251,-519.318 490.241,-563.419 489.815,-568.31 489.482,-575.946 484.482,-577.941 468.448,-585.003 463.724,-578.291 451.748,-558.693 405.863,-569.698 404.555,-571.307 401.576,-572.363 399.575,-573.933 394.265,-522.404 394.649,-522.36 391.762,-470.434 393.858,-468.314 392.99,-467.429 387.942,-464.205 385.418,-463.692 385.418,-463.692 387.942,-464.205 392.99,-467.429 393.858,-468.314 391.762,-470.434 394.649,-522.36 394.265,-522.404 399.575,-573.933 401.576,-572.363 404.555,-571.307 405.863,-569.698 451.748,-558.693 463.724,-578.291 468.448,-585.003 484.482,-577.941 489.482,-575.946 489.815,-568.31 490.241,-563.419 491.997,-516.81 491.912,-516.793 491.17,-490.348 487.253,-511.646 484.499,-509.356 478.85,-457.486 461.072,-455.97 460.008,-454.295 403.341,-461.318 401.38,-463.752 401.38,-463.752 403.341,-461.318 460.008,-454.295 461.072,-455.97 478.85,-457.486 484.499,-509.356 487.253,-511.646 491.17,-490.348 491.912,-516.793 491.997,-516.81 490.241,-563.419 496.251,-519.318 498.431,-520.59 502.134,-521.342 506.393,-520.426 510.518,-517.765 511.693,-516.532 511.272,-516.11 507.666,-491.15 507.017,-472.216 507.263,-458.309 499.028,-457.97 499.072,-454.621 498.216,-420.496 500.71,-399.716 501.087,-399.389 501.052,-399.346 495.584,-394.764 494.816,-394.519 492.87,-392.594 448.702,-387.962 460.026,-363.194 460.026,-363.194 448.702,-387.962 492.87,-392.594 494.816,-394.519 495.584,-394.764 501.052,-399.346 501.087,-399.389 500.71,-399.716 498.216,-420.496 499.072,-454.621 499.028,-457.97 507.263,-458.309 507.017,-472.216 507.666,-491.15 511.272,-516.11 511.693,-516.532 512.941,-516.532 513.304,-516.607 514.625,-518.54 516.77,-520.422 519.847,-544.889 521.219,-524.101 553.586,-520.746 565.031,-520.898 561.979,-533.635 556.342,-553.037 551.806,-564.857 595.678,-559.22 602.113,-560.808 605.504,-558.07 607.625,-582.616 610.12,-555.244 613.005,-557.035 617.645,-558.009 620.447,-557.463 623.45,-555.701 624.867,-554.255 624.644,-552.324 623.684,-551.312 620.016,-549.061 617.142,-548.496 612.908,-549.352 610.732,-550.644 610.732,-550.644 612.908,-549.352 617.142,-548.496 620.016,-549.061 623.684,-551.312 627.067,-503.911 626.716,-503.885 624.513,-503.906 618.618,-503.695 619.887,-461.279 563.696,-470.924 575.595,-496.478 569.01,-510.424 528.509,-511.231 521.062,-509.15 517.737,-511.527 515.738,-486.269 515.924,-458.078 516.148,-458.07 516.935,-444.041 517.209,-402.614 520.876,-399.73 519.955,-398.614 517.624,-396.797 517.624,-396.797 519.955,-398.614 520.876,-399.73 517.209,-402.614 516.935,-444.041 516.148,-458.07 515.924,-458.078 515.738,-486.269 517.737,-511.527 521.062,-509.15 523.033,-458.289 524.745,-458.28 524.745,-458.28 523.033,-458.289 521.062,-509.15 528.509,-511.231 569.01,-510.424 575.595,-496.478 563.696,-470.924 619.887,-461.279 618.618,-503.695 624.513,-503.906 626.716,-503.885 627.067,-503.911 623.684,-551.312 624.644,-552.324 624.867,-554.255 625.788,-554.807 628.261,-559.057 631.325,-560.947 636.885,-559.123 721.184,-571.51 724.634,-550.937 728.428,-532.784 747.666,-509.623 719.857,-457.33 714.536,-443.29 661.288,-447.389 658.704,-449.985 658.36,-450.127 655.023,-453.229 653.376,-454.146 654.924,-456.271 653.569,-475.441 649.287,-455.608 643.949,-479.075 643.912,-478.718 644.094,-458.176 639.664,-459.074 637.515,-458.673 634.465,-456.917 631.772,-454.202 630.566,-454.202 628.608,-406.686 627.795,-406.737 625.862,-433.518 625.862,-433.518 627.795,-406.737 620.186,-406.541 618.372,-406.576 615.232,-406.925 608.48,-407.367 602.654,-408.276 601.277,-408.553 594.236,-410.286 595.06,-383.537 598.025,-362.647 598.025,-362.647 595.06,-383.537 594.236,-410.286 601.277,-408.553 602.654,-408.276 608.48,-407.367 615.232,-406.925 618.372,-406.576 616.96,-376.99 613.551,-362.781 612.648,-363.113 612.648,-363.113 613.551,-362.781 618.319,-358.929 618.402,-358.132 618.391,-358.12 615.065,-355.65 611.379,-354.259 608.515,-354.259 608.515,-354.259 611.379,-354.259 615.065,-355.65 618.391,-358.12 618.402,-358.132 618.319,-358.929 613.551,-362.781 616.96,-376.99 618.372,-406.576 620.186,-406.541 627.795,-406.737 628.608,-406.686 628.799,-406.665 625.139,-366.36 625.139,-366.36 628.799,-406.665 628.608,-406.686 630.566,-454.202 631.772,-454.202 634.465,-456.917 637.515,-458.673 639.664,-459.074 644.094,-458.176 649.29,-455.029 649.579,-454.621 649.579,-454.621 649.29,-455.029 644.094,-458.176 643.912,-478.718 643.949,-479.075 649.287,-455.608 653.569,-475.441 654.924,-456.271 653.376,-454.146 655.023,-453.229 658.36,-450.127 658.704,-449.985 661.288,-447.389 714.536,-443.29 703.777,-411.593 699.21,-400.649 698.236,-398.672 691.102,-385.258 695.344,-365.491 698.541,-354.801 703.401,-352.402 716.015,-346.939 750.621,-334.126 763.318,-329.018 769.812,-326.006 777.064,-322.422 784.636,-318.227 787.862,-316.248 789.202,-315.386 802.45,-305.616 828.858,-284.541 825.058,-280.097 806.041,-254.658 767.578,-201.018 748.442,-177.207 717.753,-190.874 709.517,-194.317 705.807,-195.765 699.517,-198.041 693.21,-199.794 691.438,-200.237 684.387,-201.803 684.315,-251.315 682.041,-269.857 686.754,-271.687 689.18,-273.486 690.014,-274.424 689.435,-275.084 686.35,-277.428 682.003,-279.116 679.93,-279.116 675.315,-277.291 671.64,-274.462 671.625,-274.465 668.969,-274.465 667.951,-274.655 666.627,-274.655 666.531,-274.637 666.531,-274.637 666.627,-274.655 667.951,-274.655 668.969,-274.465 671.625,-274.465 671.64,-274.462 675.315,-277.291 679.93,-279.116 682.003,-279.116 686.35,-277.428 689.435,-275.084 690.014,-274.424 689.18,-273.486 686.754,-271.687 682.041,-269.857 679.854,-269.857 679.854,-269.857 682.041,-269.857 684.315,-251.315 684.387,-201.803 679.122,-202.678 668.153,-203.889 666.634,-203.971 662.648,-204.304 657.263,-204.452 651.279,-204.11 641.495,-204.41 638.609,-204.417 632.675,-204.948 632.256,-204.71 593.431,-185.485 581.683,-189.334 572.589,-191.951 571.196,-192.239 564.288,-193.39 563.146,-227.865 560.056,-243.8 565.619,-247.228 566.564,-248.151 565.636,-249.068 565.636,-249.068 566.564,-248.151 565.619,-247.228 560.056,-243.8 557.883,-243.387 557.883,-243.387 560.056,-243.8 563.146,-227.865 564.288,-193.39 554.832,-194.203 554.805,-194.203 548.504,-194.481 545.021,-194.494 546.818,-248.096 544.356,-248.096 543.707,-248.231 541.338,-248.231 538.48,-251.658 502.544,-252.658 502.495,-253.763 496.939,-254.235 470.397,-252.616 468.975,-234.327 465.913,-256.945 464.041,-258.757 459.732,-219.656 459.605,-256.917 463.298,-259.892 463.304,-259.957 458.733,-263.625 457.174,-264.212 457.174,-264.212 458.733,-263.625 463.304,-259.957 463.298,-259.892 459.605,-256.917 456.198,-255.547 452.718,-255.547 452.718,-255.547 456.198,-255.547 459.605,-256.917 459.732,-219.656 464.041,-258.757 465.913,-256.945 468.975,-234.327 470.397,-252.616 496.939,-254.235 502.495,-253.763 502.544,-252.658 538.48,-251.658 541.338,-248.231 543.707,-248.231 544.356,-248.096 546.818,-248.096 545.021,-194.494 542.325,-194.394 541.837,-194.433 532.548,-194.429 531.614,-194.391 524.62,-194.926 514.032,-196.569 511.172,-197.234 508.616,-197.928 494.843,-202.209 476.063,-195.913 470.444,-163.947 469.673,-154.235 468.714,-146.853 468.764,-144.246 467.626,-129.921 463.317,-105.41 445.166,-92.967 430.526,-94.0027 430.526,-94.0027 445.166,-92.967 453.406,-64.614 455.484,-55.7928 456.791,-45.0876 456.813,-42.3206 458.373,-29.521 475.448,29.2318 472.64,31.3421 462.061,36.1716 424.36,44.1526 421.789,-14.0233 423.291,-27.3139 423.291,-27.3139 421.789,-14.0233 424.36,44.1526 418.613,45.6917 403.21,50.2502 403.321,44.3212 402.455,30.0095 400.765,-31.9909 397.698,-34.5753 397.697,-34.5859 402.113,-38.3968 403.597,-38.9807 403.597,-38.9807 402.113,-38.3968 397.697,-34.5859 397.698,-34.5753 400.765,-31.9909 402.455,30.0095 403.321,44.3212 403.21,50.2502 392.572,54.8663 390.277,54.2621 379.514,51.9561 339.465,58.7937 338.636,58.7789 330.183,-12.0965 362.361,-9.64727 360.734,-17.2142 360.569,-17.2255 335.893,-20.5092 329.069,-24.5173 330.071,-25.6087 359.552,-33.9373 358.299,-42.2352 377.481,-40.8332 389.896,-42.0563 392.876,-39.3939 396.76,-64.0179 396.055,-94.1345 394.922,-94.266 402.166,-149.241 398.377,-151.509 396.25,-153.689 398.902,-156.353 401.121,-157.614 405.217,-158.412 408.039,-157.867 408.039,-157.867 405.217,-158.412 401.121,-157.614 398.902,-156.353 396.25,-153.689 394.58,-153.689 392.996,-99.9581 390.277,-153.561 391.355,-153.783 387.949,-200.588 386.936,-153.939 384.59,-156.242 384.59,-156.242 386.936,-153.939 387.949,-200.588 391.355,-153.783 390.277,-153.561 392.996,-99.9581 394.58,-153.689 396.25,-153.689 398.377,-151.509 402.166,-149.241 394.922,-94.266 396.055,-94.1345 396.76,-64.0179 392.876,-39.3939 389.896,-42.0563 377.481,-40.8332 358.299,-42.2352 359.552,-33.9373 330.071,-25.6087 337.377,-80.1394 327.529,-78.6808 322.63,-78.1244 313.613,-77.4125 313.191,-77.4229 311.062,-77.5484 310.652,-114.922 310.652,-114.922 311.062,-77.5484 313.191,-77.4229 313.613,-77.4125 322.63,-78.1244 327.529,-78.6808 337.377,-80.1394 330.071,-25.6087 329.069,-24.5173 335.893,-20.5092 360.569,-17.2255 360.734,-17.2142 362.361,-9.64727 330.183,-12.0965 338.636,58.7789 327.074,58.8586 316.961,59.1789 315.928,59.2626 303.321,61.2229 299.8,61.8569 295.289,62.8911 294.161,63.1776 292.773,63.5643 291.416,63.9765 283.552,66.5637 275.224,65.745 255.377,64.2428 212.67,55.3915 207.209,49.6104 201.758,40.0339 201.68,39.9878 196.166,-55.5899 199.809,-60.0308 199.877,-60.0505 202.106,33.1356 202.121,39.3458 202.239,39.1415 208.593,28.655 223.784,5.98868 221.254,-41.9369 217.324,-60.4108 216.735,-60.7507 216.271,-64.3512 218.804,-66.681 219.176,-67.4224 222.444,-70.0854 225.191,-124.136 220.934,-128.534 261.101,-131.268 268.635,-132.595 281.957,-137.604 273.037,-141.805 279.415,-143.508 283.267,-140.447 284.908,-137.463 286.993,-136.16 287.926,-137.309 288.748,-137.947 288.748,-137.947 287.926,-137.309 286.993,-136.16 284.908,-137.463 283.267,-140.447 279.415,-143.508 281.725,-182.648 281.336,-192.896 283.648,-193.096 282.075,-246.437 282.235,-246.768 284.071,-248.724 283.855,-250.542 283.88,-250.753 284.235,-251.665 285.972,-253.093 290.087,-254.785 292.646,-254.785 292.646,-254.785 290.087,-254.785 286.288,-303.943 286.079,-304.059 279.524,-308.068 258.091,-323.546 260.126,-325.801 260.126,-325.801 258.091,-323.546 279.524,-308.068 286.079,-304.059 286.288,-303.943 290.087,-254.785 285.972,-253.093 284.235,-251.665 283.88,-250.753 283.855,-250.542 284.071,-248.724 282.235,-246.768 282.075,-246.437 283.648,-193.096 281.336,-192.896 281.725,-182.648 279.415,-143.508 273.037,-141.805 281.957,-137.604 268.635,-132.595 261.101,-131.268 220.934,-128.534 225.191,-124.136 222.444,-70.0854 219.176,-67.4224 218.804,-66.681 216.271,-64.3512 216.735,-60.7507 217.324,-60.4108 221.254,-41.9369 223.784,5.98868 208.593,28.655 202.239,39.1415 202.121,39.3458 202.106,33.1356 199.877,-60.0505 199.809,-60.0308 196.166,-55.5899 151.576,-50.9573 199.437,-60.0843 188.939,-65.1009 155.399,-69.9647 196.437,-69.7777 199.277,-67.0425 199.303,-67.0318 202.303,-64.0656 203.665,-65.2381 207.653,-66.9671 207.653,-66.9671 203.665,-65.2381 202.303,-64.0656 199.303,-67.0318 204.269,-98.4526 205.616,-113.742 205.601,-132.294 207.254,-132.514 198.599,-194.806 198.599,-194.806 207.254,-132.514 205.601,-132.294 205.616,-113.742 204.269,-98.4526 199.303,-67.0318 199.277,-67.0425 196.437,-69.7777 192.147,-121.685 198.054,-128.874 201.213,-132.254 191.053,-140.672 187.306,-143.36 181.574,-146.868 180.642,-198.833 179.49,-199.722 178.962,-203.767 179.079,-204.064 184.599,-206.41 188.877,-206.41 190.515,-205.778 190.515,-205.778 188.877,-206.41 184.599,-206.41 179.079,-204.064 178.962,-203.767 179.49,-199.722 180.642,-198.833 181.574,-146.868 187.306,-143.36 191.053,-140.672 201.213,-132.254 198.054,-128.874 192.147,-121.685 196.437,-69.7777 155.399,-69.9647 188.939,-65.1009 199.437,-60.0843 151.576,-50.9573 136.44,-48.7279 138.411,-51.2549 138.411,-51.2549 136.44,-48.7279 132.75,-44.5633 126.362,-36.937 125.866,-84.7319 124.913,-95.5948 121.165,-111.426 119.624,-111.426 115.252,-113.171 111.631,-116.059 113.158,-117.896 114.442,-118.854 114.442,-118.854 113.158,-117.896 111.631,-116.059 115.252,-113.171 119.624,-111.426 121.165,-111.426 124.913,-95.5948 125.866,-84.7319 126.362,-36.937 132.75,-44.5633 136.44,-48.7279 151.576,-50.9573 196.166,-55.5899 201.68,39.9878 158.013,15.5313 114.791,-20.8368 110.888,-21.3954 110.451,-21.4312 103.874,-21.8359 83.8509,-22.2553 40.3136,-51.087 29.5825,-102.12 27.0931,-112.61 22.802,-126.106 0.052556,-139.844 -15.5893,-153.668 -32.1942,-180.997 -37.8629,-203.137 -51.3098,-240.352 -55.8322,-252.111 -53.1494,-258.616 37.9043,-258.258 41.1752,-258.391 42.1978,-258.297 42.1978,-258.297 41.1752,-258.391 37.9043,-258.258 -53.1494,-258.616 -53.9402,-300.517 -55.1405,-315.899 30.8595,-312.325 39.356,-314.138 42.471,-311.821 44.3102,-308.398 46.6477,-307.016 47.1445,-306.566 47.5871,-306.479 48.0576,-305.823 49.2655,-304.717 52.087,-258.263 53.6542,-258.261 54.4045,-232.994 52.3367,-211.309 57.3065,-214.241 59.0138,-214.558 64.2767,-213.485 66.2328,-212.353 68.9062,-209.637 67.6667,-208.442 63.8181,-206.145 59.285,-205.225 56.9493,-205.666 56.9493,-205.666 59.285,-205.225 63.8181,-206.145 67.6667,-208.442 68.9062,-209.637 66.2328,-212.353 64.2767,-213.485 59.0138,-214.558 57.3065,-214.241 52.3367,-211.309 54.4045,-232.994 53.6542,-258.261 52.087,-258.263 49.2655,-304.717 48.0576,-305.823 47.5871,-306.479 48.9925,-307.849 54.2549,-311.048 56.4422,-311.452 59.272,-310.921 64.735,-307.633 65.6166,-306.8 69.6707,-332.561 70.6882,-309.839 70.0917,-309.175 78.8667,-305.015 110.374,-307.233 111.086,-302.118 138.523,-306.125 147.164,-305.057 150.888,-308.234 152.911,-311.796 153.123,-311.945 153.503,-312.352 157.831,-312.352 158.101,-312.689 162.099,-315.964 164.397,-316.852 168.708,-316.852 171.98,-315.57 174.968,-313.236 175.544,-312.544 176.09,-312.434 178.283,-312.434 178.283,-312.434 176.09,-312.434 175.544,-312.544 174.968,-313.236 176.902,-343.829 176.573,-364.501 185.33,-360.669 211.667,-351.876 218.599,-349.199 231.591,-342.119 236.156,-339.172 240.661,-335.544 244.27,-332.837 252.665,-326.12 255.647,-323.595 252.016,-392.701 294.488,-384.912 280.078,-353.594 319.443,-354.158 326.726,-356.315 330.928,-353.057 332.285,-350.829 332.285,-350.829 330.928,-353.057 326.726,-356.315 319.443,-354.158 280.078,-353.594 294.488,-384.912 252.016,-392.701 255.647,-323.595 252.665,-326.12 244.27,-332.837 240.661,-335.544 236.156,-339.172 231.591,-342.119 218.599,-349.199 211.667,-351.876 185.33,-360.669 176.573,-364.501 176.902,-343.829 174.968,-313.236 171.98,-315.57 168.708,-316.852 164.397,-316.852 162.099,-315.964 158.101,-312.689 157.831,-312.352 153.503,-312.352 153.123,-311.945 152.911,-311.796 150.888,-308.234 147.164,-305.057 138.523,-306.125 111.086,-302.118 110.374,-307.233 78.8667,-305.015 70.0917,-309.175 70.6882,-309.839 69.6707,-332.561 65.6166,-306.8 64.735,-307.633 59.272,-310.921 56.4422,-311.452 54.2549,-311.048 48.9925,-307.849 47.5871,-306.479 47.1445,-306.566 46.6477,-307.016 44.3102,-308.398 42.471,-311.821 39.356,-314.138 30.8595,-312.325 -55.1405,-315.899 -55.8969,-322.349 -50.5639,-338.363 -57.4463,-395.565 -57.4463,-395.565 -57.4463,-395.565 -58.1882,-400.751 "
     transform="translate(64.5629,765.974)" />
  <polygon
     style="fill:#d8d6da;stroke:#d8d6da"
     id="polygon3682"
     points="782.995,-10.4838 781.785,7.92347 784.37,69.4215 784.696,69.4725 853.988,33.7118 871.986,-5.77401 870.532,-11.2514 864.791,-43.6635 782.615,-24.6129 781.405,-23.2585 780.211,-22.8442 775.177,-18.1643 775.212,-17.8287 772.131,-15.2689 772.131,-15.2689 775.212,-17.8287 775.177,-18.1643 780.211,-22.8442 781.405,-23.2585 782.615,-24.6129 864.791,-43.6635 859.832,-75.8795 791.544,-104.406 774.316,-112.085 755.88,-122.286 754.698,-127.818 753.964,-132.037 752.591,-140.934 748.442,-177.207 717.753,-190.874 709.517,-194.317 705.807,-195.765 699.517,-198.041 693.21,-199.794 691.438,-200.237 684.387,-201.803 679.122,-202.678 668.153,-203.889 666.634,-203.971 662.648,-204.304 657.263,-204.452 651.279,-204.11 641.495,-204.41 638.609,-204.417 632.675,-204.948 632.256,-204.71 593.431,-185.485 590.257,-148.939 589.988,-146.946 590.072,-134.531 589.772,-131.13 589.808,-125.761 585.951,-81.3521 587.365,-79.0879 610.225,-44.8808 628.743,-21.8491 633.088,-21.3045 635.557,-20.9521 642.112,-19.7865 654.557,-0.733128 663.787,14.6649 685.273,36.7277 738.793,68.9046 741.628,68.6717 757.79,67.7263 760.78,67.623 771.446,68.0176 784.37,69.4215 781.785,7.92347 781.785,7.92347 781.785,7.92347 782.995,-10.4838 "
     transform="translate(64.5629,765.974)" />
  <polygon
     style="fill:#fbb4ae;stroke:#fbb4ae"
     id="polygon3684"
     points="475.448,29.2318 458.373,-29.521 456.813,-42.3206 456.791,-45.0876 455.484,-55.7928 453.406,-64.614 490.401,-60.1383 490.69,-98.5544 494.571,-97.7834 493.929,-57.2096 497.267,-54.1099 498.415,-81.5857 502.112,-55.7507 504.722,-57.2658 507.914,-57.8861 507.914,-57.8861 504.722,-57.2658 502.112,-55.7507 498.415,-81.5857 497.267,-54.1099 493.929,-57.2096 494.571,-97.7834 490.69,-98.5544 490.401,-60.1383 453.406,-64.614 445.166,-92.967 463.317,-105.41 467.626,-129.921 468.764,-144.246 468.714,-146.853 469.673,-154.235 470.444,-163.947 476.063,-195.913 494.843,-202.209 508.616,-197.928 511.172,-197.234 514.032,-196.569 524.62,-194.926 531.614,-194.391 532.548,-194.429 541.837,-194.433 542.325,-194.394 545.021,-194.494 548.504,-194.481 554.805,-194.203 554.832,-194.203 564.288,-193.39 571.196,-192.239 572.589,-191.951 581.683,-189.334 593.431,-185.485 590.257,-148.939 589.988,-146.946 590.072,-134.531 589.772,-131.13 589.808,-125.761 585.951,-81.3521 587.365,-79.0879 610.225,-44.8808 628.743,-21.8491 552.829,24.7525 536.113,25.9204 524.75,24.7648 516.774,24.3712 516.468,24.3641 507.693,24.6207 501.567,24.9603 501.567,24.9603 501.567,24.9603 490.176,26.4881 "
     transform="translate(64.5629,765.974)" />
  <polygon
     style="fill:#bbd7d9;stroke:#bbd7d9"
     id="polygon3686"
     points="1035.15,-268.103 1041.45,-270.58 1082.98,-304.983 1093.84,-321.138 1093.01,-331.061 1092.74,-332.923 1090.08,-361.352 1051.89,-357.309 1015.96,-357.352 1012.79,-354.344 1012.65,-354.286 1009.75,-351.672 1008.61,-350.024 1007.47,-350.024 1004.57,-347.209 1003.43,-346.585 998.693,-345.641 998.693,-345.641 1003.43,-346.585 1004.57,-347.209 1007.47,-350.024 1008.61,-350.024 1009.75,-351.672 1012.65,-354.286 1012.79,-354.344 1015.96,-357.352 1051.89,-357.309 1090.08,-361.352 1089.63,-385.555 1074.3,-419.407 1053.41,-439.272 1063.76,-494.799 1068.49,-516.979 1067.91,-518.299 1050.74,-571.128 1007.79,-594.098 1000.15,-597.62 992.831,-520.918 1006.29,-518.743 988.754,-516.262 985.884,-513.421 985.884,-513.421 988.754,-516.262 1006.29,-518.743 992.831,-520.918 1000.15,-597.62 996.607,-599.351 984.636,-597.463 980.807,-597.038 967.499,-596.495 970.08,-533.716 973.156,-517.775 975.163,-518.149 979.105,-517.377 983.196,-514.96 984.82,-513.408 983.675,-512.326 979.087,-509.586 975.987,-508.973 972.102,-509.761 972.102,-509.761 975.987,-508.973 979.087,-509.586 983.675,-512.326 984.82,-513.408 983.196,-514.96 979.105,-517.377 975.163,-518.149 973.156,-517.775 967.969,-514.648 966.767,-513.492 966.656,-513.492 965.891,-512.834 965.849,-512.778 965.849,-512.778 965.891,-512.834 966.656,-513.492 966.767,-513.492 967.969,-514.648 973.156,-517.775 970.08,-533.716 967.499,-596.495 962.542,-596.524 962.937,-569.591 962.937,-569.591 962.542,-596.524 961.062,-596.601 926.482,-599.224 888.119,-566.479 868.422,-519.287 857.326,-497.82 862.752,-489.115 903.115,-421.505 899.787,-410.821 832.905,-410.3 832.905,-410.3 899.787,-410.821 903.115,-421.505 862.752,-489.115 857.326,-497.82 803.792,-499.051 794.183,-499.659 782.737,-500.843 781.938,-500.958 781.127,-501.09 760.72,-505.672 760.358,-505.761 747.666,-509.623 719.857,-457.33 714.536,-443.29 703.777,-411.593 749.706,-410.276 749.706,-410.276 703.777,-411.593 699.21,-400.649 698.236,-398.672 691.102,-385.258 695.344,-365.491 698.541,-354.801 703.401,-352.402 716.015,-346.939 750.621,-334.126 763.318,-329.018 769.812,-326.006 777.064,-322.422 784.636,-318.227 787.862,-316.248 789.202,-315.386 802.45,-305.616 801.448,-379.637 803.069,-397.175 803.069,-397.175 801.448,-379.637 802.45,-305.616 828.858,-284.541 855.937,-289.481 870.902,-300.096 966.284,-271.522 978.779,-270.649 978.892,-270.639 995.091,-268.705 1007.86,-265.603 1013.72,-263.891 1017.38,-262.735 1018.92,-262.891 1018.92,-262.891 1018.92,-262.891 1024.02,-264.618 "
     transform="translate(64.5629,765.974)" />
  <polyline
     style="fill:none;stroke:#000000"
     id="polyline3688"
     points="470.444,-163.947 469.673,-154.235 468.714,-146.853 468.764,-144.246 467.626,-129.921 463.317,-105.41 445.166,-92.967 453.406,-64.614 455.484,-55.7928 456.791,-45.0876 456.813,-42.3206 458.373,-29.521 475.448,29.2318 472.64,31.3421 462.061,36.1716 424.36,44.1526 418.613,45.6917 403.21,50.2502 392.572,54.8663 390.277,54.2621 379.514,51.9561 339.465,58.7937 338.636,58.7789 327.074,58.8586 316.961,59.1789 315.928,59.2626 303.321,61.2229 299.8,61.8569 295.289,62.8911 294.161,63.1776 292.773,63.5643 291.416,63.9765 283.552,66.5637 275.224,65.745 255.377,64.2428 212.67,55.3915 207.209,49.6104 201.758,40.0339 201.68,39.9878 158.013,15.5313 114.791,-20.8368 110.888,-21.3954 110.451,-21.4312 103.874,-21.8359 83.8509,-22.2553 40.3136,-51.087 29.5825,-102.12 27.0931,-112.61 22.802,-126.106 0.052556,-139.844 -15.5893,-153.668 -32.1942,-180.997 -37.8629,-203.137 -51.3098,-240.352 -55.8322,-252.111 -53.1494,-258.616 -53.9402,-300.517 -55.1405,-315.899 -55.8969,-322.349 -50.5639,-338.363 -57.4463,-395.565 -58.1882,-400.751 -59.5841,-407.35 -60.5629,-411.525 -50.2918,-463.165 -43.9348,-469.599 -40.2897,-481.768 -33.669,-507.974 -31.2543,-512.366 -9.45952,-559.968 37.4755,-587.144 39.885,-588.617 42.8308,-599.297 46.7483,-614.935 81.7771,-657.045 124.301,-671.258 125.604,-671.727 132.936,-674.958 138.329,-675.522 184.568,-713.845 212.707,-731.783 220.413,-737.118 221.621,-738.021 224.8,-744.44 264.809,-761.974 308.407,-755.73 313.664,-755.363 324.733,-755.13 329.949,-755.147 332.319,-755.271 338.511,-755.746 343.506,-756.374 355.861,-758.227 364.974,-756.605 386.185,-746.252 411.883,-746.755 427.724,-747.871 429.258,-748.096 429.787,-748.187 439.61,-748.155 453.393,-749.142 467.689,-751.592 477.47,-753.508 486.848,-753.248 505.498,-741.511 533.813,-711.931 533.838,-711.924 541.04,-710.197 551.792,-708.178 584.937,-702.83 612.877,-667.907 623.36,-646.735 626.55,-640.666 640.081,-635.634 668.504,-625.869 720.055,-580.495 721.184,-571.51 724.634,-550.937 728.428,-532.784 747.666,-509.623 719.857,-457.33 714.536,-443.29 703.777,-411.593 699.21,-400.649 698.236,-398.672 691.102,-385.258 695.344,-365.491 698.541,-354.801 703.401,-352.402 716.015,-346.939 750.621,-334.126 763.318,-329.018 769.812,-326.006 777.064,-322.422 784.636,-318.227 787.862,-316.248 789.202,-315.386 802.45,-305.616 828.858,-284.541 825.058,-280.097 806.041,-254.658 767.578,-201.018 748.442,-177.207 717.753,-190.874 709.517,-194.317 705.807,-195.765 699.517,-198.041 693.21,-199.794 691.438,-200.237 684.387,-201.803 679.122,-202.678 668.153,-203.889 666.634,-203.971 662.648,-204.304 657.263,-204.452 651.279,-204.11 641.495,-204.41 638.609,-204.417 632.675,-204.948 632.256,-204.71 593.431,-185.485 581.683,-189.334 572.589,-191.951 571.196,-192.239 564.288,-193.39 554.832,-194.203 554.805,-194.203 548.504,-194.481 545.021,-194.494 542.325,-194.394 541.837,-194.433 532.548,-194.429 531.614,-194.391 524.62,-194.926 514.032,-196.569 511.172,-197.234 508.616,-197.928 494.843,-202.209 476.063,-195.913 470.444,-163.947 "
     transform="translate(64.5629,765.974)" />
  <polyline
     style="fill:none;stroke:#000000"
     id="polyline3690"
     points="632.675,-204.948 638.609,-204.417 641.495,-204.41 651.279,-204.11 657.263,-204.452 662.648,-204.304 666.634,-203.971 668.153,-203.889 679.122,-202.678 684.387,-201.803 691.438,-200.237 693.21,-199.794 699.517,-198.041 705.807,-195.765 709.517,-194.317 717.753,-190.874 748.442,-177.207 752.591,-140.934 753.964,-132.037 754.698,-127.818 755.88,-122.286 774.316,-112.085 791.544,-104.406 859.832,-75.8795 864.791,-43.6635 870.532,-11.2514 871.986,-5.77401 853.988,33.7118 784.696,69.4725 784.37,69.4215 771.446,68.0176 760.78,67.623 757.79,67.7263 741.628,68.6717 738.793,68.9046 685.273,36.7277 663.787,14.6649 654.557,-0.733128 642.112,-19.7865 635.557,-20.9521 633.088,-21.3045 628.743,-21.8491 610.225,-44.8808 587.365,-79.0879 585.951,-81.3521 589.808,-125.761 589.772,-131.13 590.072,-134.531 589.988,-146.946 590.257,-148.939 593.431,-185.485 632.256,-204.71 632.675,-204.948 "
     transform="translate(64.5629,765.974)" />
  <polyline
     style="fill:none;stroke:#000000"
     id="polyline3692"
     points="514.032,-196.569 511.172,-197.234 508.616,-197.928 494.843,-202.209 476.063,-195.913 470.444,-163.947 469.673,-154.235 468.714,-146.853 468.764,-144.246 467.626,-129.921 463.317,-105.41 445.166,-92.967 453.406,-64.614 455.484,-55.7928 456.791,-45.0876 456.813,-42.3206 458.373,-29.521 475.448,29.2318 490.176,26.4881 501.567,24.9603 507.693,24.6207 516.468,24.3641 516.774,24.3712 524.75,24.7648 536.113,25.9204 552.829,24.7525 628.743,-21.8491 610.225,-44.8808 587.365,-79.0879 585.951,-81.3521 589.808,-125.761 589.772,-131.13 590.072,-134.531 589.988,-146.946 590.257,-148.939 593.431,-185.485 581.683,-189.334 572.589,-191.951 571.196,-192.239 564.288,-193.39 554.832,-194.203 554.805,-194.203 548.504,-194.481 545.021,-194.494 542.325,-194.394 541.837,-194.433 532.548,-194.429 531.614,-194.391 524.62,-194.926 514.032,-196.569 "
     transform="translate(64.5629,765.974)" />
  <polyline
     style="fill:none;stroke:#000000"
     id="polyline3694"
     points="781.938,-500.958 782.737,-500.843 794.183,-499.659 803.792,-499.051 857.326,-497.82 868.422,-519.287 888.119,-566.479 926.482,-599.224 961.062,-596.601 962.542,-596.524 967.499,-596.495 980.807,-597.038 984.636,-597.463 996.607,-599.351 1000.15,-597.62 1007.79,-594.098 1050.74,-571.128 1067.91,-518.299 1068.49,-516.979 1063.76,-494.799 1053.41,-439.272 1074.3,-419.407 1089.63,-385.555 1090.08,-361.352 1092.74,-332.923 1093.01,-331.061 1093.84,-321.138 1082.98,-304.983 1041.45,-270.58 1035.15,-268.103 1024.02,-264.618 1018.92,-262.891 1017.38,-262.735 1013.72,-263.891 1007.86,-265.603 995.091,-268.705 978.892,-270.639 978.779,-270.649 966.284,-271.522 870.902,-300.096 855.937,-289.481 828.858,-284.541 802.45,-305.616 789.202,-315.386 787.862,-316.248 784.636,-318.227 777.064,-322.422 769.812,-326.006 763.318,-329.018 750.621,-334.126 716.015,-346.939 703.401,-352.402 698.541,-354.801 695.344,-365.491 691.102,-385.258 698.236,-398.672 699.21,-400.649 703.777,-411.593 714.536,-443.29 719.857,-457.33 747.666,-509.623 760.358,-505.761 760.72,-505.672 781.127,-501.09 781.938,-500.958 "
     transform="translate(64.5629,765.974)" />
  <g
     class="edge"
     id="edge1"
     transform="translate(64.5629,765.974)">
    <title
       id="title3697">  music  --  alternative  </title>
    <path
       style="fill:none;stroke:#555555;stroke-opacity:0.33333297"
       inkscape:connector-curvature="0"
       id="path3699"
       d="m 381.45,-373.51 c 22.93,-76.01 32.32,-89.83 90.74,-125.17" />
  </g>
  <g
     class="edge"
     id="edge2"
     transform="translate(64.5629,765.974)">
    <title
       id="title3702">  music  --  band  </title>
    <path
       style="fill:none;stroke:#555555;stroke-opacity:0.33333297"
       inkscape:connector-curvature="0"
       id="path3704"
       d="m 406.13,-373.56 c 77.35,-70.96 97.65,-80.01 189.17,-80.86" />
  </g>
  <g
     class="edge"
     id="edge3"
     transform="translate(64.5629,765.974)">
    <title
       id="title3707">  music  --  bass  </title>
    <path
       style="fill:none;stroke:#555555;stroke-opacity:0.33333297"
       inkscape:connector-curvature="0"
       id="path3709"
       d="m 380.59,-373.52 c 41.68,-154.25 50,-170.82 130.5,-232.04" />
  </g>
  <g
     class="edge"
     id="edge4"
     transform="translate(64.5629,765.974)">
    <title
       id="title3712">  music  --  beat  </title>
    <path
       style="fill:none;stroke:#555555;stroke-opacity:0.33333297"
       inkscape:connector-curvature="0"
       id="path3714"
       d="m 392.46,-373.83 c 79.58,-124.1 94.13,-137.94 191.38,-169.09" />
  </g>
  <g
     class="edge"
     id="edge5"
     transform="translate(64.5629,765.974)">
    <title
       id="title3717">  music  --  blues  </title>
    <path
       style="fill:none;stroke:#555555;stroke-opacity:0.33333297"
       inkscape:connector-curvature="0"
       id="path3719"
       d="m 398.94,-310.18 c 32.16,36.37 49.36,44.54 111.34,54.75" />
  </g>
  <g
     class="edge"
     id="edge6"
     transform="translate(64.5629,765.974)">
    <title
       id="title3722">  music  --  breaks  </title>
    <path
       style="fill:none;stroke:#555555;stroke-opacity:0.33333297"
       inkscape:connector-curvature="0"
       id="path3724"
       d="m 385.56,-310.37 c 7.46,14.27 15.58,21.76 34.26,32.36" />
  </g>
  <g
     class="edge"
     id="edge7"
     transform="translate(64.5629,765.974)">
    <title
       id="title3727">  music  --  christmas  </title>
    <path
       style="fill:none;stroke:#555555;stroke-opacity:0.33333297"
       inkscape:connector-curvature="0"
       id="path3729"
       d="m 428.09,-310.28 c 88.53,49.29 117.63,58.4 184.14,48.49" />
  </g>
  <g
     class="edge"
     id="edge8"
     transform="translate(64.5629,765.974)">
    <title
       id="title3732">  music  --  classical  </title>
    <path
       style="fill:none;stroke:#555555;stroke-opacity:0.33333297"
       inkscape:connector-curvature="0"
       id="path3734"
       d="m 466.11,-356.49 c 24.03,-1.27 56.22,-1.69 108.32,-2.1" />
  </g>
  <g
     class="edge"
     id="edge9"
     transform="translate(64.5629,765.974)">
    <title
       id="title3737">  music  --  core  </title>
    <path
       style="fill:none;stroke:#555555;stroke-opacity:0.33333297"
       inkscape:connector-curvature="0"
       id="path3739"
       d="M 361.31,-373.6 C 302.99,-544.73 300.83,-559.55 320.48,-656.37" />
  </g>
  <g
     class="edge"
     id="edge10"
     transform="translate(64.5629,765.974)">
    <title
       id="title3742">  music  --  country  </title>
    <path
       style="fill:none;stroke:#555555;stroke-opacity:0.33333297"
       inkscape:connector-curvature="0"
       id="path3744"
       d="m 364.79,-373.69 c -24.19,-105.86 -23.7,-119.71 5.09,-184.52" />
  </g>
  <g
     class="edge"
     id="edge11"
     transform="translate(64.5629,765.974)">
    <title
       id="title3747">  music  --  dance  </title>
    <path
       style="fill:none;stroke:#555555;stroke-opacity:0.33333297"
       inkscape:connector-curvature="0"
       id="path3749"
       d="m 371.31,-373.64 c -4.24,-173.7 -1.44,-189.2 54.95,-275.37" />
  </g>
  <g
     class="edge"
     id="edge12"
     transform="translate(64.5629,765.974)">
    <title
       id="title3752">  music  --  disco  </title>
    <path
       style="fill:none;stroke:#555555;stroke-opacity:0.33333297"
       inkscape:connector-curvature="0"
       id="path3754"
       d="m 411.6,-373.58 c 13.03,-6.97 28.95,-11.37 58.23,-17.52" />
  </g>
  <g
     class="edge"
     id="edge13"
     transform="translate(64.5629,765.974)">
    <title
       id="title3757">  music  --  folk  </title>
    <path
       style="fill:none;stroke:#555555;stroke-opacity:0.33333297"
       inkscape:connector-curvature="0"
       id="path3759"
       d="m 364.95,-373.5 c -7.63,-36.3 -5.83,-47.33 9.74,-76.46" />
  </g>
  <g
     class="edge"
     id="edge14"
     transform="translate(64.5629,765.974)">
    <title
       id="title3762">  music  --  funk  </title>
    <path
       style="fill:none;stroke:#555555;stroke-opacity:0.33333297"
       inkscape:connector-curvature="0"
       id="path3764"
       d="M 305.11,-373.49 C 230.64,-408.86 212.6,-419.7 180.4,-446.78" />
  </g>
  <g
     class="edge"
     id="edge15"
     transform="translate(64.5629,765.974)">
    <title
       id="title3767">  music  --  fusion  </title>
    <path
       style="fill:none;stroke:#555555;stroke-opacity:0.33333297"
       inkscape:connector-curvature="0"
       id="path3769"
       d="m 349.99,-373.55 c -97.1,-138.8 -104.06,-153.11 -117.9,-238.91" />
  </g>
  <g
     class="edge"
     id="edge16"
     transform="translate(64.5629,765.974)">
    <title
       id="title3772">  music  --  garage  </title>
    <path
       style="fill:none;stroke:#555555;stroke-opacity:0.33333297"
       inkscape:connector-curvature="0"
       id="path3774"
       d="M 334.15,-373.52 C 203,-482.63 189.91,-496.4 147.81,-566.72" />
  </g>
  <g
     class="edge"
     id="edge17"
     transform="translate(64.5629,765.974)">
    <title
       id="title3777">  music  --  hop  </title>
    <path
       style="fill:none;stroke:#555555;stroke-opacity:0.33333297"
       inkscape:connector-curvature="0"
       id="path3779"
       d="m 396.01,-310.32 c 97.33,128.55 113.06,141.55 216.47,168.28" />
  </g>
  <g
     class="edge"
     id="edge18"
     transform="translate(64.5629,765.974)">
    <title
       id="title3782">  music  --  house  </title>
    <path
       style="fill:none;stroke:#555555;stroke-opacity:0.33333297"
       inkscape:connector-curvature="0"
       id="path3784"
       d="m 344.93,-373.76 c -57.57,-67.69 -64.58,-80.42 -74.77,-129.56" />
  </g>
  <g
     class="edge"
     id="edge19"
     transform="translate(64.5629,765.974)">
    <title
       id="title3787">  music  --  indie  </title>
    <path
       style="fill:none;stroke:#555555;stroke-opacity:0.33333297"
       inkscape:connector-curvature="0"
       id="path3789"
       d="m 383.37,-310.17 c 34.93,97.85 45.32,113.51 112.32,151.33" />
  </g>
  <g
     class="edge"
     id="edge20"
     transform="translate(64.5629,765.974)">
    <title
       id="title3792">  music  --  industrial  </title>
    <path
       style="fill:none;stroke:#555555;stroke-opacity:0.33333297"
       inkscape:connector-curvature="0"
       id="path3794"
       d="m 277.92,-332.5 c -105.51,10.68 -133.84,13.87 -183.159,20.58" />
  </g>
  <g
     class="edge"
     id="edge21"
     transform="translate(64.5629,765.974)">
    <title
       id="title3797">  music  --  jazz  </title>
    <path
       style="fill:none;stroke:#555555;stroke-opacity:0.33333297"
       inkscape:connector-curvature="0"
       id="path3799"
       d="M 299.45,-373.54 C 167.42,-431.07 143.92,-443.36 88.662,-482.47" />
  </g>
  <g
     class="edge"
     id="edge22"
     transform="translate(64.5629,765.974)">
    <title
       id="title3802">  music  --  metal  </title>
    <path
       style="fill:none;stroke:#555555;stroke-opacity:0.33333297"
       inkscape:connector-curvature="0"
       id="path3804"
       d="m 466.39,-364.33 c 156.86,-36.88 192.3,-42.53 266.25,-41.51" />
  </g>
  <g
     class="edge"
     id="edge23"
     transform="translate(64.5629,765.974)">
    <title
       id="title3807">  music  --  pop  </title>
    <path
       style="fill:none;stroke:#555555;stroke-opacity:0.33333297"
       inkscape:connector-curvature="0"
       id="path3809"
       d="m 378.19,-310.25 c 30.09,156.23 36.81,172.36 110.07,238.941" />
  </g>
  <g
     class="edge"
     id="edge24"
     transform="translate(64.5629,765.974)">
    <title
       id="title3812">  music  --  punk  </title>
    <path
       style="fill:none;stroke:#555555;stroke-opacity:0.33333297"
       inkscape:connector-curvature="0"
       id="path3814"
       d="M 277.83,-356.4 C 171.06,-372.84 139.36,-378.47 92.322,-389.66" />
  </g>
  <g
     class="edge"
     id="edge25"
     transform="translate(64.5629,765.974)">
    <title
       id="title3817">  music  --  rap  </title>
    <path
       style="fill:none;stroke:#555555;stroke-opacity:0.33333297"
       inkscape:connector-curvature="0"
       id="path3819"
       d="m 352.84,-310.23 c -51.7,85.59 -56.35,98.92 -56.85,155.97" />
  </g>
  <g
     class="edge"
     id="edge26"
     transform="translate(64.5629,765.974)">
    <title
       id="title3822">  music  --  reggae  </title>
    <path
       style="fill:none;stroke:#555555;stroke-opacity:0.33333297"
       inkscape:connector-curvature="0"
       id="path3824"
       d="m 277.82,-330.16 c -32.68,4.21 -50.42,6.76 -68.55,9.86" />
  </g>
  <g
     class="edge"
     id="edge27"
     transform="translate(64.5629,765.974)">
    <title
       id="title3827">  music  --  rock  </title>
    <path
       style="fill:none;stroke:#555555;stroke-opacity:0.33333297"
       inkscape:connector-curvature="0"
       id="path3829"
       d="m 278.94,-373.63 c -6.23,-2.59 -11.51,-5.08 -16.67,-7.82" />
  </g>
  <g
     class="edge"
     id="edge28"
     transform="translate(64.5629,765.974)">
    <title
       id="title3832">  music  --  rumba  </title>
    <path
       style="fill:none;stroke:#555555;stroke-opacity:0.33333297"
       inkscape:connector-curvature="0"
       id="path3834"
       d="m 334.08,-310.39 c -20.41,17.69 -27.18,26.32 -34.64,42.26" />
  </g>
  <g
     class="edge"
     id="edge29"
     transform="translate(64.5629,765.974)">
    <title
       id="title3837">  music  --  song  </title>
    <path
       style="fill:none;stroke:#555555;stroke-opacity:0.33333297"
       inkscape:connector-curvature="0"
       id="path3839"
       d="M 347.46,-310.39 C 243.28,-176.65 235.06,-162.37 214.04,-80.777" />
  </g>
  <g
     class="edge"
     id="edge30"
     transform="translate(64.5629,765.974)">
    <title
       id="title3842">  music  --  soul  </title>
    <path
       style="fill:none;stroke:#555555;stroke-opacity:0.33333297"
       inkscape:connector-curvature="0"
       id="path3844"
       d="m 329.51,-310.31 c -133.82,99.67 -148.84,113.32 -195.64,176.09" />
  </g>
  <g
     class="edge"
     id="edge31"
     transform="translate(64.5629,765.974)">
    <title
       id="title3847">  music  --  sound  </title>
    <path
       style="fill:none;stroke:#555555;stroke-opacity:0.33333297"
       inkscape:connector-curvature="0"
       id="path3849"
       d="m 285.93,-310.33 c -116.08,42.84 -142.59,54.21 -193.692,82.44" />
  </g>
  <g
     class="edge"
     id="edge32"
     transform="translate(64.5629,765.974)">
    <title
       id="title3852">  music  --  swing  </title>
    <path
       style="fill:none;stroke:#555555;stroke-opacity:0.33333297"
       inkscape:connector-curvature="0"
       id="path3854"
       d="m 320.28,-310.31 c -74.43,45.77 -89.35,57.37 -118.38,90.2" />
  </g>
  <g
     class="edge"
     id="edge33"
     transform="translate(64.5629,765.974)">
    <title
       id="title3857">  music  --  techno  </title>
    <path
       style="fill:none;stroke:#555555;stroke-opacity:0.33333297"
       inkscape:connector-curvature="0"
       id="path3859"
       d="m 368.38,-310.24 c -8.77,77.34 -6.29,90.47 24.8,138.47" />
  </g>
  <g
     class="edge"
     id="edge34"
     transform="translate(64.5629,765.974)">
    <title
       id="title3862">  music  --  trance  </title>
    <path
       style="fill:none;stroke:#555555;stroke-opacity:0.33333297"
       inkscape:connector-curvature="0"
       id="path3864"
       d="M 359.62,-310.23 C 295.02,-145.54 292,-130.74 304.24,-37.224" />
  </g>
  <g
     class="edge"
     id="edge35"
     transform="translate(64.5629,765.974)">
    <title
       id="title3867">  music  --  wave  </title>
    <path
       style="fill:none;stroke:#555555;stroke-opacity:0.33333297"
       inkscape:connector-curvature="0"
       id="path3869"
       d="m 368.68,-310.42 c -17.17,159.31 -15.71,174.4 28.13,257.519" />
  </g>
  <g
     class="edge"
     id="edge36"
     transform="translate(64.5629,765.974)">
    <title
       id="title3872">  hop  --  hip  </title>
    <path
       style="fill:none;stroke:#555555;stroke-opacity:0.33333297"
       inkscape:connector-curvature="0"
       id="path3874"
       d="m 661.51,-115.79 c 47.06,50.222 60.81,64.345 80.56,79.732" />
  </g>
  <g
     class="edge"
     id="edge37"
     transform="translate(64.5629,765.974)">
    <title
       id="title3877">  metal  --  black  </title>
    <path
       style="fill:none;stroke:#555555;stroke-opacity:0.33333297"
       inkscape:connector-curvature="0"
       id="path3879"
       d="m 828.75,-397.3 c 77.46,12.02 102.15,17 131.61,29.34" />
  </g>
  <g
     class="edge"
     id="edge38"
     transform="translate(64.5629,765.974)">
    <title
       id="title3882">  metal  --  death  </title>
    <path
       style="fill:none;stroke:#555555;stroke-opacity:0.33333297"
       inkscape:connector-curvature="0"
       id="path3884"
       d="m 817.89,-422.7 c 83.64,-40.54 102.82,-50.66 133.29,-72.62" />
  </g>
  <g
     class="edge"
     id="edge39"
     transform="translate(64.5629,765.974)">
    <title
       id="title3887">  pop  --  indie  </title>
    <path
       style="fill:none;stroke:#555555;stroke-opacity:0.33333297"
       inkscape:connector-curvature="0"
       id="path3889"
       d="m 515.3,-71.6 c 3.53,-10.781 5.59,-21.63 10.45,-50.8" />
  </g>
  <g
     class="node"
     id="node1"
     transform="translate(64.5629,765.974)">
    <title
       id="title3892">  music  </title>
    <path
       style="fill:none;stroke:#000000"
       inkscape:connector-curvature="0"
       id="path3894"
       d="m 457.11,-373.49 c 0,0 -170,0 -170,0 -6,0 -12,6 -12,12 0,0 0,39 0,39 0,6 6,12 12,12 0,0 170,0 170,0 6,0 12,-6 12,-12 0,0 0,-39 0,-39 0,-6 -6,-12 -12,-12" />
    <text
       style="font-size:50px;text-anchor:middle;font-family:TeX Gyre Adventor"
       id="text3896"
       font-size="50.00"
       y="-329.48999"
       x="372.10999"> music  </text>
  </g>
  <g
     class="node"
     id="node2"
     transform="translate(64.5629,765.974)">
    <title
       id="title3899">  alternative  </title>
    <path
       style="fill:#d88c6c;stroke:none"
       inkscape:connector-curvature="0"
       id="path3901"
       d="m 531.21,-534.74 c 0,0 -57,0 -57,0 -6,0 -12,6 -12,12 0,0 0,12 0,12 0,6 6,12 12,12 0,0 57,0 57,0 6,0 12,-6 12,-12 0,0 0,-12 0,-12 0,-6 -6,-12 -12,-12" />
    <text
       style="font-size:12.5px;text-anchor:middle;font-family:TeX Gyre Adventor"
       id="text3903"
       font-size="12.50"
       y="-513.73999"
       x="502.70999"> alternative  </text>
  </g>
  <g
     class="node"
     id="node3"
     transform="translate(64.5629,765.974)">
    <title
       id="title3906">  band  </title>
    <path
       style="fill:#d86636;stroke:none"
       inkscape:connector-curvature="0"
       id="path3908"
       d="m 675.59,-472.44 c 0,0 -70,0 -70,0 -6,0 -12,6 -12,12 0,0 0,12 0,12 0,6 6,12 12,12 0,0 70,0 70,0 6,0 12,-6 12,-12 0,0 0,-12 0,-12 0,-6 -6,-12 -12,-12" />
    <text
       style="font-size:25px;text-anchor:middle;font-family:TeX Gyre Adventor"
       id="text3910"
       font-size="25.00"
       y="-448.44"
       x="640.59003"> band  </text>
  </g>
  <g
     class="node"
     id="node4"
     transform="translate(64.5629,765.974)">
    <title
       id="title3913">  bass  </title>
    <path
       style="fill:#d88c6c;stroke:none"
       inkscape:connector-curvature="0"
       id="path3915"
       d="m 550.13,-641.67 c 0,0 -30,0 -30,0 -6,0 -12,6 -12,12 0,0 0,12 0,12 0,6 6,12 12,12 0,0 30,0 30,0 6,0 12,-6 12,-12 0,0 0,-12 0,-12 0,-6 -6,-12 -12,-12" />
    <text
       style="font-size:12.5px;text-anchor:middle;font-family:TeX Gyre Adventor"
       id="text3917"
       font-size="12.50"
       y="-620.66998"
       x="535.13"> bass  </text>
  </g>
  <g
     class="node"
     id="node5"
     transform="translate(64.5629,765.974)">
    <title
       id="title3920">  beat  </title>
    <path
       style="fill:#d86636;stroke:none"
       inkscape:connector-curvature="0"
       id="path3922"
       d="m 637.84,-571.28 c 0,0 -42,0 -42,0 -6,0 -12,6 -12,12 0,0 0,12 0,12 0,6 6,12 12,12 0,0 42,0 42,0 6,0 12,-6 12,-12 0,0 0,-12 0,-12 0,-6 -6,-12 -12,-12" />
    <text
       style="font-size:18.75px;text-anchor:middle;font-family:TeX Gyre Adventor"
       id="text3924"
       font-size="18.75"
       y="-548.78003"
       x="616.84003"> beat  </text>
  </g>
  <g
     class="node"
     id="node6"
     transform="translate(64.5629,765.974)">
    <title
       id="title3927">  blues  </title>
    <path
       style="fill:#d86636;stroke:none"
       inkscape:connector-curvature="0"
       id="path3929"
       d="m 592.36,-266.21 c 0,0 -70,0 -70,0 -6,0 -12,6 -12,12 0,0 0,12 0,12 0,6 6,12 12,12 0,0 70,0 70,0 6,0 12,-6 12,-12 0,0 0,-12 0,-12 0,-6 -6,-12 -12,-12" />
    <text
       style="font-size:25px;text-anchor:middle;font-family:TeX Gyre Adventor"
       id="text3931"
       font-size="25.00"
       y="-242.21001"
       x="557.35999"> blues  </text>
  </g>
  <g
     class="node"
     id="node7"
     transform="translate(64.5629,765.974)">
    <title
       id="title3934">  breaks  </title>
    <path
       style="fill:#d87951;stroke:none"
       inkscape:connector-curvature="0"
       id="path3936"
       d="m 477.8,-277.91 c 0,0 -47,0 -47,0 -6,0 -12,6 -12,12 0,0 0,12 0,12 0,6 6,12 12,12 0,0 47,0 47,0 6,0 12,-6 12,-12 0,0 0,-12 0,-12 0,-6 -6,-12 -12,-12" />
    <text
       style="font-size:15.61999989px;text-anchor:middle;font-family:TeX Gyre Adventor"
       id="text3938"
       font-size="15.62"
       y="-255.91"
       x="454.29999"> breaks  </text>
  </g>
  <g
     class="node"
     id="node8"
     transform="translate(64.5629,765.974)">
    <title
       id="title3941">  christmas  </title>
    <path
       style="fill:#d86636;stroke:none"
       inkscape:connector-curvature="0"
       id="path3943"
       d="m 738.87,-292.48 c 0,0 -116,0 -116,0 -6,0 -12,6 -12,12 0,0 0,12 0,12 0,6 6,12 12,12 0,0 116,0 116,0 6,0 12,-6 12,-12 0,0 0,-12 0,-12 0,-6 -6,-12 -12,-12" />
    <text
       style="font-size:25px;text-anchor:middle;font-family:TeX Gyre Adventor"
       id="text3945"
       font-size="25.00"
       y="-268.48001"
       x="680.87"> christmas  </text>
  </g>
  <g
     class="node"
     id="node9"
     transform="translate(64.5629,765.974)">
    <title
       id="title3948">  classical  </title>
    <path
       style="fill:#d88c6c;stroke:none"
       inkscape:connector-curvature="0"
       id="path3950"
       d="m 632.54,-376.86 c 0,0 -46,0 -46,0 -6,0 -12,6 -12,12 0,0 0,12 0,12 0,6 6,12 12,12 0,0 46,0 46,0 6,0 12,-6 12,-12 0,0 0,-12 0,-12 0,-6 -6,-12 -12,-12" />
    <text
       style="font-size:12.5px;text-anchor:middle;font-family:TeX Gyre Adventor"
       id="text3952"
       font-size="12.50"
       y="-355.85999"
       x="609.53998"> classical  </text>
  </g>
  <g
     class="node"
     id="node10"
     transform="translate(64.5629,765.974)">
    <title
       id="title3955">  core  </title>
    <path
       style="fill:#d86636;stroke:none"
       inkscape:connector-curvature="0"
       id="path3957"
       d="m 354.17,-692.39 c 0,0 -60,0 -60,0 -6,0 -12,6 -12,12 0,0 0,12 0,12 0,6 6,12 12,12 0,0 60,0 60,0 6,0 12,-6 12,-12 0,0 0,-12 0,-12 0,-6 -6,-12 -12,-12" />
    <text
       style="font-size:25px;text-anchor:middle;font-family:TeX Gyre Adventor"
       id="text3959"
       font-size="25.00"
       y="-668.39001"
       x="324.17001"> core  </text>
  </g>
  <g
     class="node"
     id="node11"
     transform="translate(64.5629,765.974)">
    <title
       id="title3962">  country  </title>
    <path
       style="fill:#d86636;stroke:none"
       inkscape:connector-curvature="0"
       id="path3964"
       d="m 426.55,-594.39 c 0,0 -97,0 -97,0 -6,0 -12,6 -12,12 0,0 0,12 0,12 0,6 6,12 12,12 0,0 97,0 97,0 6,0 12,-6 12,-12 0,0 0,-12 0,-12 0,-6 -6,-12 -12,-12" />
    <text
       style="font-size:25px;text-anchor:middle;font-family:TeX Gyre Adventor"
       id="text3966"
       font-size="25.00"
       y="-570.39001"
       x="378.04999"> country  </text>
  </g>
  <g
     class="node"
     id="node12"
     transform="translate(64.5629,765.974)">
    <title
       id="title3969">  dance  </title>
    <path
       style="fill:#d86636;stroke:none"
       inkscape:connector-curvature="0"
       id="path3971"
       d="m 481.27,-685.25 c 0,0 -86,0 -86,0 -6,0 -12,6 -12,12 0,0 0,12 0,12 0,6 6,12 12,12 0,0 86,0 86,0 6,0 12,-6 12,-12 0,0 0,-12 0,-12 0,-6 -6,-12 -12,-12" />
    <text
       style="font-size:25px;text-anchor:middle;font-family:TeX Gyre Adventor"
       id="text3973"
       font-size="25.00"
       y="-661.25"
       x="438.26999"> dance  </text>
  </g>
  <g
     class="node"
     id="node13"
     transform="translate(64.5629,765.974)">
    <title
       id="title3976">  disco  </title>
    <path
       style="fill:#d86636;stroke:none"
       inkscape:connector-curvature="0"
       id="path3978"
       d="m 541.92,-417.57 c 0,0 -60,0 -60,0 -6,0 -12,6 -12,12 0,0 0,12 0,12 0,6 6,12 12,12 0,0 60,0 60,0 6,0 12,-6 12,-12 0,0 0,-12 0,-12 0,-6 -6,-12 -12,-12" />
    <text
       style="font-size:21.87999916px;text-anchor:middle;font-family:TeX Gyre Adventor"
       id="text3980"
       font-size="21.88"
       y="-394.07001"
       x="511.92001"> disco  </text>
  </g>
  <g
     class="node"
     id="node14"
     transform="translate(64.5629,765.974)">
    <title
       id="title3983">  folk  </title>
    <path
       style="fill:#d86636;stroke:none"
       inkscape:connector-curvature="0"
       id="path3985"
       d="m 413.29,-486.28 c 0,0 -57,0 -57,0 -6,0 -12,6 -12,12 0,0 0,12 0,12 0,6 6,12 12,12 0,0 57,0 57,0 6,0 12,-6 12,-12 0,0 0,-12 0,-12 0,-6 -6,-12 -12,-12" />
    <text
       style="font-size:25px;text-anchor:middle;font-family:TeX Gyre Adventor"
       id="text3987"
       font-size="25.00"
       y="-462.28"
       x="384.79001"> folk  </text>
  </g>
  <g
     class="node"
     id="node15"
     transform="translate(64.5629,765.974)">
    <title
       id="title3990">  funk  </title>
    <path
       style="fill:#d86636;stroke:none"
       inkscape:connector-curvature="0"
       id="path3992"
       d="m 190.77,-482.91 c 0,0 -63,0 -63,0 -6,0 -12,6 -12,12 0,0 0,12 0,12 0,6 6,12 12,12 0,0 63,0 63,0 6,0 12,-6 12,-12 0,0 0,-12 0,-12 0,-6 -6,-12 -12,-12" />
    <text
       style="font-size:25px;text-anchor:middle;font-family:TeX Gyre Adventor"
       id="text3994"
       font-size="25.00"
       y="-458.91"
       x="159.27"> funk  </text>
  </g>
  <g
     class="node"
     id="node16"
     transform="translate(64.5629,765.974)">
    <title
       id="title3997">  fusion  </title>
    <path
       style="fill:#d87951;stroke:none"
       inkscape:connector-curvature="0"
       id="path3999"
       d="m 252.21,-648.63 c 0,0 -46,0 -46,0 -6,0 -12,6 -12,12 0,0 0,12 0,12 0,6 6,12 12,12 0,0 46,0 46,0 6,0 12,-6 12,-12 0,0 0,-12 0,-12 0,-6 -6,-12 -12,-12" />
    <text
       style="font-size:15.61999989px;text-anchor:middle;font-family:TeX Gyre Adventor"
       id="text4001"
       font-size="15.62"
       y="-626.63"
       x="229.21001"> fusion  </text>
  </g>
  <g
     class="node"
     id="node17"
     transform="translate(64.5629,765.974)">
    <title
       id="title4004">  garage  </title>
    <path
       style="fill:#d87951;stroke:none"
       inkscape:connector-curvature="0"
       id="path4006"
       d="m 162.55,-602.8 c 0,0 -51,0 -51,0 -6,0 -12,6 -12,12 0,0 0,12 0,12 0,6 6,12 12,12 0,0 51,0 51,0 6,0 12,-6 12,-12 0,0 0,-12 0,-12 0,-6 -6,-12 -12,-12" />
    <text
       style="font-size:15.61999989px;text-anchor:middle;font-family:TeX Gyre Adventor"
       id="text4008"
       font-size="15.62"
       y="-580.79999"
       x="137.05"> garage  </text>
  </g>
  <g
     class="node"
     id="node18"
     transform="translate(64.5629,765.974)">
    <title
       id="title4011">  hop  </title>
    <path
       style="fill:#d86636;stroke:none"
       inkscape:connector-curvature="0"
       id="path4013"
       d="m 664.54,-151.92 c 0,0 -40,0 -40,0 -6,0 -12,6 -12,12 0,0 0,12 0,12 0,6 6,12 12,12 0,0 40,0 40,0 6,0 12,-6 12,-12 0,0 0,-12 0,-12 0,-6 -6,-12 -12,-12" />
    <text
       style="font-size:18.75px;text-anchor:middle;font-family:TeX Gyre Adventor"
       id="text4015"
       font-size="18.75"
       y="-129.42"
       x="644.53998"> hop  </text>
  </g>
  <g
     class="node"
     id="node19"
     transform="translate(64.5629,765.974)">
    <title
       id="title4018">  house  </title>
    <path
       style="fill:#d86636;stroke:none"
       inkscape:connector-curvature="0"
       id="path4020"
       d="m 304.5,-539.51 c 0,0 -76,0 -76,0 -6,0 -12,6 -12,12 0,0 0,12 0,12 0,6 6,12 12,12 0,0 76,0 76,0 6,0 12,-6 12,-12 0,0 0,-12 0,-12 0,-6 -6,-12 -12,-12" />
    <text
       style="font-size:25px;text-anchor:middle;font-family:TeX Gyre Adventor"
       id="text4022"
       font-size="25.00"
       y="-515.51001"
       x="266.5"> house  </text>
  </g>
  <g
     class="node"
     id="node20"
     transform="translate(64.5629,765.974)">
    <title
       id="title4025">  indie  </title>
    <path
       style="fill:#d86636;stroke:none"
       inkscape:connector-curvature="0"
       id="path4027"
       d="m 562.26,-158.61 c 0,0 -67,0 -67,0 -6,0 -12,6 -12,12 0,0 0,12 0,12 0,6 6,12 12,12 0,0 67,0 67,0 6,0 12,-6 12,-12 0,0 0,-12 0,-12 0,-6 -6,-12 -12,-12" />
    <text
       style="font-size:25px;text-anchor:middle;font-family:TeX Gyre Adventor"
       id="text4029"
       font-size="25.00"
       y="-134.61"
       x="528.76001"> indie  </text>
  </g>
  <g
     class="node"
     id="node21"
     transform="translate(64.5629,765.974)">
    <title
       id="title4032">  industrial  </title>
    <path
       style="fill:#d88c6c;stroke:none"
       inkscape:connector-curvature="0"
       id="path4034"
       d="m 82.624,-324.65 c 0,0 -52,0 -52,0 -6,0 -12,6 -12,12 0,0 0,12 0,12 0,6 6,12 12,12 0,0 52,0 52,0 6,0 12,-6 12,-12 0,0 0,-12 0,-12 0,-6 -6,-12 -12,-12" />
    <text
       style="font-size:12.5px;text-anchor:middle;font-family:TeX Gyre Adventor"
       id="text4036"
       font-size="12.50"
       y="-303.64999"
       x="56.624001"> industrial  </text>
  </g>
  <g
     class="node"
     id="node22"
     transform="translate(64.5629,765.974)">
    <title
       id="title4039">  jazz  </title>
    <path
       style="fill:#d86636;stroke:none"
       inkscape:connector-curvature="0"
       id="path4041"
       d="m 91.638,-518.72 c 0,0 -57,0 -57,0 -6,0 -12,6 -12,12 0,0 0,12 0,12 0,6 6,12 12,12 0,0 57,0 57,0 6,0 12,-6 12,-12 0,0 0,-12 0,-12 0,-6 -6,-12 -12,-12" />
    <text
       style="font-size:25px;text-anchor:middle;font-family:TeX Gyre Adventor"
       id="text4043"
       font-size="25.00"
       y="-494.72"
       x="63.138"> jazz  </text>
  </g>
  <g
     class="node"
     id="node23"
     transform="translate(64.5629,765.974)">
    <title
       id="title4046">  metal  </title>
    <path
       style="fill:#d86636;stroke:none"
       inkscape:connector-curvature="0"
       id="path4048"
       d="m 817.16,-422.68 c 0,0 -73,0 -73,0 -6,0 -12,6 -12,12 0,0 0,12 0,12 0,6 6,12 12,12 0,0 73,0 73,0 6,0 12,-6 12,-12 0,0 0,-12 0,-12 0,-6 -6,-12 -12,-12" />
    <text
       style="font-size:25px;text-anchor:middle;font-family:TeX Gyre Adventor"
       id="text4050"
       font-size="25.00"
       y="-398.67999"
       x="780.65997"> metal  </text>
  </g>
  <g
     class="node"
     id="node24"
     transform="translate(64.5629,765.974)">
    <title
       id="title4053">  pop  </title>
    <path
       style="fill:#d86636;stroke:none"
       inkscape:connector-curvature="0"
       id="path4055"
       d="m 535.87,-71.18 c 0,0 -55,0 -55,0 -6,0 -12,6 -12,12 0,0 0,12 0,12 0,6 6,12 12,12 0,0 55,0 55,0 6,0 12,-6 12,-12 0,0 0,-12 0,-12 0,-6 -6,-12 -12,-12" />
    <text
       style="font-size:25px;text-anchor:middle;font-family:TeX Gyre Adventor"
       id="text4057"
       font-size="25.00"
       y="-47.18"
       x="508.37"> pop  </text>
  </g>
  <g
     class="node"
     id="node25"
     transform="translate(64.5629,765.974)">
    <title
       id="title4060">  punk  </title>
    <path
       style="fill:#d86636;stroke:none"
       inkscape:connector-curvature="0"
       id="path4062"
       d="m 80,-419.04 c 0,0 -68,0 -68,0 -6,0 -12,6 -12,12 0,0 0,12 0,12 0,6 6,12 12,12 0,0 68,0 68,0 6,0 12,-6 12,-12 0,0 0,-12 0,-12 0,-6 -6,-12 -12,-12" />
    <text
       style="font-size:25px;text-anchor:middle;font-family:TeX Gyre Adventor"
       id="text4064"
       font-size="25.00"
       y="-395.04001"
       x="46"> punk  </text>
  </g>
  <g
     class="node"
     id="node26"
     transform="translate(64.5629,765.974)">
    <title
       id="title4067">  rap  </title>
    <path
       style="fill:#d86636;stroke:none"
       inkscape:connector-curvature="0"
       id="path4069"
       d="m 320.42,-153.97 c 0,0 -49,0 -49,0 -6,0 -12,6 -12,12 0,0 0,12 0,12 0,6 6,12 12,12 0,0 49,0 49,0 6,0 12,-6 12,-12 0,0 0,-12 0,-12 0,-6 -6,-12 -12,-12" />
    <text
       style="font-size:25px;text-anchor:middle;font-family:TeX Gyre Adventor"
       id="text4071"
       font-size="25.00"
       y="-129.97"
       x="295.92001"> rap  </text>
  </g>
  <g
     class="node"
     id="node27"
     transform="translate(64.5629,765.974)">
    <title
       id="title4074">  reggae  </title>
    <path
       style="fill:#d86636;stroke:none"
       inkscape:connector-curvature="0"
       id="path4076"
       d="m 199.13,-330.45 c 0,0 -65,0 -65,0 -6,0 -12,6 -12,12 0,0 0,12 0,12 0,6 6,12 12,12 0,0 65,0 65,0 6,0 12,-6 12,-12 0,0 0,-12 0,-12 0,-6 -6,-12 -12,-12" />
    <text
       style="font-size:18.75px;text-anchor:middle;font-family:TeX Gyre Adventor"
       id="text4078"
       font-size="18.75"
       y="-307.95001"
       x="166.63"> reggae  </text>
  </g>
  <g
     class="node"
     id="node28"
     transform="translate(64.5629,765.974)">
    <title
       id="title4081">  rock  </title>
    <path
       style="fill:#d86636;stroke:none"
       inkscape:connector-curvature="0"
       id="path4083"
       d="m 263.43,-417.49 c 0,0 -62,0 -62,0 -6,0 -12,6 -12,12 0,0 0,12 0,12 0,6 6,12 12,12 0,0 62,0 62,0 6,0 12,-6 12,-12 0,0 0,-12 0,-12 0,-6 -6,-12 -12,-12" />
    <text
       style="font-size:25px;text-anchor:middle;font-family:TeX Gyre Adventor"
       id="text4085"
       font-size="25.00"
       y="-393.48999"
       x="232.42999"> rock  </text>
  </g>
  <g
     class="node"
     id="node29"
     transform="translate(64.5629,765.974)">
    <title
       id="title4088">  rumba  </title>
    <path
       style="fill:#d88c6c;stroke:none"
       inkscape:connector-curvature="0"
       id="path4090"
       d="m 309.61,-268.08 c 0,0 -36,0 -36,0 -6,0 -12,6 -12,12 0,0 0,12 0,12 0,6 6,12 12,12 0,0 36,0 36,0 6,0 12,-6 12,-12 0,0 0,-12 0,-12 0,-6 -6,-12 -12,-12" />
    <text
       style="font-size:12.5px;text-anchor:middle;font-family:TeX Gyre Adventor"
       id="text4092"
       font-size="12.50"
       y="-247.08"
       x="291.60999"> rumba  </text>
  </g>
  <g
     class="node"
     id="node30"
     transform="translate(64.5629,765.974)">
    <title
       id="title4095">  song  </title>
    <path
       style="fill:#d87951;stroke:none"
       inkscape:connector-curvature="0"
       id="path4097"
       d="m 227.4,-80.587 c 0,0 -36,0 -36,0 -6,0 -12,6 -12,12 0,0 0,12 0,12 0,6 6,12 12,12 0,0 36,0 36,0 6,0 12,-6 12,-12 0,0 0,-12 0,-12 0,-6 -6,-12 -12,-12" />
    <text
       style="font-size:15.61999989px;text-anchor:middle;font-family:TeX Gyre Adventor"
       id="text4099"
       font-size="15.62"
       y="-58.587002"
       x="209.39999"> song  </text>
  </g>
  <g
     class="node"
     id="node31"
     transform="translate(64.5629,765.974)">
    <title
       id="title4102">  soul  </title>
    <path
       style="fill:#d86636;stroke:none"
       inkscape:connector-curvature="0"
       id="path4104"
       d="m 149.95,-134.12 c 0,0 -59,0 -59,0 -6,0 -12,6 -12,12 0,0 0,12 0,12 0,6 6,12 12,12 0,0 59,0 59,0 6,0 12,-6 12,-12 0,0 0,-12 0,-12 0,-6 -6,-12 -12,-12" />
    <text
       style="font-size:25px;text-anchor:middle;font-family:TeX Gyre Adventor"
       id="text4106"
       font-size="25.00"
       y="-110.12"
       x="120.45"> soul  </text>
  </g>
  <g
     class="node"
     id="node32"
     transform="translate(64.5629,765.974)">
    <title
       id="title4109">  sound  </title>
    <path
       style="fill:#d86636;stroke:none"
       inkscape:connector-curvature="0"
       id="path4111"
       d="m 93.564,-227.87 c 0,0 -67,0 -67,0 -6,0 -12,6 -12,12 0,0 0,12 0,12 0,6 6,12 12,12 0,0 67,0 67,0 6,0 12,-6 12,-12 0,0 0,-12 0,-12 0,-6 -6,-12 -12,-12" />
    <text
       style="font-size:21.87999916px;text-anchor:middle;font-family:TeX Gyre Adventor"
       id="text4113"
       font-size="21.88"
       y="-204.37"
       x="60.063999"> sound  </text>
  </g>
  <g
     class="node"
     id="node33"
     transform="translate(64.5629,765.974)">
    <title
       id="title4116">  swing  </title>
    <path
       style="fill:#d88c6c;stroke:none"
       inkscape:connector-curvature="0"
       id="path4118"
       d="m 203.19,-220.05 c 0,0 -34,0 -34,0 -6,0 -12,6 -12,12 0,0 0,12 0,12 0,6 6,12 12,12 0,0 34,0 34,0 6,0 12,-6 12,-12 0,0 0,-12 0,-12 0,-6 -6,-12 -12,-12" />
    <text
       style="font-size:12.5px;text-anchor:middle;font-family:TeX Gyre Adventor"
       id="text4120"
       font-size="12.50"
       y="-199.05"
       x="186.19"> swing  </text>
  </g>
  <g
     class="node"
     id="node34"
     transform="translate(64.5629,765.974)">
    <title
       id="title4123">  techno  </title>
    <path
       style="fill:#d86636;stroke:none"
       inkscape:connector-curvature="0"
       id="path4125"
       d="m 450.62,-171.6 c 0,0 -91,0 -91,0 -6,0 -12,6 -12,12 0,0 0,12 0,12 0,6 6,12 12,12 0,0 91,0 91,0 6,0 12,-6 12,-12 0,0 0,-12 0,-12 0,-6 -6,-12 -12,-12" />
    <text
       style="font-size:25px;text-anchor:middle;font-family:TeX Gyre Adventor"
       id="text4127"
       font-size="25.00"
       y="-147.60001"
       x="405.12"> techno  </text>
  </g>
  <g
     class="node"
     id="node35"
     transform="translate(64.5629,765.974)">
    <title
       id="title4130">  trance  </title>
    <path
       style="fill:#d86636;stroke:none"
       inkscape:connector-curvature="0"
       id="path4132"
       d="m 348.64,-37.137 c 0,0 -84,0 -84,0 -6,0 -12,6 -12,12 0,0 0,12 0,12 0,6 6,12 12,12 0,0 84,0 84,0 6,0 12,-6 12,-12 0,0 0,-12 0,-12 0,-6 -6,-12 -12,-12" />
    <text
       style="font-size:25px;text-anchor:middle;font-family:TeX Gyre Adventor"
       id="text4134"
       font-size="25.00"
       y="-13.137"
       x="306.64001"> trance  </text>
  </g>
  <g
     class="node"
     id="node36"
     transform="translate(64.5629,765.974)">
    <title
       id="title4137">  wave  </title>
    <path
       style="fill:#d86636;stroke:none"
       inkscape:connector-curvature="0"
       id="path4139"
       d="m 431.48,-52.685 c 0,0 -50,0 -50,0 -6,0 -12,6 -12,12 0,0 0,12 0,12 0,6 6,12 12,12 0,0 50,0 50,0 6,0 12,-6 12,-12 0,0 0,-12 0,-12 0,-6 -6,-12 -12,-12" />
    <text
       style="font-size:18.75px;text-anchor:middle;font-family:TeX Gyre Adventor"
       id="text4141"
       font-size="18.75"
       y="-30.184999"
       x="406.48001"> wave  </text>
  </g>
  <g
     class="node"
     id="node37"
     transform="translate(64.5629,765.974)">
    <title
       id="title4144">  hip  </title>
    <path
       style="fill:#d89736;stroke:none"
       inkscape:connector-curvature="0"
       id="path4146"
       d="m 790.98,-36 c 0,0 -49,0 -49,0 -6,0 -12,6 -12,12 0,0 0,12 0,12 0,6 6,12 12,12 0,0 49,0 49,0 6,0 12,-6 12,-12 0,0 0,-12 0,-12 0,-6 -6,-12 -12,-12" />
    <text
       style="font-size:25px;text-anchor:middle;font-family:TeX Gyre Adventor"
       id="text4148"
       font-size="25.00"
       y="-12"
       x="766.47998"> hip  </text>
  </g>
  <g
     class="node"
     id="node38"
     transform="translate(64.5629,765.974)">
    <title
       id="title4151">  black  </title>
    <path
       style="fill:#d89736;stroke:none"
       inkscape:connector-curvature="0"
       id="path4153"
       d="m 1024.71,-368.15 c 0,0 -52,0 -52,0 -6,0 -12,6 -12,12 0,0 0,12 0,12 0,6 6,12 12,12 0,0 52,0 52,0 6,0 12,-6 12,-12 0,0 0,-12 0,-12 0,-6 -6,-12 -12,-12" />
    <text
       style="font-size:18.75px;text-anchor:middle;font-family:TeX Gyre Adventor"
       id="text4155"
       font-size="18.75"
       y="-345.64999"
       x="998.71002"> black  </text>
  </g>
  <g
     class="node"
     id="node39"
     transform="translate(64.5629,765.974)">
    <title
       id="title4158">  death  </title>
    <path
       style="fill:#d89736;stroke:none"
       inkscape:connector-curvature="0"
       id="path4160"
       d="m 1001.72,-531.46 c 0,0 -52,0 -52,0 -6,0 -12,6 -12,12 0,0 0,12 0,12 0,6 6,12 12,12 0,0 52,0 52,0 6,0 12,-6 12,-12 0,0 0,-12 0,-12 0,-6 -6,-12 -12,-12" />
    <text
       style="font-size:18.75px;text-anchor:middle;font-family:TeX Gyre Adventor"
       id="text4162"
       font-size="18.75"
       y="-508.95999"
       x="975.71997"> death  </text>
  </g>
</svg>
