<?xml version="1.0" encoding="UTF-8" standalone="no"?>
<!DOCTYPE svg PUBLIC "-//W3C//DTD SVG 1.1//EN"
 "http://www.w3.org/Graphics/SVG/1.1/DTD/svg11.dtd">
<!-- Generated by graphviz version 2.36.0 (20140111.2315)
 -->
<!-- Title: %3 Pages: 1 -->
<svg width="288pt" height="185pt"
 viewBox="0.00 0.00 288.00 185.09" xmlns="http://www.w3.org/2000/svg" xmlns:xlink="http://www.w3.org/1999/xlink">
<g id="graph0" class="graph" transform="scale(0.690647 0.690647) rotate(0) translate(4 264)">
<title>%3</title>
<polygon fill="white" stroke="none" points="-4,4 -4,-264 413,-264 413,4 -4,4"/>
<!-- Music (#0) -->
<g id="node1" class="node"><title>Music (#0)</title>
<polygon fill="none" stroke="black" points="216.5,-223 216.5,-259 293.5,-259 293.5,-223 216.5,-223"/>
<text text-anchor="middle" x="255" y="-237.3" font-family="Times,serif" font-size="14.00">Music (#0)</text>
</g>
<!-- Pop (#0) -->
<g id="node2" class="node"><title>Pop (#0)</title>
<polygon fill="none" stroke="black" points="122,-149 122,-185 186,-185 186,-149 122,-149"/>
<text text-anchor="middle" x="154" y="-163.3" font-family="Times,serif" font-size="14.00">Pop (#0)</text>
</g>
<!-- Music (#0)&#45;&gt;Pop (#0) -->
<g id="edge1" class="edge"><title>Music (#0)&#45;&gt;Pop (#0)</title>
<path fill="none" stroke="black" d="M231.064,-222.937C217.703,-213.412 200.874,-201.415 186.353,-191.063"/>
<polygon fill="black" stroke="black" points="188.288,-188.145 178.114,-185.19 184.225,-193.845 188.288,-188.145"/>
</g>
<!-- Reggae (#1) -->
<g id="node3" class="node"><title>Reggae (#1)</title>
<polygon fill="none" stroke="black" points="213.5,-149 213.5,-185 296.5,-185 296.5,-149 213.5,-149"/>
<text text-anchor="middle" x="255" y="-163.3" font-family="Times,serif" font-size="14.00">Reggae (#1)</text>
</g>
<!-- Music (#0)&#45;&gt;Reggae (#1) -->
<g id="edge2" class="edge"><title>Music (#0)&#45;&gt;Reggae (#1)</title>
<path fill="none" stroke="black" d="M255,-222.937C255,-214.807 255,-204.876 255,-195.705"/>
<polygon fill="black" stroke="black" points="258.5,-195.441 255,-185.441 251.5,-195.441 258.5,-195.441"/>
</g>
<!-- Rock (#2) -->
<g id="node4" class="node"><title>Rock (#2)</title>
<polygon fill="none" stroke="black" points="318.5,-149 318.5,-185 389.5,-185 389.5,-149 318.5,-149"/>
<text text-anchor="middle" x="354" y="-163.3" font-family="Times,serif" font-size="14.00">Rock (#2)</text>
</g>
<!-- Music (#0)&#45;&gt;Rock (#2) -->
<g id="edge3" class="edge"><title>Music (#0)&#45;&gt;Rock (#2)</title>
<path fill="none" stroke="black" d="M278.462,-222.937C291.436,-213.501 307.747,-201.639 321.888,-191.354"/>
<polygon fill="black" stroke="black" points="324.335,-193.902 330.364,-185.19 320.218,-188.241 324.335,-193.902"/>
</g>
<!-- Alternative (#0)  -->
<g id="node5" class="node"><title>Alternative (#0) </title>
<polygon fill="none" stroke="black" points="-0.5,-75 -0.5,-111 106.5,-111 106.5,-75 -0.5,-75"/>
<text text-anchor="middle" x="53" y="-89.3" font-family="Times,serif" font-size="14.00">Alternative (#0) </text>
</g>
<!-- Pop (#0)&#45;&gt;Alternative (#0)  -->
<g id="edge4" class="edge"><title>Pop (#0)&#45;&gt;Alternative (#0) </title>
<path fill="none" stroke="black" d="M130.064,-148.937C116.703,-139.412 99.8736,-127.415 85.3529,-117.063"/>
<polygon fill="black" stroke="black" points="87.2883,-114.145 77.1138,-111.19 83.2249,-119.845 87.2883,-114.145"/>
</g>
<!-- j (#1) -->
<g id="node6" class="node"><title>j (#1)</title>
<polygon fill="none" stroke="black" points="125,-75 125,-111 179,-111 179,-75 125,-75"/>
<text text-anchor="middle" x="152" y="-89.3" font-family="Times,serif" font-size="14.00">j (#1)</text>
</g>
<!-- Pop (#0)&#45;&gt;j (#1) -->
<g id="edge5" class="edge"><title>Pop (#0)&#45;&gt;j (#1)</title>
<path fill="none" stroke="black" d="M153.526,-148.937C153.3,-140.807 153.024,-130.876 152.77,-121.705"/>
<polygon fill="black" stroke="black" points="156.261,-121.34 152.484,-111.441 149.264,-121.534 156.261,-121.34"/>
</g>
<!-- Swedish (#2) -->
<g id="node7" class="node"><title>Swedish (#2)</title>
<polygon fill="none" stroke="black" points="197.5,-75 197.5,-111 286.5,-111 286.5,-75 197.5,-75"/>
<text text-anchor="middle" x="242" y="-89.3" font-family="Times,serif" font-size="14.00">Swedish (#2)</text>
</g>
<!-- Pop (#0)&#45;&gt;Swedish (#2) -->
<g id="edge6" class="edge"><title>Pop (#0)&#45;&gt;Swedish (#2)</title>
<path fill="none" stroke="black" d="M174.855,-148.937C186.279,-139.59 200.612,-127.863 213.1,-117.646"/>
<polygon fill="black" stroke="black" points="215.467,-120.231 220.99,-111.19 211.034,-114.814 215.467,-120.231"/>
</g>
<!-- Alternative (#0) -->
<g id="node8" class="node"><title>Alternative (#0)</title>
<polygon fill="none" stroke="black" points="305,-75 305,-111 409,-111 409,-75 305,-75"/>
<text text-anchor="middle" x="357" y="-89.3" font-family="Times,serif" font-size="14.00">Alternative (#0)</text>
</g>
<!-- Rock (#2)&#45;&gt;Alternative (#0) -->
<g id="edge7" class="edge"><title>Rock (#2)&#45;&gt;Alternative (#0)</title>
<path fill="none" stroke="black" d="M354.711,-148.937C355.05,-140.807 355.463,-130.876 355.846,-121.705"/>
<polygon fill="black" stroke="black" points="359.354,-121.578 356.273,-111.441 352.36,-121.286 359.354,-121.578"/>
</g>
<!-- Swedish (#0) -->
<g id="node9" class="node"><title>Swedish (#0)</title>
<polygon fill="none" stroke="black" points="312.5,-1 312.5,-37 401.5,-37 401.5,-1 312.5,-1"/>
<text text-anchor="middle" x="357" y="-15.3" font-family="Times,serif" font-size="14.00">Swedish (#0)</text>
</g>
<!-- Alternative (#0)&#45;&gt;Swedish (#0) -->
<g id="edge8" class="edge"><title>Alternative (#0)&#45;&gt;Swedish (#0)</title>
<path fill="none" stroke="black" d="M357,-74.937C357,-66.8072 357,-56.8761 357,-47.7047"/>
<polygon fill="black" stroke="black" points="360.5,-47.4406 357,-37.4407 353.5,-47.4407 360.5,-47.4406"/>
</g>
</g>
</svg>
