<?xml version="1.0" encoding="UTF-8" standalone="no"?>
<!DOCTYPE svg PUBLIC "-//W3C//DTD SVG 1.1//EN"
 "http://www.w3.org/Graphics/SVG/1.1/DTD/svg11.dtd">
<!-- Generated by graphviz version 2.36.0 (20140111.2315)
 -->
<!-- Title: %3 Pages: 1 -->
<svg width="292pt" height="101pt"
 viewBox="0.00 0.00 292.00 101.00" xmlns="http://www.w3.org/2000/svg" xmlns:xlink="http://www.w3.org/1999/xlink">
<g id="graph0" class="graph" transform="scale(1 1) rotate(0) translate(4 97)">
<title>%3</title>
<polygon fill="white" stroke="none" points="-4,4 -4,-97 288,-97 288,4 -4,4"/>
<!-- A\na=&#39;y&#39;\nb=None -->
<g id="node1" class="node"><title>A\na=&#39;y&#39;\nb=None</title>
<polygon fill="#ffaaaa" stroke="black" points="0.5,-39.5 0.5,-92.5 61.5,-92.5 61.5,-39.5 0.5,-39.5"/>
<text text-anchor="middle" x="31" y="-77.3" font-family="Times,serif" font-size="14.00">A</text>
<text text-anchor="middle" x="31" y="-62.3" font-family="Times,serif" font-size="14.00">a=&#39;y&#39;</text>
<text text-anchor="middle" x="31" y="-47.3" font-family="Times,serif" font-size="14.00">b=None</text>
</g>
<!-- B\na=None\nb=&#39;x&#39; -->
<g id="node2" class="node"><title>B\na=None\nb=&#39;x&#39;</title>
<polygon fill="#aaffaa" stroke="black" points="224,-39.5 224,-92.5 284,-92.5 284,-39.5 224,-39.5"/>
<text text-anchor="middle" x="254" y="-77.3" font-family="Times,serif" font-size="14.00">B</text>
<text text-anchor="middle" x="254" y="-62.3" font-family="Times,serif" font-size="14.00">a=None</text>
<text text-anchor="middle" x="254" y="-47.3" font-family="Times,serif" font-size="14.00">b=&#39;x&#39;</text>
</g>
<!-- A\na=&#39;y&#39;\nb=None&#45;&#45;B\na=None\nb=&#39;x&#39; -->
<g id="edge1" class="edge"><title>A\na=&#39;y&#39;\nb=None&#45;&#45;B\na=None\nb=&#39;x&#39;</title>
<path fill="none" stroke="black" d="M61.5792,-66.6162C71.457,-66.822 80,-67 80,-67 80,-67 206,-67 206,-67 206,-67 214.211,-66.8253 223.769,-66.6219"/>
<text text-anchor="middle" x="143" y="-70.8" font-family="Times,serif" font-size="14.00">1.0</text>
</g>
<!-- C\na=&#39;y&#39;\nb=&#39;x&#39; -->
<g id="node3" class="node"><title>C\na=&#39;y&#39;\nb=&#39;x&#39;</title>
<polygon fill="#aaaaff" stroke="black" points="116,0.5 116,-52.5 170,-52.5 170,0.5 116,0.5"/>
<text text-anchor="middle" x="143" y="-37.3" font-family="Times,serif" font-size="14.00">C</text>
<text text-anchor="middle" x="143" y="-22.3" font-family="Times,serif" font-size="14.00">a=&#39;y&#39;</text>
<text text-anchor="middle" x="143" y="-7.3" font-family="Times,serif" font-size="14.00">b=&#39;x&#39;</text>
</g>
<!-- A\na=&#39;y&#39;\nb=None&#45;&#45;C\na=&#39;y&#39;\nb=&#39;x&#39; -->
<g id="edge2" class="edge"><title>A\na=&#39;y&#39;\nb=None&#45;&#45;C\na=&#39;y&#39;\nb=&#39;x&#39;</title>
<path fill="none" stroke="black" d="M61.7676,-55.1754C78.6923,-49.021 99.687,-41.3866 115.954,-35.4711"/>
<text text-anchor="middle" x="89" y="-51.8" font-family="Times,serif" font-size="14.00">0.0</text>
</g>
<!-- C\na=&#39;y&#39;\nb=&#39;x&#39;&#45;&#45;B\na=None\nb=&#39;x&#39; -->
<g id="edge3" class="edge"><title>C\na=&#39;y&#39;\nb=&#39;x&#39;&#45;&#45;B\na=None\nb=&#39;x&#39;</title>
<path fill="none" stroke="black" d="M170.108,-35.581C186.232,-41.4978 206.955,-49.1026 223.647,-55.2281"/>
<text text-anchor="middle" x="197" y="-51.8" font-family="Times,serif" font-size="14.00">0.0</text>
</g>
</g>
</svg>
