<?xml version="1.0" encoding="UTF-8" standalone="no"?>
<!DOCTYPE svg PUBLIC "-//W3C//DTD SVG 1.1//EN"
 "http://www.w3.org/Graphics/SVG/1.1/DTD/svg11.dtd">
<!-- Generated by graphviz version 2.36.0 (20140111.2315)
 -->
<!-- Title: %3 Pages: 1 -->
<svg width="288pt" height="48pt"
 viewBox="0.00 0.00 288.00 48.00" xmlns="http://www.w3.org/2000/svg" xmlns:xlink="http://www.w3.org/1999/xlink">
<g id="graph0" class="graph" transform="scale(0.4 0.4) rotate(0) translate(4 116)">
<title>%3</title>
<polygon fill="white" stroke="none" points="-4,4 -4,-116 716,-116 716,4 -4,4"/>
<!-- a -->
<g id="node1" class="node"><title>a</title>
<polygon fill="none" stroke="black" points="-0.5,-1 -0.5,-37 712.5,-37 712.5,-1 -0.5,-1"/>
<text text-anchor="middle" x="63.5" y="-15.3" font-family="Times,serif" font-size="14.00">Alternative Pop (#0)</text>
<polyline fill="none" stroke="black" points="127.5,-1 127.5,-37 "/>
<text text-anchor="middle" x="193.5" y="-15.3" font-family="Times,serif" font-size="14.00">alternative Rock (#1)</text>
<polyline fill="none" stroke="black" points="259.5,-1 259.5,-37 "/>
<text text-anchor="middle" x="295.5" y="-15.3" font-family="Times,serif" font-size="14.00">j&#45;Pop (#2)</text>
<polyline fill="none" stroke="black" points="331.5,-1 331.5,-37 "/>
<text text-anchor="middle" x="373" y="-15.3" font-family="Times,serif" font-size="14.00">Reggae (#3)</text>
<polyline fill="none" stroke="black" points="414.5,-1 414.5,-37 "/>
<text text-anchor="middle" x="507" y="-15.3" font-family="Times,serif" font-size="14.00">Swedish Alternative Rock (#4)</text>
<polyline fill="none" stroke="black" points="599.5,-1 599.5,-37 "/>
<text text-anchor="middle" x="656" y="-15.3" font-family="Times,serif" font-size="14.00">Swedish Pop (#5)</text>
</g>
<!-- Music (#0) -->
<g id="node2" class="node"><title>Music (#0)</title>
<polygon fill="none" stroke="black" points="295.5,-75 295.5,-111 372.5,-111 372.5,-75 295.5,-75"/>
<text text-anchor="middle" x="334" y="-89.3" font-family="Times,serif" font-size="14.00">Music (#0)</text>
</g>
<!-- Music (#0)&#45;&gt;a -->
<g id="edge1" class="edge"><title>Music (#0)&#45;&gt;a:0</title>
<path fill="none" stroke="black" d="M295.46,-84.3205C232.04,-71.6832 109.109,-47.1878 73.1257,-40.0177"/>
<polygon fill="black" stroke="black" points="73.4912,-36.5218 63,-38 72.1232,-43.3868 73.4912,-36.5218"/>
</g>
<!-- Music (#0)&#45;&gt;a -->
<g id="edge2" class="edge"><title>Music (#0)&#45;&gt;a:1</title>
<path fill="none" stroke="black" d="M295.471,-77.2443C263.834,-65.1281 221.3,-48.8383 202.553,-41.6586"/>
<polygon fill="black" stroke="black" points="203.59,-38.308 193,-38 201.087,-44.845 203.59,-38.308"/>
</g>
<!-- Music (#0)&#45;&gt;a -->
<g id="edge3" class="edge"><title>Music (#0)&#45;&gt;a:2</title>
<path fill="none" stroke="black" d="M321.66,-74.9141C314.787,-65.3972 306.535,-53.9719 301.051,-46.3783"/>
<polygon fill="black" stroke="black" points="303.692,-44.0576 295,-38 298.018,-48.156 303.692,-44.0576"/>
</g>
<!-- Music (#0)&#45;&gt;a -->
<g id="edge4" class="edge"><title>Music (#0)&#45;&gt;a:3</title>
<path fill="none" stroke="black" d="M346.34,-74.9141C353.213,-65.3972 361.465,-53.9719 366.949,-46.3783"/>
<polygon fill="black" stroke="black" points="369.982,-48.156 373,-38 364.308,-44.0576 369.982,-48.156"/>
</g>
<!-- Music (#0)&#45;&gt;a -->
<g id="edge5" class="edge"><title>Music (#0)&#45;&gt;a:4</title>
<path fill="none" stroke="black" d="M372.825,-79.8813C413.271,-67.2565 473.941,-48.3189 497.329,-41.0187"/>
<polygon fill="black" stroke="black" points="498.497,-44.3207 507,-38 496.411,-37.6387 498.497,-44.3207"/>
</g>
<!-- Music (#0)&#45;&gt;a -->
<g id="edge6" class="edge"><title>Music (#0)&#45;&gt;a:5</title>
<path fill="none" stroke="black" d="M372.521,-85.54C446.472,-73.1383 604.674,-46.6075 645.971,-39.6818"/>
<polygon fill="black" stroke="black" points="646.717,-43.1058 656,-38 645.559,-36.2022 646.717,-43.1058"/>
</g>
</g>
</svg>
