<?xml version="1.0" encoding="UTF-8" standalone="no"?>
<!DOCTYPE svg PUBLIC "-//W3C//DTD SVG 1.1//EN"
 "http://www.w3.org/Graphics/SVG/1.1/DTD/svg11.dtd">
<!-- Generated by graphviz version 2.36.0 (20140111.2315)
 -->
<!-- Title: %3 Pages: 1 -->
<svg width="288pt" height="45pt"
 viewBox="0.00 0.00 288.00 45.50" xmlns="http://www.w3.org/2000/svg" xmlns:xlink="http://www.w3.org/1999/xlink">
<g id="graph0" class="graph" transform="scale(0.441718 0.441718) rotate(0) translate(4 99)">
<title>%3</title>
<polygon fill="white" stroke="none" points="-4,4 -4,-99 648,-99 648,4 -4,4"/>
<!-- Result 1 -->
<g id="node1" class="node"><title>Result 1</title>
<ellipse fill="black" stroke="black" cx="560" cy="-77" rx="1.8" ry="1.8"/>
</g>
<!-- Result 2 -->
<g id="node2" class="node"><title>Result 2</title>
<ellipse fill="black" stroke="black" cx="642" cy="-18" rx="1.8" ry="1.8"/>
</g>
<!-- S -->
<g id="node3" class="node"><title>S</title>
<ellipse fill="none" stroke="black" cx="22" cy="-48" rx="18" ry="18"/>
<ellipse fill="none" stroke="black" cx="22" cy="-48" rx="22" ry="22"/>
<text text-anchor="middle" x="22" y="-44.3" font-family="Times,serif" font-size="14.00">S</text>
</g>
<!-- [False, False] -->
<g id="node4" class="node"><title>[False, False]</title>
<polygon fill="none" stroke="black" points="98,-30 98,-66 188,-66 188,-30 98,-30"/>
<text text-anchor="middle" x="143" y="-44.3" font-family="Times,serif" font-size="14.00">[False, False]</text>
</g>
<!-- S&#45;&gt;[False, False] -->
<g id="edge1" class="edge"><title>S&#45;&gt;[False, False]</title>
<path fill="none" stroke="black" d="M44.0009,-48C56.1519,-48 72.057,-48 87.5084,-48"/>
<polygon fill="black" stroke="black" points="87.5527,-51.5001 97.5526,-48 87.5526,-44.5001 87.5527,-51.5001"/>
<text text-anchor="middle" x="71" y="-51.8" font-family="Times,serif" font-size="14.00"> [ ]</text>
</g>
<!-- [True, False] -->
<g id="node5" class="node"><title>[True, False]</title>
<polygon fill="none" stroke="black" points="292.5,-59 292.5,-95 379.5,-95 379.5,-59 292.5,-59"/>
<text text-anchor="middle" x="336" y="-73.3" font-family="Times,serif" font-size="14.00">[True, False]</text>
</g>
<!-- [False, False]&#45;&gt;[True, False] -->
<g id="edge2" class="edge"><title>[False, False]&#45;&gt;[True, False]</title>
<path fill="none" stroke="black" d="M188.299,-54.7261C216.296,-58.9768 252.627,-64.4931 282.129,-68.9725"/>
<polygon fill="black" stroke="black" points="281.843,-72.469 292.255,-70.5099 282.894,-65.5483 281.843,-72.469"/>
<text text-anchor="middle" x="240" y="-71.8" font-family="Times,serif" font-size="14.00">[alternative]</text>
</g>
<!-- [False, False]&#45;&gt;[True, False] -->
<g id="edge3" class="edge"><title>[False, False]&#45;&gt;[True, False]</title>
<path fill="none" stroke="black" d="M188.299,-54.7261C216.296,-58.9768 252.627,-64.4931 282.129,-68.9725"/>
<polygon fill="black" stroke="black" points="281.843,-72.469 292.255,-70.5099 282.894,-65.5483 281.843,-72.469"/>
</g>
<!-- [False, True] -->
<g id="node6" class="node"><title>[False, True]</title>
<polygon fill="none" stroke="black" points="292.5,-0 292.5,-36 379.5,-36 379.5,-0 292.5,-0"/>
<text text-anchor="middle" x="336" y="-14.3" font-family="Times,serif" font-size="14.00">[False, True]</text>
</g>
<!-- [False, False]&#45;&gt;[False, True] -->
<g id="edge4" class="edge"><title>[False, False]&#45;&gt;[False, True]</title>
<path fill="none" stroke="black" d="M188.299,-41.042C216.296,-36.6446 252.627,-30.9382 282.129,-26.3043"/>
<polygon fill="black" stroke="black" points="282.919,-29.7233 292.255,-24.7139 281.833,-22.808 282.919,-29.7233"/>
<text text-anchor="middle" x="240" y="-39.8" font-family="Times,serif" font-size="14.00"> [rock]</text>
</g>
<!-- [True, False]&#45;&gt;Result 1 -->
<g id="edge6" class="edge"><title>[True, False]&#45;&gt;Result 1</title>
<path fill="none" stroke="black" d="M379.541,-77C431.711,-77 516.983,-77 547.605,-77"/>
<polygon fill="black" stroke="black" points="547.693,-80.5001 557.693,-77 547.693,-73.5001 547.693,-80.5001"/>
</g>
<!-- [True, True] -->
<g id="node7" class="node"><title>[True, True]</title>
<polygon fill="none" stroke="black" points="518,-0 518,-36 602,-36 602,-0 518,-0"/>
<text text-anchor="middle" x="560" y="-14.3" font-family="Times,serif" font-size="14.00">[True, True]</text>
</g>
<!-- [False, True]&#45;&gt;[True, True] -->
<g id="edge5" class="edge"><title>[False, True]&#45;&gt;[True, True]</title>
<path fill="none" stroke="black" d="M379.541,-18C416.062,-18 468.805,-18 507.665,-18"/>
<polygon fill="black" stroke="black" points="507.729,-21.5001 517.729,-18 507.729,-14.5001 507.729,-21.5001"/>
<text text-anchor="middle" x="449" y="-21.8" font-family="Times,serif" font-size="14.00"> [rock, alternative]</text>
</g>
<!-- [True, True]&#45;&gt;Result 2 -->
<g id="edge7" class="edge"><title>[True, True]&#45;&gt;Result 2</title>
<path fill="none" stroke="black" d="M602.406,-18C612.548,-18 622.568,-18 629.857,-18"/>
<polygon fill="black" stroke="black" points="630.142,-21.5001 640.142,-18 630.142,-14.5001 630.142,-21.5001"/>
</g>
</g>
</svg>
