<?xml version="1.0" encoding="UTF-8" standalone="no"?>
<!-- Created with Inkscape (http://www.inkscape.org/) -->

<svg
   xmlns:dc="http://purl.org/dc/elements/1.1/"
   xmlns:cc="http://creativecommons.org/ns#"
   xmlns:rdf="http://www.w3.org/1999/02/22-rdf-syntax-ns#"
   xmlns:svg="http://www.w3.org/2000/svg"
   xmlns="http://www.w3.org/2000/svg"
   xmlns:sodipodi="http://sodipodi.sourceforge.net/DTD/sodipodi-0.dtd"
   xmlns:inkscape="http://www.inkscape.org/namespaces/inkscape"
   width="744.09448"
   height="500"
   id="svg2"
   version="1.1"
   inkscape:version="0.48.4 r9939"
   sodipodi:docname="traverse_areas.pdf">
  <defs
     id="defs4" />
  <sodipodi:namedview
     id="base"
     pagecolor="#ffffff"
     bordercolor="#666666"
     borderopacity="1.0"
     inkscape:pageopacity="0.0"
     inkscape:pageshadow="2"
     inkscape:zoom="1.979899"
     inkscape:cx="414.69479"
     inkscape:cy="221.0093"
     inkscape:document-units="px"
     inkscape:current-layer="layer1"
     showgrid="false"
     inkscape:window-width="1916"
     inkscape:window-height="1037"
     inkscape:window-x="0"
     inkscape:window-y="41"
     inkscape:window-maximized="0" />
  <metadata
     id="metadata7">
    <rdf:RDF>
      <cc:Work
         rdf:about="">
        <dc:format>image/svg+xml</dc:format>
        <dc:type
           rdf:resource="http://purl.org/dc/dcmitype/StillImage" />
        <dc:title></dc:title>
      </cc:Work>
    </rdf:RDF>
  </metadata>
  <g
     inkscape:label="Ebene 1"
     inkscape:groupmode="layer"
     id="layer1"
     transform="translate(0,-552.36218)">
    <path
       style="fill:none;stroke:#000000;stroke-width:1px;stroke-linecap:butt;stroke-linejoin:miter;stroke-opacity:1"
       d="M 371.42857,281.42857 412.32143,378.75"
       id="path3828"
       inkscape:connector-curvature="0"
       transform="translate(0,552.36218)"
       sodipodi:nodetypes="cc" />
    <path
       style="fill:none;stroke:#000000;stroke-width:1px;stroke-linecap:butt;stroke-linejoin:miter;stroke-opacity:1"
       d="M 126.26907,167.65981 256.57875,134.32478"
       id="path3840"
       inkscape:connector-curvature="0"
       transform="translate(0,552.36218)" />
    <path
       style="fill:none;stroke:#000000;stroke-width:1px;stroke-linecap:butt;stroke-linejoin:miter;stroke-opacity:1"
       d="M 474.7717,222.20805 587.90878,189.88317"
       id="path3848"
       inkscape:connector-curvature="0"
       transform="translate(0,552.36218)" />
    <path
       style="fill:none;stroke:#000000;stroke-width:1;stroke-linecap:butt;stroke-linejoin:miter;stroke-opacity:1;stroke-miterlimit:4;stroke-dasharray:1,2;stroke-dashoffset:0"
       d="m 475.78185,223.2182 -26.26397,-72.73098 141.42136,38.3858"
       id="path3844"
       inkscape:connector-curvature="0"
       transform="translate(0,552.36218)" />
    <path
       style="fill:none;stroke:#000000;stroke-width:1px;stroke-linecap:butt;stroke-linejoin:miter;stroke-opacity:1"
       d="m 214.15234,327.76899 -81.82236,61.11423 153.41692,-9.34391"
       id="path3854"
       inkscape:connector-curvature="0"
       transform="translate(0,552.36218)"
       sodipodi:nodetypes="ccc" />
    <path
       style="fill:none;stroke:#000000;stroke-width:1px;stroke-linecap:butt;stroke-linejoin:miter;stroke-opacity:1"
       d="m 285.62063,379.79184 -1.26269,97.47973"
       id="path3872"
       inkscape:connector-curvature="0"
       transform="translate(0,552.36218)"
       sodipodi:nodetypes="cc" />
    <path
       style="fill:none;stroke:#000000;stroke-width:1px;stroke-linecap:butt;stroke-linejoin:miter;stroke-opacity:1"
       d="m 557.14286,281.42857 115.71428,54.28572"
       id="path3876"
       inkscape:connector-curvature="0"
       transform="translate(0,552.36218)" />
    <path
       style="fill:none;stroke:#000000;stroke-width:1;stroke-linecap:butt;stroke-linejoin:miter;stroke-miterlimit:4;stroke-opacity:1;stroke-dasharray:none;stroke-dashoffset:0"
       d="m 373.99346,278.58524 -3.27917,2.12905 106.42857,-59.28572 77.85714,62.14286 36.42857,-95 80,146.42857 L 569.28571,417.14286 286.02428,478.91807 136.42857,390 l 2.36694,-2.19467"
       id="path3826"
       inkscape:connector-curvature="0"
       sodipodi:nodetypes="cccccccccc"
       transform="translate(0,552.36218)" />
    <path
       style="fill:none;stroke:#000000;stroke-width:1px;stroke-linecap:butt;stroke-linejoin:miter;stroke-opacity:1"
       d="M 411.875,378.75 552.14286,283.57143"
       id="path3794"
       inkscape:connector-curvature="0"
       transform="translate(0,552.36218)"
       sodipodi:nodetypes="cc" />
    <path
       style="fill:none;stroke:#000000;stroke-width:1px;stroke-linecap:butt;stroke-linejoin:miter;stroke-opacity:1"
       d="m 127.85714,168.21429 8.21429,-90.000005"
       id="path3870"
       inkscape:connector-curvature="0"
       transform="translate(0,552.36218)" />
    <path
       style="fill:none;stroke:#000000;stroke-width:1;stroke-linecap:butt;stroke-linejoin:miter;stroke-opacity:1;stroke-miterlimit:4;stroke-dasharray:1,2;stroke-dashoffset:0"
       d="m 126.26907,167.65981 4.04061,106.5711 99.50002,-48.48733"
       id="path3856"
       inkscape:connector-curvature="0"
       transform="translate(0,552.36218)" />
    <path
       style="fill:none;stroke:#000000;stroke-width:1;stroke-linecap:butt;stroke-linejoin:miter;stroke-opacity:1;stroke-miterlimit:4;stroke-dasharray:1,2;stroke-dashoffset:0"
       d="m 228.29448,223.72328 25.25381,-88.89343"
       id="path3864"
       inkscape:connector-curvature="0"
       transform="translate(0,552.36218)" />
    <path
       style="fill:none;stroke:#000000;stroke-width:1;stroke-linecap:butt;stroke-linejoin:miter;stroke-miterlimit:4;stroke-opacity:1;stroke-dasharray:1, 2;stroke-dashoffset:0"
       d="m 126.07143,166.78571 -0.35714,0.35715 102.14285,58.57143 142.85715,53.57142"
       id="path3820"
       inkscape:connector-curvature="0"
       transform="translate(0,552.36218)"
       sodipodi:nodetypes="cccc" />
    <path
       style="fill:none;stroke:#000000;stroke-width:1px;stroke-linecap:butt;stroke-linejoin:miter;stroke-opacity:1"
       d="M 287.23312,477.15773 412.76785,379.46429"
       id="path3832"
       inkscape:connector-curvature="0"
       transform="translate(0,552.36218)"
       sodipodi:nodetypes="cc" />
    <path
       style="fill:none;stroke:#000000;stroke-width:1;stroke-linecap:butt;stroke-linejoin:miter;stroke-opacity:1;stroke-miterlimit:4;stroke-dasharray:1,2;stroke-dashoffset:0"
       d="m 132.83506,391.4086 -2.52538,-121.2183 85.35789,59.09392"
       id="path3868"
       inkscape:connector-curvature="0"
       transform="translate(0,552.36218)" />
    <path
       style="fill:none;stroke:#000000;stroke-width:1px;stroke-linecap:butt;stroke-linejoin:miter;stroke-opacity:1"
       d="M 210.11173,327.76899 371.73614,280.29182"
       id="path3862"
       inkscape:connector-curvature="0"
       transform="translate(0,552.36218)" />
    <path
       style="fill:none;stroke:#000000;stroke-width:1;stroke-linecap:butt;stroke-linejoin:miter;stroke-opacity:1;stroke-miterlimit:4;stroke-dasharray:1,2;stroke-dashoffset:0"
       d="m 370.22091,278.27152 77.27667,-125.764"
       id="path3866"
       inkscape:connector-curvature="0"
       transform="translate(0,552.36218)" />
    <path
       style="fill:none;stroke:#000000;stroke-width:1;stroke-linecap:butt;stroke-linejoin:miter;stroke-opacity:1;stroke-miterlimit:4;stroke-dasharray:1,2;stroke-dashoffset:0"
       d="m 215.16249,328.77914 c 0,0 14.64721,-103.54063 12.62691,-104.04571 -2.02031,-0.50508 111.11678,-38.89087 111.11678,-38.89087 l 31.8198,93.94418"
       id="path3860"
       inkscape:connector-curvature="0"
       transform="translate(0,552.36218)" />
    <path
       style="fill:none;stroke:#000000;stroke-width:1px;stroke-linecap:butt;stroke-linejoin:miter;stroke-opacity:1"
       d="m 212.14286,327.14286 74.69797,53.6568"
       id="path3838"
       inkscape:connector-curvature="0"
       transform="translate(0,552.36218)"
       sodipodi:nodetypes="cc" />
    <path
       style="fill:none;stroke:#000000;stroke-width:1px;stroke-linecap:butt;stroke-linejoin:miter;stroke-opacity:1"
       d="M 285.87317,379.28677 371.73614,280.7969 554.57375,283.82736 570.71429,417.5 412.5,377.5 z"
       id="path3792"
       inkscape:connector-curvature="0"
       transform="translate(0,552.36218)"
       sodipodi:nodetypes="cccccc" />
    <path
       style="fill:none;stroke:#000000;stroke-width:1;stroke-linecap:butt;stroke-linejoin:miter;stroke-opacity:1;stroke-miterlimit:4;stroke-dasharray:1,2;stroke-dashoffset:0"
       d="m 252.85714,135.71429 84.28572,51.42857 111.42857,-35 -91.42857,-70.000003 z"
       id="path3816"
       inkscape:connector-curvature="0"
       transform="translate(0,552.36218)" />
    <path
       style="fill:none;stroke:#000000;stroke-width:1px;stroke-linecap:butt;stroke-linejoin:miter;stroke-opacity:1"
       d="M 139.40105,77.756236 200.0102,28.258761"
       id="path3850"
       inkscape:connector-curvature="0"
       transform="translate(0,552.36218)" />
    <path
       style="fill:none;stroke:#000000;stroke-width:1px;stroke-linecap:butt;stroke-linejoin:miter;stroke-opacity:1"
       d="M 72.857143,27.857142 204.56416,29.205215"
       id="path3824"
       inkscape:connector-curvature="0"
       transform="translate(0,552.36218)"
       sodipodi:nodetypes="cc" />
    <path
       style="fill:none;stroke:#000000;stroke-width:1;stroke-linecap:butt;stroke-linejoin:miter;stroke-opacity:1;stroke-miterlimit:4;stroke-dasharray:1,2;stroke-dashoffset:0"
       d="M 201.02036,27.248609 354.56354,81.796846"
       id="path3842"
       inkscape:connector-curvature="0"
       transform="translate(0,552.36218)" />
    <path
       style="fill:none;stroke:#000000;stroke-width:1;stroke-linecap:butt;stroke-linejoin:miter;stroke-opacity:1;stroke-miterlimit:4;stroke-dasharray:1,2;stroke-dashoffset:0"
       d="M 340,186.42857 355,80"
       id="path3834"
       inkscape:connector-curvature="0"
       transform="translate(0,552.36218)" />
    <path
       style="fill:none;stroke:#000000;stroke-width:1px;stroke-linecap:butt;stroke-linejoin:miter;stroke-opacity:1"
       d="M 47.857143,98.571428 135.71429,79.285714 255,136.42857"
       id="path3874"
       inkscape:connector-curvature="0"
       transform="translate(0,552.36218)" />
    <path
       style="fill:none;stroke:#000000;stroke-width:1px;stroke-linecap:butt;stroke-linejoin:miter;stroke-opacity:1"
       d="M 204.56416,30.092816 252.85714,134.28571"
       id="path3836"
       inkscape:connector-curvature="0"
       transform="translate(0,552.36218)"
       sodipodi:nodetypes="cc" />
    <path
       style="fill:none;stroke:#000000;stroke-width:1px;stroke-linecap:butt;stroke-linejoin:miter;stroke-opacity:1"
       d="M 45.961941,95.433905 124.24876,168.66996"
       id="path3852"
       inkscape:connector-curvature="0"
       transform="translate(0,552.36218)" />
    <path
       style="fill:none;stroke:#000000;stroke-width:1px;stroke-linecap:butt;stroke-linejoin:miter;stroke-opacity:1"
       d="M 46.428571,97.142857 74.285714,26.428571 134.28571,77.142857"
       id="path3822"
       inkscape:connector-curvature="0"
       transform="translate(0,552.36218)" />
    <path
       sodipodi:type="arc"
       style="fill:#eb6464;fill-opacity:1;fill-rule:evenodd;stroke:#000000;stroke-width:3.78500009;stroke-miterlimit:4;stroke-opacity:1;stroke-dasharray:none"
       id="path2988"
       sodipodi:cx="170.71577"
       sodipodi:cy="203.83405"
       sodipodi:rx="25.253813"
       sodipodi:ry="25.253813"
       d="m 195.96959,203.83405 a 25.253813,25.253813 0 1 1 -50.50763,0 25.253813,25.253813 0 1 1 50.50763,0 z"
       transform="matrix(0.83048505,0,0,0.83048505,142.77757,763.75205)" />
    <path
       transform="matrix(0.83048505,0,0,0.83048505,412.23575,665.51471)"
       d="m 195.96959,203.83405 a 25.253813,25.253813 0 1 1 -50.50763,0 25.253813,25.253813 0 1 1 50.50763,0 z"
       sodipodi:ry="25.253813"
       sodipodi:rx="25.253813"
       sodipodi:cy="203.83405"
       sodipodi:cx="170.71577"
       id="path3758"
       style="fill:#ec6363;fill-opacity:1;fill-rule:evenodd;stroke:#000000;stroke-width:3.78500009000000004;stroke-miterlimit:4;stroke-opacity:1;stroke-dasharray:none"
       sodipodi:type="arc" />
    <path
       sodipodi:type="arc"
       style="fill:#ec6363;fill-opacity:1;fill-rule:evenodd;stroke:#000000;stroke-width:3.78500009000000004;stroke-miterlimit:4;stroke-opacity:1;stroke-dasharray:none"
       id="path3760"
       sodipodi:cx="170.71577"
       sodipodi:cy="203.83405"
       sodipodi:rx="25.253813"
       sodipodi:ry="25.253813"
       d="m 195.96959,203.83405 a 25.253813,25.253813 0 1 1 -50.50763,0 25.253813,25.253813 0 1 1 50.50763,0 z"
       transform="matrix(0.83048505,0,0,0.83048505,-3.9470995,461.46389)" />
    <path
       transform="matrix(0.45837096,0,0,0.45837096,49.47712,626.20683)"
       d="m 195.96959,203.83405 a 25.253813,25.253813 0 1 1 -50.50763,0 25.253813,25.253813 0 1 1 50.50763,0 z"
       sodipodi:ry="25.253813"
       sodipodi:rx="25.253813"
       sodipodi:cy="203.83405"
       sodipodi:cx="170.71577"
       id="path3762"
       style="fill:#ecd463;fill-opacity:1;fill-rule:evenodd;stroke:#000000;stroke-width:3.78500009;stroke-miterlimit:4;stroke-opacity:1;stroke-dasharray:none"
       sodipodi:type="arc" />
    <path
       sodipodi:type="arc"
       style="fill:#ecd463;fill-opacity:1;fill-rule:evenodd;stroke:#000000;stroke-width:3.78500009;stroke-miterlimit:4;stroke-opacity:1;stroke-dasharray:none"
       id="path3764"
       sodipodi:cx="170.71577"
       sodipodi:cy="203.83405"
       sodipodi:rx="25.253813"
       sodipodi:ry="25.253813"
       d="m 195.96959,203.83405 a 25.253813,25.253813 0 1 1 -50.50763,0 25.253813,25.253813 0 1 1 50.50763,0 z"
       transform="matrix(0.45837096,0,0,0.45837096,125.23856,487.81593)" />
    <path
       transform="matrix(0.45837096,0,0,0.45837096,176.75634,593.88195)"
       d="m 195.96959,203.83405 a 25.253813,25.253813 0 1 1 -50.50763,0 25.253813,25.253813 0 1 1 50.50763,0 z"
       sodipodi:ry="25.253813"
       sodipodi:rx="25.253813"
       sodipodi:cy="203.83405"
       sodipodi:cx="170.71577"
       id="path3766"
       style="fill:#ecd463;fill-opacity:1;fill-rule:evenodd;stroke:#000000;stroke-width:3.78500009;stroke-miterlimit:4;stroke-opacity:1;stroke-dasharray:none"
       sodipodi:type="arc" />
    <path
       sodipodi:type="arc"
       style="fill:#ecd463;fill-opacity:1;fill-rule:evenodd;stroke:#000000;stroke-width:3.78500009;stroke-miterlimit:4;stroke-opacity:1;stroke-dasharray:none"
       id="path3768"
       sodipodi:cx="170.71577"
       sodipodi:cy="203.83405"
       sodipodi:rx="25.253813"
       sodipodi:ry="25.253813"
       d="m 195.96959,203.83405 a 25.253813,25.253813 0 1 1 -50.50763,0 25.253813,25.253813 0 1 1 50.50763,0 z"
       transform="matrix(0.45837096,0,0,0.45837096,-29.314779,556.50631)" />
    <path
       transform="matrix(0.45837096,0,0,0.45837096,-4.0609654,486.80578)"
       d="m 195.96959,203.83405 a 25.253813,25.253813 0 1 1 -50.50763,0 25.253813,25.253813 0 1 1 50.50763,0 z"
       sodipodi:ry="25.253813"
       sodipodi:rx="25.253813"
       sodipodi:cy="203.83405"
       sodipodi:cx="170.71577"
       id="path3770"
       style="fill:#ecd463;fill-opacity:1;fill-rule:evenodd;stroke:#000000;stroke-width:3.78500009;stroke-miterlimit:4;stroke-opacity:1;stroke-dasharray:none"
       sodipodi:type="arc" />
    <path
       sodipodi:type="arc"
       style="fill:#ec9863;fill-opacity:1;fill-rule:evenodd;stroke:#000000;stroke-width:3.78500009000000004;stroke-miterlimit:4;stroke-opacity:1;stroke-dasharray:none"
       id="path3772"
       sodipodi:cx="170.71577"
       sodipodi:cy="203.83405"
       sodipodi:rx="25.253813"
       sodipodi:ry="25.253813"
       d="m 195.96959,203.83405 a 25.253813,25.253813 0 1 1 -50.50763,0 25.253813,25.253813 0 1 1 50.50763,0 z"
       transform="matrix(0.45837096,0,0,0.45837096,293.93404,738.33376)" />
    <path
       transform="matrix(0.45837096,0,0,0.45837096,333.71687,836.18369)"
       d="m 195.96959,203.83405 a 25.253813,25.253813 0 1 1 -50.50763,0 25.253813,25.253813 0 1 1 50.50763,0 z"
       sodipodi:ry="25.253813"
       sodipodi:rx="25.253813"
       sodipodi:cy="203.83405"
       sodipodi:cx="170.71577"
       id="path3774"
       style="fill:#ec9863;fill-opacity:1;fill-rule:evenodd;stroke:#000000;stroke-width:3.78500009;stroke-miterlimit:4;stroke-opacity:1;stroke-dasharray:none"
       sodipodi:type="arc" />
    <path
       sodipodi:type="arc"
       style="fill:#ecd463;fill-opacity:1;fill-rule:evenodd;stroke:#000000;stroke-width:3.78500009;stroke-miterlimit:4;stroke-opacity:1;stroke-dasharray:none"
       id="path3776"
       sodipodi:cx="170.71577"
       sodipodi:cy="203.83405"
       sodipodi:rx="25.253813"
       sodipodi:ry="25.253813"
       d="m 195.96959,203.83405 a 25.253813,25.253813 0 1 1 -50.50763,0 25.253813,25.253813 0 1 1 50.50763,0 z"
       transform="matrix(0.45837096,0,0,0.45837096,59.578645,848.44039)" />
    <path
       transform="matrix(0.45837096,0,0,0.45837096,401.0102,682.77537)"
       d="m 195.96959,203.83405 a 25.253813,25.253813 0 1 1 -50.50763,0 25.253813,25.253813 0 1 1 50.50763,0 z"
       sodipodi:ry="25.253813"
       sodipodi:rx="25.253813"
       sodipodi:cy="203.83405"
       sodipodi:cx="170.71577"
       id="path3778"
       style="fill:#ecd463;fill-opacity:1;fill-rule:evenodd;stroke:#000000;stroke-width:3.78500009;stroke-miterlimit:4;stroke-opacity:1;stroke-dasharray:none"
       sodipodi:type="arc" />
    <path
       sodipodi:type="arc"
       style="fill:#ecd463;fill-opacity:1;fill-rule:evenodd;stroke:#000000;stroke-width:3.78500009;stroke-miterlimit:4;stroke-opacity:1;stroke-dasharray:none"
       id="path3780"
       sodipodi:cx="170.71577"
       sodipodi:cy="203.83405"
       sodipodi:rx="25.253813"
       sodipodi:ry="25.253813"
       d="m 195.96959,203.83405 a 25.253813,25.253813 0 1 1 -50.50763,0 25.253813,25.253813 0 1 1 50.50763,0 z"
       transform="matrix(0.45837096,0,0,0.45837096,207.41476,936.48211)" />
    <path
       sodipodi:type="arc"
       style="fill:#ecd463;fill-opacity:1;fill-rule:evenodd;stroke:#000000;stroke-width:3.78500009;stroke-miterlimit:4;stroke-opacity:1;stroke-dasharray:none"
       id="path3784"
       sodipodi:cx="170.71577"
       sodipodi:cy="203.83405"
       sodipodi:rx="25.253813"
       sodipodi:ry="25.253813"
       d="m 195.96959,203.83405 a 25.253813,25.253813 0 1 1 -50.50763,0 25.253813,25.253813 0 1 1 50.50763,0 z"
       transform="matrix(0.45837096,0,0,0.45837096,492.93409,876.72466)" />
    <path
       transform="matrix(0.45837096,0,0,0.45837096,492.93409,876.72466)"
       d="m 195.96959,203.83405 a 25.253813,25.253813 0 1 1 -50.50763,0 25.253813,25.253813 0 1 1 50.50763,0 z"
       sodipodi:ry="25.253813"
       sodipodi:rx="25.253813"
       sodipodi:cy="203.83405"
       sodipodi:cx="170.71577"
       id="path3786"
       style="fill:#ecd463;fill-opacity:1;fill-rule:evenodd;stroke:#000000;stroke-width:3.78500009;stroke-miterlimit:4;stroke-opacity:1;stroke-dasharray:none"
       sodipodi:type="arc" />
    <path
       sodipodi:type="arc"
       style="fill:#ecd463;fill-opacity:1;fill-rule:evenodd;stroke:#000000;stroke-width:3.78500009;stroke-miterlimit:4;stroke-opacity:1;stroke-dasharray:none"
       id="path3788"
       sodipodi:cx="170.71577"
       sodipodi:cy="203.83405"
       sodipodi:rx="25.253813"
       sodipodi:ry="25.253813"
       d="m 195.96959,203.83405 a 25.253813,25.253813 0 1 1 -50.50763,0 25.253813,25.253813 0 1 1 50.50763,0 z"
       transform="matrix(0.45837096,0,0,0.45837096,595.96964,795.91246)" />
    <path
       transform="matrix(0.45837096,0,0,0.45837096,515.15744,648.43019)"
       d="m 195.96959,203.83405 a 25.253813,25.253813 0 1 1 -50.50763,0 25.253813,25.253813 0 1 1 50.50763,0 z"
       sodipodi:ry="25.253813"
       sodipodi:rx="25.253813"
       sodipodi:cy="203.83405"
       sodipodi:cx="170.71577"
       id="path3790"
       style="fill:#ecd463;fill-opacity:1;fill-rule:evenodd;stroke:#000000;stroke-width:3.78500009;stroke-miterlimit:4;stroke-opacity:1;stroke-dasharray:none"
       sodipodi:type="arc" />
    <path
       sodipodi:type="arc"
       style="fill:#baec63;fill-opacity:1;fill-rule:evenodd;stroke:#000000;stroke-width:3.78500009000000004;stroke-miterlimit:4;stroke-opacity:1;stroke-dasharray:none"
       id="path3796"
       sodipodi:cx="170.71577"
       sodipodi:cy="203.83405"
       sodipodi:rx="25.253813"
       sodipodi:ry="25.253813"
       d="m 195.96959,203.83405 a 25.253813,25.253813 0 1 1 -50.50763,0 25.253813,25.253813 0 1 1 50.50763,0 z"
       transform="matrix(0.45837096,0,0,0.45837096,53.762834,732.63541)" />
    <path
       transform="matrix(0.45837096,0,0,0.45837096,149.47712,684.77827)"
       d="m 195.96959,203.83405 a 25.253813,25.253813 0 1 1 -50.50763,0 25.253813,25.253813 0 1 1 50.50763,0 z"
       sodipodi:ry="25.253813"
       sodipodi:rx="25.253813"
       sodipodi:cy="203.83405"
       sodipodi:cx="170.71577"
       id="path3798"
       style="fill:#baec63;fill-opacity:1;fill-rule:evenodd;stroke:#000000;stroke-width:3.78500009000000004;stroke-miterlimit:4;stroke-opacity:1;stroke-dasharray:none"
       sodipodi:type="arc" />
    <path
       transform="matrix(0.45837096,0,0,0.45837096,136.7215,787.01182)"
       d="m 195.96959,203.83405 a 25.253813,25.253813 0 1 1 -50.50763,0 25.253813,25.253813 0 1 1 50.50763,0 z"
       sodipodi:ry="25.253813"
       sodipodi:rx="25.253813"
       sodipodi:cy="203.83405"
       sodipodi:cx="170.71577"
       id="path3800"
       style="fill:#ecd463;fill-opacity:1;fill-rule:evenodd;stroke:#000000;stroke-width:3.78500009;stroke-miterlimit:4;stroke-opacity:1;stroke-dasharray:none"
       sodipodi:type="arc" />
    <path
       sodipodi:type="arc"
       style="fill:#baec63;fill-opacity:1;fill-rule:evenodd;stroke:#000000;stroke-width:3.78500009000000004;stroke-miterlimit:4;stroke-opacity:1;stroke-dasharray:none"
       id="path3802"
       sodipodi:cx="170.71577"
       sodipodi:cy="203.83405"
       sodipodi:rx="25.253813"
       sodipodi:ry="25.253813"
       d="m 195.96959,203.83405 a 25.253813,25.253813 0 1 1 -50.50763,0 25.253813,25.253813 0 1 1 50.50763,0 z"
       transform="matrix(0.45837096,0,0,0.45837096,261.61998,645.49256)" />
    <path
       transform="matrix(0.45837096,0,0,0.45837096,278.04855,539.77827)"
       d="m 195.96959,203.83405 a 25.253813,25.253813 0 1 1 -50.50763,0 25.253813,25.253813 0 1 1 50.50763,0 z"
       sodipodi:ry="25.253813"
       sodipodi:rx="25.253813"
       sodipodi:cy="203.83405"
       sodipodi:cx="170.71577"
       id="path3804"
       style="fill:#baec63;fill-opacity:1;fill-rule:evenodd;stroke:#000000;stroke-width:3.78500009000000004;stroke-miterlimit:4;stroke-opacity:1;stroke-dasharray:none"
       sodipodi:type="arc" />
    <path
       sodipodi:type="arc"
       style="fill:#baec63;fill-opacity:1;fill-rule:evenodd;stroke:#000000;stroke-width:3.78500009000000004;stroke-miterlimit:4;stroke-opacity:1;stroke-dasharray:none"
       id="path3806"
       sodipodi:cx="170.71577"
       sodipodi:cy="203.83405"
       sodipodi:rx="25.253813"
       sodipodi:ry="25.253813"
       d="m 195.96959,203.83405 a 25.253813,25.253813 0 1 1 -50.50763,0 25.253813,25.253813 0 1 1 50.50763,0 z"
       transform="matrix(0.45837096,0,0,0.45837096,369.47712,611.92113)" />
  </g>
</svg>
